{"glyphs":{"0":{"ha":833,"x_min":69,"x_max":764,"o":"m 417 -17 q 275 13 339 -17 q 165 101 211 43 q 94 246 119 160 q 69 444 69 332 q 94 642 69 557 q 165 784 119 728 q 275 869 211 840 q 417 897 339 897 q 558 869 494 897 q 668 784 622 840 q 739 642 714 728 q 764 444 764 557 q 739 246 764 332 q 668 101 714 160 q 558 13 622 43 q 417 -17 494 -17 m 417 714 q 365 703 389 714 q 322 662 340 692 q 292 579 303 632 q 281 444 281 526 q 292 308 281 363 q 322 223 303 254 q 365 179 340 192 q 417 167 389 167 q 469 179 444 167 q 512 223 493 192 q 542 308 531 254 q 553 444 553 363 q 542 579 553 526 q 512 662 531 632 q 469 703 493 692 q 417 714 444 714 m 417 333 q 337 364 368 333 q 306 444 306 394 q 337 525 306 494 q 417 556 368 556 q 497 525 465 556 q 528 444 528 494 q 497 364 528 394 q 417 333 465 333 z "},"1":{"ha":833,"x_min":104,"x_max":751,"o":"m 751 192 l 751 0 l 104 0 l 104 192 l 324 192 l 324 647 l 144 647 l 144 794 q 279 829 224 810 q 388 881 335 849 l 563 881 l 563 192 l 751 192 z "},"2":{"ha":833,"x_min":61,"x_max":750,"o":"m 72 136 q 235 272 160 208 q 364 392 310 336 q 449 499 418 449 q 479 594 479 550 q 444 683 479 654 q 351 711 410 711 q 263 685 303 711 q 188 628 224 660 l 61 756 q 133 819 97 792 q 207 863 168 846 q 289 889 246 881 q 385 897 332 897 q 515 876 456 897 q 616 818 574 856 q 682 727 658 781 q 706 608 706 674 q 681 501 706 556 q 614 392 656 446 q 520 286 572 338 q 414 189 468 235 q 495 197 450 193 q 572 200 540 200 l 750 200 l 750 0 l 72 0 l 72 136 z "},"3":{"ha":833,"x_min":50,"x_max":744,"o":"m 158 258 q 256 198 203 221 q 358 175 308 175 q 465 196 424 175 q 506 258 506 217 q 495 303 506 283 q 457 336 485 322 q 382 357 429 350 q 261 364 335 364 l 261 531 q 429 558 381 531 q 478 631 478 585 q 449 691 478 671 q 367 711 419 711 q 278 693 318 711 q 192 639 238 675 l 72 783 q 216 867 140 838 q 378 897 292 897 q 517 881 454 897 q 624 833 579 864 q 692 755 668 801 q 717 649 717 708 q 676 538 717 585 q 556 458 635 490 l 556 453 q 691 377 638 429 q 744 242 744 325 q 715 131 744 179 q 635 50 685 83 q 519 0 585 17 q 383 -17 454 -17 q 187 17 271 -17 q 50 108 103 50 l 158 258 z "},"4":{"ha":833,"x_min":46,"x_max":782,"o":"m 458 378 l 458 478 q 459 527 458 500 q 461 582 460 554 q 464 637 463 610 q 467 686 465 664 l 461 686 q 413 607 439 646 q 363 528 386 568 l 271 378 l 458 378 m 782 197 l 681 197 l 681 0 l 458 0 l 458 197 l 46 197 l 46 364 l 386 881 l 681 881 l 681 378 l 782 378 l 782 197 z "},"5":{"ha":833,"x_min":58,"x_max":744,"o":"m 164 258 q 255 199 207 222 q 356 175 303 175 q 465 203 425 175 q 506 289 506 231 q 465 374 506 346 q 367 403 425 403 q 331 401 347 403 q 301 394 315 399 q 269 382 286 390 q 231 361 253 374 l 128 428 l 150 881 l 706 881 l 706 681 l 356 681 l 344 553 q 394 564 372 561 q 442 567 415 567 q 556 550 501 567 q 653 500 611 533 q 719 415 694 467 q 744 294 744 364 q 715 163 744 221 q 638 65 686 104 q 525 4 589 25 q 392 -17 461 -17 q 197 19 278 -17 q 58 108 115 54 l 164 258 z "},"6":{"ha":833,"x_min":75,"x_max":764,"o":"m 433 161 q 475 167 454 161 q 512 188 496 174 q 538 225 528 201 q 547 283 547 249 q 516 365 547 342 q 439 389 485 389 q 369 372 404 389 q 300 314 335 354 q 324 237 308 267 q 358 190 339 207 q 396 167 376 174 q 433 161 415 161 m 628 644 q 563 687 603 668 q 481 706 522 706 q 413 693 444 706 q 355 653 381 681 q 313 578 329 625 q 293 465 297 532 q 393 533 338 510 q 492 556 449 556 q 597 540 547 556 q 684 490 647 524 q 742 406 721 457 q 764 283 764 354 q 738 157 764 213 q 667 63 711 101 q 563 3 622 24 q 439 -17 504 -17 q 308 8 372 -17 q 191 85 243 32 q 107 222 139 138 q 75 425 75 306 q 108 633 75 544 q 194 781 140 722 q 316 868 247 839 q 458 897 385 897 q 633 864 558 897 q 753 786 707 831 l 628 644 z "},"7":{"ha":833,"x_min":82,"x_max":753,"o":"m 250 0 q 272 192 257 104 q 315 360 286 279 q 388 518 343 440 q 499 681 432 596 l 82 681 l 82 881 l 753 881 l 753 733 q 622 567 671 644 q 545 406 572 489 q 507 226 518 324 q 489 0 496 129 l 250 0 l 250 0 z "},"8":{"ha":833,"x_min":81,"x_max":756,"o":"m 286 253 q 326 174 286 200 q 419 147 365 147 q 501 168 468 147 q 533 239 533 189 q 520 281 533 263 q 483 313 507 299 q 424 342 458 328 q 346 372 389 356 q 302 317 318 349 q 286 253 286 286 m 472 525 q 522 636 522 579 q 494 708 522 682 q 417 733 467 733 q 348 713 376 733 q 319 647 319 693 q 360 576 319 603 q 472 525 401 550 m 81 225 q 126 351 81 301 q 238 433 171 400 l 238 439 q 147 528 182 479 q 111 647 111 578 q 134 752 111 706 q 199 831 157 799 q 297 880 240 863 q 422 897 354 897 q 543 880 489 897 q 635 831 597 863 q 695 754 674 800 q 717 653 717 708 q 680 545 717 592 q 593 468 643 499 l 593 463 q 709 373 663 428 q 756 231 756 318 q 733 133 756 178 q 667 54 711 88 q 560 2 624 21 q 414 -17 496 -17 q 275 1 336 -17 q 170 50 214 18 q 103 126 126 82 q 81 225 81 171 z "},"9":{"ha":833,"x_min":67,"x_max":756,"o":"m 392 492 q 461 509 426 492 q 531 567 496 526 q 507 644 522 614 q 473 690 492 674 q 435 713 454 707 q 397 719 415 719 q 356 713 376 719 q 319 693 335 707 q 293 656 303 679 q 283 597 283 632 q 315 515 283 539 q 392 492 346 492 m 203 236 q 268 194 228 213 q 350 175 308 175 q 417 188 385 175 q 476 228 450 200 q 517 302 501 256 q 538 415 533 349 q 438 348 493 371 q 339 325 382 325 q 233 341 282 325 q 147 390 183 357 q 88 475 110 424 q 67 597 67 526 q 93 724 67 668 q 164 818 119 779 q 267 877 208 857 q 392 897 326 897 q 523 873 458 897 q 640 796 588 849 q 724 659 692 743 q 756 456 756 575 q 723 247 756 336 q 637 100 690 158 q 515 13 583 42 q 372 -17 446 -17 q 198 17 272 -17 q 78 94 124 50 l 203 236 z "},"\u0000":{"ha":0,"x_min":0,"x_max":0,"o":""},"\r":{"ha":833,"x_min":0,"x_max":0,"o":""}," ":{"ha":833,"x_min":0,"x_max":0,"o":""},"A":{"ha":833,"x_min":0,"x_max":833,"o":"m 493 376 l 479 439 q 447 581 464 504 q 414 725 431 657 l 408 725 q 377 580 393 656 q 346 439 361 504 l 332 376 l 493 376 m 536 192 l 289 192 l 244 0 l 0 0 l 272 903 l 561 903 l 833 0 l 581 0 l 536 192 z "},"B":{"ha":833,"x_min":106,"x_max":781,"o":"m 106 903 l 403 903 q 535 892 474 903 q 643 857 597 882 q 715 788 689 832 q 742 678 742 744 q 733 619 742 649 q 705 562 724 589 q 657 514 686 535 q 589 483 628 493 l 589 478 q 733 408 685 458 q 781 267 781 357 q 753 147 781 197 q 678 63 726 96 q 567 15 631 31 q 431 0 503 0 l 106 0 l 106 903 m 397 547 q 482 574 456 547 q 508 642 508 600 q 482 701 508 683 q 397 719 456 719 l 344 719 l 344 547 l 397 547 m 414 183 q 516 210 485 183 q 547 286 547 236 q 516 358 547 336 q 414 381 485 381 l 344 381 l 344 183 l 414 183 z "},"C":{"ha":833,"x_min":71,"x_max":799,"o":"m 71 444 q 106 647 71 558 q 200 795 140 735 q 340 888 260 856 q 513 919 421 919 q 669 884 600 919 q 788 803 739 849 l 657 656 q 592 699 625 683 q 513 714 558 714 q 435 696 471 714 q 372 644 399 678 q 331 563 346 611 q 315 453 315 514 q 374 257 315 325 q 524 189 432 189 q 603 209 568 189 q 668 261 639 229 l 799 117 q 667 17 740 50 q 510 -17 593 -17 q 342 12 421 -17 q 202 98 263 40 q 106 242 142 156 q 71 444 71 329 z "},"D":{"ha":833,"x_min":81,"x_max":775,"o":"m 81 903 l 335 903 q 513 878 432 903 q 651 799 593 853 q 742 660 710 744 q 775 456 775 575 q 743 250 775 336 q 653 108 711 164 q 518 26 596 53 q 349 0 440 0 l 81 0 l 81 903 m 322 192 q 403 203 365 192 q 469 244 442 215 q 514 325 497 274 q 531 456 531 376 q 514 585 531 535 q 469 663 497 635 q 403 701 442 690 q 322 711 365 711 l 319 711 l 319 192 l 322 192 z "},"E":{"ha":833,"x_min":119,"x_max":744,"o":"m 119 903 l 731 903 l 731 703 l 358 703 l 358 561 l 675 561 l 675 361 l 358 361 l 358 200 l 744 200 l 744 0 l 119 0 l 119 903 z "},"F":{"ha":833,"x_min":136,"x_max":749,"o":"m 136 903 l 749 903 l 749 703 l 375 703 l 375 531 l 694 531 l 694 331 l 375 331 l 375 0 l 136 0 l 136 903 z "},"G":{"ha":833,"x_min":56,"x_max":767,"o":"m 56 444 q 89 647 56 558 q 180 797 122 736 q 315 888 238 857 q 481 919 393 919 q 639 884 572 919 q 750 803 706 849 l 619 656 q 560 699 592 683 q 481 714 529 714 q 410 696 443 714 q 353 644 378 678 q 315 563 329 611 q 301 453 301 514 q 349 257 301 325 q 493 189 396 189 q 526 193 510 189 q 554 206 543 197 l 554 331 l 442 331 l 442 525 l 767 525 l 767 94 q 712 53 743 74 q 643 18 681 33 q 564 -7 606 3 q 479 -17 522 -17 q 315 12 392 -17 q 180 98 238 40 q 89 242 122 156 q 56 444 56 329 z "},"H":{"ha":833,"x_min":81,"x_max":753,"o":"m 81 903 l 319 903 l 319 567 l 514 567 l 514 903 l 753 903 l 753 0 l 514 0 l 514 358 l 319 358 l 319 0 l 81 0 l 81 903 z "},"I":{"ha":833,"x_min":92,"x_max":742,"o":"m 92 200 l 297 200 l 297 703 l 92 703 l 92 903 l 742 903 l 742 703 l 536 703 l 536 200 l 742 200 l 742 0 l 92 0 l 92 200 z "},"J":{"ha":833,"x_min":71,"x_max":729,"o":"m 206 281 q 286 213 244 236 q 369 189 328 189 q 421 195 399 189 q 459 218 443 201 q 483 263 475 235 q 490 333 490 290 l 490 703 l 147 703 l 147 903 l 729 903 l 729 314 q 711 186 729 246 q 651 81 693 126 q 542 10 610 36 q 378 -17 475 -17 q 299 -9 340 -17 q 218 16 258 -1 q 140 62 178 33 q 71 132 103 90 l 206 281 z "},"K":{"ha":833,"x_min":79,"x_max":832,"o":"m 79 903 l 319 903 l 319 567 l 325 567 l 547 903 l 810 903 l 544 536 l 832 0 l 569 0 l 406 347 l 319 225 l 319 0 l 79 0 l 79 903 z "},"L":{"ha":833,"x_min":133,"x_max":757,"o":"m 133 903 l 372 903 l 372 200 l 757 200 l 757 0 l 133 0 l 133 903 z "},"M":{"ha":833,"x_min":81,"x_max":753,"o":"m 81 903 l 315 903 l 392 608 l 417 492 l 421 492 l 446 608 l 518 903 l 753 903 l 753 0 l 561 0 l 561 213 q 565 315 561 253 q 572 442 568 376 q 582 569 576 508 q 592 671 588 631 l 588 671 l 513 403 l 465 240 l 363 240 l 315 403 l 244 671 l 239 671 q 249 569 243 631 q 258 442 254 508 q 266 315 263 376 q 269 213 269 253 l 269 0 l 81 0 l 81 903 z "},"N":{"ha":833,"x_min":83,"x_max":750,"o":"m 83 903 l 325 903 l 476 500 l 550 297 l 556 297 q 546 376 551 333 q 535 465 540 419 q 526 555 529 510 q 522 642 522 600 l 522 903 l 750 903 l 750 0 l 508 0 l 357 404 l 283 606 l 278 606 q 299 436 286 528 q 311 261 311 344 l 311 0 l 83 0 l 83 903 z "},"O":{"ha":833,"x_min":47,"x_max":786,"o":"m 417 -17 q 267 15 335 -17 q 150 108 199 47 q 74 256 101 168 q 47 456 47 344 q 74 653 47 567 q 150 799 101 740 q 267 889 199 858 q 417 919 335 919 q 567 889 499 919 q 683 799 635 858 q 759 653 732 739 q 786 456 786 567 q 759 256 786 344 q 683 108 732 168 q 567 15 635 47 q 417 -17 499 -17 m 417 189 q 508 260 475 189 q 542 456 542 332 q 508 647 542 579 q 417 714 475 714 q 325 647 358 714 q 292 456 292 579 q 325 260 292 332 q 417 189 358 189 z "},"P":{"ha":833,"x_min":88,"x_max":799,"o":"m 88 903 l 438 903 q 576 888 510 903 q 691 838 642 874 q 769 745 740 803 q 799 603 799 688 q 769 460 799 519 q 689 362 739 400 q 574 305 639 324 q 438 286 508 286 l 326 286 l 326 0 l 88 0 l 88 903 m 426 475 q 531 508 497 475 q 565 603 565 542 q 529 689 565 664 q 426 714 493 714 l 326 714 l 326 475 l 426 475 z "},"Q":{"ha":833,"x_min":43,"x_max":819,"o":"m 411 714 q 320 647 353 714 q 288 456 288 579 q 320 260 288 332 q 411 189 353 189 q 502 260 469 189 q 535 456 535 332 q 502 647 535 579 q 411 714 469 714 m 819 -222 q 760 -247 796 -237 q 675 -256 724 -256 q 440 -185 536 -256 q 300 0 344 -114 q 113 154 182 38 q 43 456 43 271 q 69 653 43 567 q 144 799 96 740 q 261 889 193 858 q 411 919 329 919 q 561 889 493 919 q 678 799 629 858 q 753 653 726 739 q 779 456 779 567 q 717 168 779 282 q 549 10 656 54 q 578 -28 561 -14 q 617 -51 596 -43 q 660 -63 638 -60 q 703 -67 682 -67 q 743 -60 724 -67 q 778 -47 763 -54 l 819 -222 z "},"R":{"ha":833,"x_min":81,"x_max":828,"o":"m 319 492 l 400 492 q 544 611 544 492 q 508 692 544 669 q 400 714 471 714 l 319 714 l 319 492 m 561 0 l 406 303 l 319 303 l 319 0 l 81 0 l 81 903 l 417 903 q 555 889 489 903 q 670 842 621 875 q 749 752 719 808 q 778 611 778 696 q 738 450 778 514 q 632 350 699 386 l 828 0 l 561 0 z "},"S":{"ha":833,"x_min":61,"x_max":772,"o":"m 197 276 q 306 213 249 238 q 417 189 364 189 q 503 206 479 189 q 528 253 528 222 q 519 281 528 269 q 494 301 511 292 q 453 320 478 311 q 397 340 429 329 l 285 388 q 211 424 246 401 q 151 478 176 447 q 110 550 125 510 q 94 639 94 590 q 119 748 94 697 q 190 837 144 799 q 298 897 235 875 q 439 919 361 919 q 600 890 519 919 q 747 799 681 861 l 628 649 q 536 697 579 681 q 439 714 493 714 q 336 653 336 714 q 373 604 336 621 q 478 563 410 588 l 582 519 q 723 426 674 486 q 772 272 772 367 q 749 163 772 215 q 679 70 725 110 q 566 7 633 31 q 411 -17 499 -17 q 230 15 322 -17 q 61 113 138 46 l 197 276 z "},"T":{"ha":833,"x_min":38,"x_max":796,"o":"m 297 703 l 38 703 l 38 903 l 796 903 l 796 703 l 536 703 l 536 0 l 297 0 l 297 703 z "},"U":{"ha":833,"x_min":81,"x_max":753,"o":"m 81 903 l 319 903 l 319 322 q 341 226 319 264 q 419 189 363 189 q 500 226 478 189 q 522 322 522 264 l 522 903 l 753 903 l 753 350 q 734 198 753 265 q 675 83 715 131 q 572 9 635 35 q 419 -17 508 -17 q 267 9 331 -17 q 161 83 203 35 q 100 198 119 131 q 81 350 81 265 l 81 903 z "},"V":{"ha":833,"x_min":6,"x_max":828,"o":"m 6 903 l 258 903 l 353 508 q 386 366 372 436 q 419 222 400 296 l 425 222 q 459 366 444 296 q 492 508 474 436 l 583 903 l 828 903 l 561 0 l 272 0 l 6 903 z "},"W":{"ha":833,"x_min":3,"x_max":832,"o":"m 3 903 l 247 903 l 258 456 l 258 222 l 264 222 q 285 339 272 281 q 308 456 297 397 l 358 675 l 497 675 l 543 456 q 565 342 553 400 q 588 222 578 283 l 593 222 l 593 456 l 604 903 l 832 903 l 728 0 l 481 0 l 440 247 q 427 338 433 292 q 419 424 421 383 l 415 424 q 407 338 413 383 q 394 247 401 292 l 357 0 l 115 0 l 3 903 z "},"X":{"ha":833,"x_min":6,"x_max":828,"o":"m 267 464 l 21 903 l 288 903 l 360 756 q 392 687 375 724 q 428 606 408 650 l 433 606 q 464 687 449 650 q 493 756 479 724 l 557 903 l 813 903 l 567 453 l 828 0 l 561 0 l 478 161 q 442 233 458 197 q 408 311 426 269 l 403 311 q 372 233 388 269 q 339 161 356 197 l 261 0 l 6 0 l 267 464 z "},"Y":{"ha":833,"x_min":11,"x_max":822,"o":"m 297 299 l 11 903 l 267 903 l 342 706 q 378 603 360 653 q 415 500 396 554 l 421 500 q 459 603 440 554 q 497 706 478 653 l 572 903 l 822 903 l 536 299 l 536 0 l 297 0 l 297 299 z "},"Z":{"ha":833,"x_min":74,"x_max":764,"o":"m 74 144 l 465 703 l 111 703 l 111 903 l 760 903 l 760 758 l 368 200 l 764 200 l 764 0 l 74 0 l 74 144 z "},"a":{"ha":833,"x_min":75,"x_max":753,"o":"m 75 197 q 99 300 75 256 q 176 376 124 344 q 311 425 228 407 q 514 450 394 443 q 473 505 507 488 q 381 522 439 522 q 290 508 336 522 q 181 464 243 493 l 97 619 q 258 688 176 664 q 428 711 340 711 q 562 692 501 711 q 665 634 622 674 q 730 533 707 594 q 753 386 753 471 l 753 0 l 558 0 l 542 72 l 536 72 q 425 9 485 35 q 300 -17 365 -17 q 204 1 246 -17 q 133 47 163 18 q 90 115 104 76 q 75 197 75 154 m 303 217 q 378 167 303 167 q 453 183 419 167 q 514 219 486 199 l 514 308 q 409 298 450 306 q 344 278 368 290 q 312 250 321 265 q 303 217 303 235 z "},"b":{"ha":833,"x_min":89,"x_max":775,"o":"m 89 967 l 328 967 l 328 742 l 322 642 q 406 693 360 675 q 499 711 451 711 q 613 686 561 711 q 700 615 664 661 q 756 504 736 569 q 775 360 775 439 q 750 199 775 269 q 684 81 725 129 q 590 8 643 33 q 479 -17 536 -17 q 386 6 432 -17 q 300 75 340 29 l 294 75 l 275 0 l 89 0 l 89 967 m 328 211 q 374 185 350 192 q 422 178 399 178 q 464 187 444 178 q 498 217 483 196 q 522 272 513 238 q 531 356 531 306 q 505 479 531 442 q 428 517 479 517 q 376 506 400 517 q 328 467 353 494 l 328 211 z "},"c":{"ha":833,"x_min":86,"x_max":765,"o":"m 86 347 q 119 501 86 433 q 209 616 153 569 q 339 687 265 663 q 493 711 413 711 q 643 686 575 711 q 756 619 711 661 l 647 472 q 574 509 608 499 q 507 519 540 519 q 379 473 428 519 q 331 347 331 426 q 378 222 331 268 q 499 175 425 175 q 592 193 550 175 q 671 233 635 211 l 765 83 q 622 7 700 31 q 475 -17 544 -17 q 322 8 393 -17 q 198 78 250 32 q 116 193 146 125 q 86 347 86 261 z "},"d":{"ha":833,"x_min":58,"x_max":744,"o":"m 58 347 q 83 500 58 432 q 149 615 108 568 q 242 686 189 661 q 349 711 294 711 q 444 692 407 711 q 514 642 482 674 l 506 742 l 506 967 l 744 967 l 744 0 l 550 0 l 533 64 l 528 64 q 444 6 492 28 q 349 -17 396 -17 q 228 8 282 -17 q 138 81 175 33 q 79 195 100 128 q 58 347 58 263 m 303 350 q 331 217 303 256 q 411 178 360 178 q 463 188 440 178 q 506 228 486 199 l 506 483 q 462 510 485 503 q 414 517 439 517 q 336 479 369 517 q 303 350 303 442 z "},"e":{"ha":833,"x_min":69,"x_max":764,"o":"m 69 347 q 100 500 69 432 q 181 615 131 568 q 298 686 232 661 q 433 711 364 711 q 577 685 515 711 q 681 613 639 658 q 743 506 722 567 q 764 375 764 444 q 760 315 764 343 q 754 275 757 288 l 314 275 q 336 222 319 243 q 377 188 353 200 q 431 169 401 175 q 492 164 460 164 q 573 174 533 164 q 658 206 613 185 l 736 64 q 599 3 674 24 q 458 -17 524 -17 q 305 8 376 -17 q 181 78 233 32 q 99 193 129 125 q 69 347 69 261 m 547 431 q 524 501 547 472 q 439 531 500 531 q 359 508 394 531 q 311 431 324 485 l 547 431 z "},"f":{"ha":833,"x_min":103,"x_max":817,"o":"m 772 772 q 707 790 743 783 q 633 797 671 797 q 548 775 576 797 q 519 697 519 753 l 519 694 l 739 694 l 739 508 l 519 508 l 519 0 l 281 0 l 281 508 l 103 508 l 103 686 l 281 694 l 281 697 q 299 808 281 756 q 356 899 317 860 q 456 960 396 938 q 603 983 517 983 q 720 972 665 983 q 817 947 775 960 l 772 772 z "},"g":{"ha":833,"x_min":61,"x_max":799,"o":"m 254 -75 q 297 -124 254 -108 q 411 -139 340 -139 q 527 -122 482 -139 q 572 -75 572 -104 q 544 -40 572 -47 q 464 -33 517 -33 l 394 -33 q 331 -31 354 -33 q 289 -25 307 -29 q 263 -49 271 -37 q 254 -75 254 -60 m 61 -114 q 167 19 61 -31 l 167 25 q 117 72 138 44 q 97 144 97 100 q 121 215 97 181 q 181 275 144 250 l 181 281 q 113 351 140 306 q 86 458 86 397 q 111 570 86 522 q 179 649 136 618 q 277 696 222 681 q 393 711 332 711 q 511 694 458 711 l 792 694 l 792 522 l 667 522 q 680 490 674 510 q 686 450 686 471 q 664 345 686 389 q 602 274 642 301 q 509 233 563 246 q 393 219 456 219 q 306 229 353 219 q 288 212 293 219 q 283 189 283 204 q 308 156 283 165 q 392 147 333 147 l 510 147 q 724 105 649 147 q 799 -33 799 63 q 769 -137 799 -90 q 683 -217 739 -183 q 549 -268 628 -250 q 374 -286 471 -286 q 252 -277 308 -286 q 153 -247 196 -268 q 85 -194 110 -226 q 61 -114 61 -161 m 393 361 q 453 385 428 361 q 478 458 478 408 q 453 530 478 507 q 393 553 428 553 q 334 530 358 553 q 310 458 310 507 q 334 385 310 408 q 393 361 358 361 z "},"h":{"ha":833,"x_min":89,"x_max":758,"o":"m 89 967 l 328 967 l 328 742 l 315 619 q 406 682 350 653 q 539 711 461 711 q 706 634 653 711 q 758 428 758 557 l 758 0 l 519 0 l 519 397 q 502 482 519 456 q 439 508 485 508 q 381 494 406 508 q 328 456 356 481 l 328 0 l 89 0 l 89 967 z "},"i":{"ha":833,"x_min":103,"x_max":631,"o":"m 103 694 l 606 694 l 606 0 l 367 0 l 367 508 l 103 508 l 103 694 m 478 781 q 368 819 411 781 q 325 919 325 857 q 368 1022 325 982 q 478 1061 411 1061 q 588 1022 544 1061 q 631 919 631 982 q 588 819 631 857 q 478 781 544 781 z "},"j":{"ha":833,"x_min":51,"x_max":631,"o":"m 103 694 l 606 694 l 606 64 q 590 -58 606 0 q 537 -162 575 -117 q 434 -234 499 -207 q 271 -261 369 -261 q 150 -248 203 -261 q 51 -214 97 -235 l 119 -44 q 195 -69 164 -64 q 254 -75 226 -75 q 342 -45 318 -75 q 367 56 367 -15 l 367 508 l 103 508 l 103 694 m 478 781 q 368 819 411 781 q 325 919 325 857 q 368 1022 325 982 q 478 1061 411 1061 q 588 1022 544 1061 q 631 919 631 982 q 588 819 631 857 q 478 781 544 781 z "},"k":{"ha":833,"x_min":89,"x_max":819,"o":"m 89 967 l 328 967 l 328 447 l 333 447 l 544 694 l 803 694 l 546 406 l 819 0 l 561 0 l 408 258 l 328 169 l 328 0 l 89 0 l 89 967 z "},"l":{"ha":833,"x_min":75,"x_max":758,"o":"m 75 967 l 503 967 l 503 278 q 513 228 503 247 q 537 197 522 208 q 570 180 551 185 q 607 175 589 175 q 707 194 650 175 l 758 19 q 706 4 731 11 q 657 -7 682 -3 q 604 -14 632 -11 q 543 -17 576 -17 q 422 6 474 -17 q 334 67 369 28 q 281 163 299 107 q 264 286 264 218 l 264 781 l 75 781 l 75 967 z "},"m":{"ha":833,"x_min":36,"x_max":806,"o":"m 36 694 l 215 694 l 232 610 l 238 610 q 289 681 256 650 q 385 711 322 711 q 459 683 428 711 q 501 600 490 654 q 554 678 517 644 q 650 711 592 711 q 765 649 724 711 q 806 483 806 588 l 806 0 l 581 0 l 581 467 q 557 508 581 508 q 511 456 529 508 l 511 0 l 331 0 l 331 467 q 303 508 331 508 q 261 456 279 508 l 261 0 l 36 0 l 36 694 z "},"n":{"ha":833,"x_min":89,"x_max":758,"o":"m 89 694 l 283 694 l 300 611 l 306 611 q 404 681 347 651 q 538 711 461 711 q 706 634 653 711 q 758 428 758 557 l 758 0 l 519 0 l 519 397 q 502 482 519 456 q 439 508 485 508 q 381 494 406 508 q 328 456 356 481 l 328 0 l 89 0 l 89 694 z "},"o":{"ha":833,"x_min":58,"x_max":775,"o":"m 58 347 q 88 501 58 433 q 168 616 118 569 q 283 687 218 663 q 417 711 347 711 q 549 687 485 711 q 664 616 614 663 q 744 501 714 569 q 775 347 775 433 q 744 193 775 261 q 664 78 714 125 q 549 8 614 32 q 417 -17 485 -17 q 283 8 347 -17 q 168 78 218 32 q 88 193 118 125 q 58 347 58 261 m 303 347 q 329 222 303 268 q 417 175 356 175 q 504 222 478 175 q 531 347 531 268 q 504 473 531 426 q 417 519 478 519 q 329 473 356 519 q 303 347 303 426 z "},"p":{"ha":833,"x_min":89,"x_max":775,"o":"m 328 -53 l 328 -244 l 89 -244 l 89 694 l 283 694 l 300 631 l 306 631 q 397 689 346 667 q 500 711 447 711 q 614 686 563 711 q 701 615 665 661 q 756 504 736 569 q 775 358 775 439 q 750 199 775 268 q 684 81 725 129 q 590 8 643 33 q 479 -17 536 -17 q 394 1 435 -17 q 319 53 354 19 l 328 -53 m 328 211 q 374 185 350 192 q 422 178 399 178 q 464 187 444 178 q 498 217 483 196 q 522 272 513 238 q 531 356 531 306 q 505 479 531 442 q 428 517 479 517 q 376 506 400 517 q 328 467 353 494 l 328 211 z "},"q":{"ha":833,"x_min":58,"x_max":744,"o":"m 58 347 q 83 500 58 432 q 149 615 108 568 q 242 686 189 661 q 349 711 294 711 q 449 691 406 711 q 533 625 493 671 l 539 625 l 558 694 l 744 694 l 744 -244 l 506 -244 l 506 -46 l 515 53 q 437 2 482 21 q 349 -17 392 -17 q 228 8 282 -17 q 138 81 175 33 q 79 195 100 128 q 58 347 58 263 m 303 350 q 331 217 303 256 q 411 178 360 178 q 463 188 440 178 q 506 228 486 199 l 506 483 q 462 510 485 503 q 414 517 439 517 q 336 479 369 517 q 303 350 303 442 z "},"r":{"ha":833,"x_min":144,"x_max":767,"o":"m 144 694 l 340 694 l 358 547 l 364 547 q 485 672 414 633 q 635 711 556 711 q 710 703 683 711 q 767 683 738 696 l 719 483 q 662 498 688 493 q 599 503 636 503 q 481 467 539 503 q 383 344 422 432 l 383 0 l 144 0 l 144 694 z "},"s":{"ha":833,"x_min":64,"x_max":758,"o":"m 169 236 q 289 179 231 200 q 408 158 347 158 q 496 169 471 158 q 521 200 521 179 q 507 224 521 214 q 469 244 493 235 q 415 262 446 253 q 350 281 383 271 q 264 310 307 293 q 186 353 221 328 q 129 410 151 378 q 107 486 107 443 q 131 579 107 538 q 198 650 154 621 q 303 695 242 679 q 440 711 364 711 q 615 680 539 711 q 747 614 692 649 l 642 472 q 544 518 593 500 q 446 536 496 536 q 368 527 392 536 q 344 497 344 518 q 358 474 344 483 q 394 456 371 464 q 447 439 417 447 q 510 422 476 431 q 599 394 554 410 q 678 353 643 378 q 736 295 714 329 q 758 214 758 261 q 735 123 758 165 q 667 49 713 81 q 556 1 622 18 q 403 -17 490 -17 q 222 14 313 -17 q 64 89 131 44 l 169 236 z "},"t":{"ha":833,"x_min":58,"x_max":767,"o":"m 225 508 l 58 508 l 58 686 l 236 694 l 267 875 l 464 875 l 464 694 l 739 694 l 739 508 l 464 508 l 464 299 q 498 197 464 224 q 599 169 532 169 q 666 176 635 169 q 725 192 697 182 l 767 19 q 664 -5 721 7 q 536 -17 607 -17 q 391 6 450 -17 q 295 69 332 28 q 242 167 258 110 q 225 294 225 225 l 225 508 z "},"u":{"ha":833,"x_min":78,"x_max":739,"o":"m 739 0 l 544 0 l 528 92 l 522 92 q 424 13 478 42 q 297 -17 371 -17 q 129 60 181 -17 q 78 267 78 138 l 78 694 l 317 694 l 317 297 q 333 213 317 239 q 396 186 349 186 q 449 198 426 186 q 500 247 472 210 l 500 694 l 739 694 l 739 0 z "},"v":{"ha":833,"x_min":33,"x_max":800,"o":"m 33 694 l 272 694 l 363 392 q 391 285 378 339 q 419 175 404 232 l 425 175 q 453 285 440 232 q 482 392 467 339 l 572 694 l 800 694 l 558 0 l 283 0 l 33 694 z "},"w":{"ha":833,"x_min":3,"x_max":831,"o":"m 3 694 l 236 694 l 263 403 q 272 298 269 350 q 281 192 274 246 l 285 192 q 297 299 290 246 q 314 403 303 353 l 342 583 l 503 583 l 533 403 q 551 298 543 350 q 565 192 558 246 l 571 192 q 579 298 578 246 q 588 403 581 350 l 614 694 l 831 694 l 739 0 l 464 0 l 442 186 q 430 284 435 235 q 419 392 425 333 l 414 392 q 407 309 411 356 q 394 186 403 263 l 372 0 l 103 0 l 3 694 z "},"x":{"ha":833,"x_min":38,"x_max":794,"o":"m 269 361 l 51 694 l 307 694 l 364 597 q 398 538 379 568 q 432 478 417 507 l 438 478 q 463 538 449 507 q 488 597 476 568 l 533 694 l 782 694 l 563 333 l 794 0 l 539 0 l 475 97 q 438 157 457 126 q 400 217 418 188 l 394 217 q 366 158 381 188 q 338 97 351 128 l 286 0 l 38 0 l 269 361 z "},"y":{"ha":833,"x_min":33,"x_max":803,"o":"m 135 -67 q 185 -75 161 -75 q 270 -56 240 -75 q 314 -6 300 -37 l 325 25 l 33 694 l 269 694 l 367 428 q 399 326 385 378 q 429 217 414 274 l 435 217 q 463 322 447 269 q 494 428 479 375 l 578 694 l 803 694 l 542 11 q 483 -111 514 -60 q 413 -196 453 -162 q 323 -245 374 -229 q 204 -261 272 -261 q 144 -258 172 -261 q 93 -247 117 -254 l 135 -67 l 135 -67 z "},"z":{"ha":833,"x_min":97,"x_max":757,"o":"m 97 128 l 418 508 l 138 508 l 138 694 l 747 694 l 747 567 l 425 186 l 757 186 l 757 0 l 97 0 l 97 128 z "},"À":{"ha":833,"x_min":0,"x_max":833,"o":"m 493 376 l 479 439 q 447 581 464 504 q 414 725 431 657 l 408 725 q 377 580 393 656 q 346 439 361 504 l 332 376 l 493 376 m 536 192 l 289 192 l 244 0 l 0 0 l 272 903 l 561 903 l 833 0 l 581 0 l 536 192 m 175 1144 l 425 1144 l 533 972 l 344 972 l 175 1144 z "},"Á":{"ha":833,"x_min":0,"x_max":833,"o":"m 493 376 l 479 439 q 447 581 464 504 q 414 725 431 657 l 408 725 q 377 580 393 656 q 346 439 361 504 l 332 376 l 493 376 m 536 192 l 289 192 l 244 0 l 0 0 l 272 903 l 561 903 l 833 0 l 581 0 l 536 192 m 489 972 l 300 972 l 408 1144 l 658 1144 l 489 972 z "},"Â":{"ha":833,"x_min":0,"x_max":833,"o":"m 493 376 l 479 439 q 447 581 464 504 q 414 725 431 657 l 408 725 q 377 580 393 656 q 346 439 361 504 l 332 376 l 493 376 m 536 192 l 289 192 l 244 0 l 0 0 l 272 903 l 561 903 l 833 0 l 581 0 l 536 192 m 167 972 l 300 1144 l 533 1144 l 667 972 l 486 972 l 419 1053 l 414 1053 l 347 972 l 167 972 z "},"Ã":{"ha":833,"x_min":0,"x_max":833,"o":"m 493 376 l 479 439 q 447 581 464 504 q 414 725 431 657 l 408 725 q 377 580 393 656 q 346 439 361 504 l 332 376 l 493 376 m 536 192 l 289 192 l 244 0 l 0 0 l 272 903 l 561 903 l 833 0 l 581 0 l 536 192 m 506 972 q 453 981 478 972 q 408 1001 429 990 q 370 1022 388 1013 q 339 1031 353 1031 q 308 1018 322 1031 q 286 972 294 1006 l 167 972 q 225 1126 179 1078 q 328 1175 271 1175 q 380 1166 356 1175 q 425 1146 404 1157 q 463 1126 446 1135 q 494 1117 479 1117 q 525 1129 511 1117 q 547 1175 539 1142 l 667 1175 q 644 1084 660 1122 q 608 1021 629 1046 q 560 984 586 996 q 506 972 533 972 z "},"Ä":{"ha":833,"x_min":0,"x_max":833,"o":"m 493 376 l 479 439 q 447 581 464 504 q 414 725 431 657 l 408 725 q 377 580 393 656 q 346 439 361 504 l 332 376 l 493 376 m 536 192 l 289 192 l 244 0 l 0 0 l 272 903 l 561 903 l 833 0 l 581 0 l 536 192 m 272 964 q 194 995 224 964 q 164 1072 164 1026 q 194 1149 164 1118 q 272 1181 224 1181 q 351 1149 321 1181 q 381 1072 381 1118 q 351 995 381 1026 q 272 964 321 964 m 561 964 q 483 995 513 964 q 453 1072 453 1026 q 483 1149 453 1118 q 561 1181 513 1181 q 640 1149 610 1181 q 669 1072 669 1118 q 640 995 669 1026 q 561 964 610 964 z "},"Ā":{"ha":833,"x_min":0,"x_max":833,"o":"m 493 376 l 479 439 q 447 581 464 504 q 414 725 431 657 l 408 725 q 377 580 393 656 q 346 439 361 504 l 332 376 l 493 376 m 536 192 l 289 192 l 244 0 l 0 0 l 272 903 l 561 903 l 833 0 l 581 0 l 536 192 m 211 1144 l 622 1144 l 622 994 l 211 994 l 211 1144 z "},"Ă":{"ha":833,"x_min":0,"x_max":833,"o":"m 493 376 l 479 439 q 447 581 464 504 q 414 725 431 657 l 408 725 q 377 580 393 656 q 346 439 361 504 l 332 376 l 493 376 m 536 192 l 289 192 l 244 0 l 0 0 l 272 903 l 561 903 l 833 0 l 581 0 l 536 192 m 417 972 q 275 1017 322 972 q 219 1144 228 1063 l 347 1144 q 369 1104 354 1119 q 417 1089 385 1089 q 464 1104 449 1089 q 486 1144 479 1119 l 614 1144 q 558 1017 606 1063 q 417 972 511 972 z "},"Å":{"ha":833,"x_min":0,"x_max":833,"o":"m 493 376 l 479 439 q 447 581 464 504 q 414 725 431 657 l 408 725 q 377 580 393 656 q 346 439 361 504 l 332 376 l 493 376 m 536 192 l 289 192 l 244 0 l 0 0 l 272 903 l 561 903 l 833 0 l 581 0 l 536 192 m 417 967 q 296 1005 342 967 q 250 1108 250 1043 q 296 1212 250 1174 q 417 1250 342 1250 q 538 1212 492 1250 q 583 1108 583 1174 q 538 1005 583 1043 q 417 967 492 967 m 417 1053 q 454 1068 439 1053 q 469 1108 469 1083 q 454 1149 469 1133 q 417 1164 439 1164 q 379 1149 394 1164 q 364 1108 364 1133 q 379 1068 364 1083 q 417 1053 394 1053 z "},"Ǎ":{"ha":833,"x_min":0,"x_max":833,"o":"m 493 376 l 479 439 q 447 581 464 504 q 414 725 431 657 l 408 725 q 377 580 393 656 q 346 439 361 504 l 332 376 l 493 376 m 536 192 l 289 192 l 244 0 l 0 0 l 272 903 l 561 903 l 833 0 l 581 0 l 536 192 m 667 1144 l 533 972 l 300 972 l 167 1144 l 347 1144 l 414 1064 l 419 1064 l 486 1144 l 667 1144 z "},"Ạ":{"ha":833,"x_min":0,"x_max":833,"o":"m 493 376 l 479 439 q 447 581 464 504 q 414 725 431 657 l 408 725 q 377 580 393 656 q 346 439 361 504 l 332 376 l 493 376 m 536 192 l 289 192 l 244 0 l 0 0 l 272 903 l 561 903 l 833 0 l 581 0 l 536 192 m 417 -367 q 307 -328 350 -367 q 264 -228 264 -290 q 307 -126 264 -165 q 417 -86 350 -86 q 526 -126 483 -86 q 569 -228 569 -165 q 526 -328 569 -290 q 417 -367 483 -367 z "},"Ả":{"ha":833,"x_min":0,"x_max":833,"o":"m 493 376 l 479 439 q 447 581 464 504 q 414 725 431 657 l 408 725 q 377 580 393 656 q 346 439 361 504 l 332 376 l 493 376 m 536 192 l 289 192 l 244 0 l 0 0 l 272 903 l 561 903 l 833 0 l 581 0 l 536 192 m 347 1047 q 387 1057 371 1050 q 403 1081 403 1064 q 379 1108 403 1097 q 294 1122 356 1118 l 322 1239 q 442 1226 394 1236 q 519 1198 490 1215 q 560 1157 549 1181 q 572 1106 572 1133 q 556 1041 572 1068 q 510 995 539 1014 q 444 967 482 976 q 364 956 407 957 l 347 1047 z "},"Ấ":{"ha":833,"x_min":0,"x_max":860,"o":"m 493 376 l 479 439 q 447 581 464 504 q 414 725 431 657 l 408 725 q 377 580 393 656 q 346 439 361 504 l 332 376 l 493 376 m 536 192 l 289 192 l 244 0 l 0 0 l 272 903 l 561 903 l 833 0 l 581 0 l 536 192 m 679 1242 l 860 1242 l 718 1069 l 585 1069 l 679 1242 m 314 1136 l 519 1136 l 653 972 l 486 972 l 419 1044 l 414 1044 l 347 972 l 181 972 l 314 1136 z "},"Ầ":{"ha":833,"x_min":0,"x_max":833,"o":"m 493 376 l 479 439 q 447 581 464 504 q 414 725 431 657 l 408 725 q 377 580 393 656 q 346 439 361 504 l 332 376 l 493 376 m 536 192 l 289 192 l 244 0 l 0 0 l 272 903 l 561 903 l 833 0 l 581 0 l 536 192 m 776 1069 l 643 1069 l 501 1242 l 682 1242 l 776 1069 m 314 1136 l 519 1136 l 653 972 l 486 972 l 419 1044 l 414 1044 l 347 972 l 181 972 l 314 1136 z "},"Ẩ":{"ha":833,"x_min":0,"x_max":833,"o":"m 493 376 l 479 439 q 447 581 464 504 q 414 725 431 657 l 408 725 q 377 580 393 656 q 346 439 361 504 l 332 376 l 493 376 m 536 192 l 289 192 l 244 0 l 0 0 l 272 903 l 561 903 l 833 0 l 581 0 l 536 192 m 603 1111 q 631 1121 619 1114 q 642 1144 642 1128 q 624 1172 642 1161 q 553 1186 606 1182 l 575 1281 q 681 1268 639 1278 q 747 1243 722 1258 q 782 1207 772 1228 q 792 1164 792 1186 q 742 1071 792 1099 q 619 1039 693 1043 l 603 1111 m 314 1136 l 519 1136 l 653 972 l 486 972 l 419 1044 l 414 1044 l 347 972 l 181 972 l 314 1136 z "},"Ẫ":{"ha":833,"x_min":0,"x_max":833,"o":"m 493 376 l 479 439 q 447 581 464 504 q 414 725 431 657 l 408 725 q 377 580 393 656 q 346 439 361 504 l 332 376 l 493 376 m 536 192 l 289 192 l 244 0 l 0 0 l 272 903 l 561 903 l 833 0 l 581 0 l 536 192 m 314 1136 l 519 1136 l 653 972 l 486 972 l 419 1044 l 414 1044 l 347 972 l 181 972 l 314 1136 m 200 1186 q 249 1317 211 1278 q 333 1356 288 1356 q 383 1348 361 1356 q 424 1331 406 1340 q 458 1313 443 1321 q 486 1306 472 1306 q 515 1317 503 1306 q 533 1356 526 1328 l 633 1356 q 584 1225 622 1264 q 500 1186 546 1186 q 450 1194 472 1186 q 409 1211 428 1201 q 376 1228 390 1221 q 347 1236 361 1236 q 319 1225 331 1236 q 300 1186 307 1214 l 200 1186 z "},"Ậ":{"ha":833,"x_min":0,"x_max":833,"o":"m 493 376 l 479 439 q 447 581 464 504 q 414 725 431 657 l 408 725 q 377 580 393 656 q 346 439 361 504 l 332 376 l 493 376 m 536 192 l 289 192 l 244 0 l 0 0 l 272 903 l 561 903 l 833 0 l 581 0 l 536 192 m 167 972 l 300 1144 l 533 1144 l 667 972 l 486 972 l 419 1053 l 414 1053 l 347 972 l 167 972 m 417 -367 q 307 -328 350 -367 q 264 -228 264 -290 q 307 -126 264 -165 q 417 -86 350 -86 q 526 -126 483 -86 q 569 -228 569 -165 q 526 -328 569 -290 q 417 -367 483 -367 z "},"Ắ":{"ha":833,"x_min":0,"x_max":833,"o":"m 493 376 l 479 439 q 447 581 464 504 q 414 725 431 657 l 408 725 q 377 580 393 656 q 346 439 361 504 l 332 376 l 493 376 m 536 192 l 289 192 l 244 0 l 0 0 l 272 903 l 561 903 l 833 0 l 581 0 l 536 192 m 435 1297 l 610 1297 l 468 1125 l 351 1125 l 435 1297 m 417 972 q 275 1017 322 972 q 219 1144 228 1063 l 325 1144 q 353 1094 333 1113 q 417 1075 372 1075 q 481 1094 461 1075 q 508 1144 500 1113 l 614 1144 q 558 1017 606 1063 q 417 972 511 972 z "},"Ằ":{"ha":833,"x_min":0,"x_max":833,"o":"m 493 376 l 479 439 q 447 581 464 504 q 414 725 431 657 l 408 725 q 377 580 393 656 q 346 439 361 504 l 332 376 l 493 376 m 536 192 l 289 192 l 244 0 l 0 0 l 272 903 l 561 903 l 833 0 l 581 0 l 536 192 m 482 1125 l 365 1125 l 224 1297 l 399 1297 l 482 1125 m 417 972 q 275 1017 322 972 q 219 1144 228 1063 l 325 1144 q 353 1094 333 1113 q 417 1075 372 1075 q 481 1094 461 1075 q 508 1144 500 1113 l 614 1144 q 558 1017 606 1063 q 417 972 511 972 z "},"Ẳ":{"ha":833,"x_min":0,"x_max":833,"o":"m 493 376 l 479 439 q 447 581 464 504 q 414 725 431 657 l 408 725 q 377 580 393 656 q 346 439 361 504 l 332 376 l 493 376 m 536 192 l 289 192 l 244 0 l 0 0 l 272 903 l 561 903 l 833 0 l 581 0 l 536 192 m 350 1194 q 378 1204 367 1197 q 389 1228 389 1211 q 371 1255 389 1244 q 300 1269 353 1265 l 322 1364 q 428 1351 386 1361 q 494 1326 469 1342 q 529 1290 519 1311 q 539 1247 539 1269 q 490 1154 539 1182 q 367 1122 440 1126 l 350 1194 m 417 972 q 275 1017 322 972 q 219 1144 228 1063 l 325 1144 q 353 1094 333 1113 q 417 1075 372 1075 q 481 1094 461 1075 q 508 1144 500 1113 l 614 1144 q 558 1017 606 1063 q 417 972 511 972 z "},"Ẵ":{"ha":833,"x_min":0,"x_max":833,"o":"m 493 376 l 479 439 q 447 581 464 504 q 414 725 431 657 l 408 725 q 377 580 393 656 q 346 439 361 504 l 332 376 l 493 376 m 536 192 l 289 192 l 244 0 l 0 0 l 272 903 l 561 903 l 833 0 l 581 0 l 536 192 m 417 972 q 275 1017 322 972 q 219 1144 228 1063 l 325 1144 q 353 1094 333 1113 q 417 1075 372 1075 q 481 1094 461 1075 q 508 1144 500 1113 l 614 1144 q 558 1017 606 1063 q 417 972 511 972 m 194 1186 q 245 1317 206 1278 q 331 1356 285 1356 q 374 1348 353 1356 q 413 1331 394 1340 q 448 1313 432 1321 q 478 1306 464 1306 q 508 1317 494 1306 q 528 1356 521 1328 l 631 1356 q 580 1225 619 1264 q 494 1186 540 1186 q 450 1194 471 1186 q 411 1211 429 1201 q 377 1228 393 1221 q 347 1236 361 1236 q 317 1224 331 1236 q 297 1186 303 1211 l 194 1186 z "},"Ặ":{"ha":833,"x_min":0,"x_max":833,"o":"m 493 376 l 479 439 q 447 581 464 504 q 414 725 431 657 l 408 725 q 377 580 393 656 q 346 439 361 504 l 332 376 l 493 376 m 536 192 l 289 192 l 244 0 l 0 0 l 272 903 l 561 903 l 833 0 l 581 0 l 536 192 m 417 972 q 275 1017 322 972 q 219 1144 228 1063 l 347 1144 q 369 1104 354 1119 q 417 1089 385 1089 q 464 1104 449 1089 q 486 1144 479 1119 l 614 1144 q 558 1017 606 1063 q 417 972 511 972 m 417 -367 q 307 -328 350 -367 q 264 -228 264 -290 q 307 -126 264 -165 q 417 -86 350 -86 q 526 -126 483 -86 q 569 -228 569 -165 q 526 -328 569 -290 q 417 -367 483 -367 z "},"Ą":{"ha":833,"x_min":0,"x_max":858,"o":"m 493 376 l 479 439 q 447 581 464 504 q 414 725 431 657 l 408 725 q 377 580 393 656 q 346 439 361 504 l 332 376 l 493 376 m 858 -264 q 785 -302 829 -287 q 700 -317 740 -317 q 580 -281 629 -317 q 531 -181 531 -246 q 542 -118 531 -147 q 572 -65 554 -89 q 610 -25 590 -42 q 647 0 631 -8 l 581 0 l 536 192 l 289 192 l 244 0 l 0 0 l 272 903 l 561 903 l 833 0 q 778 -10 803 0 q 738 -37 754 -21 q 712 -75 721 -54 q 703 -117 703 -96 q 717 -152 703 -140 q 753 -164 732 -164 q 782 -158 768 -164 q 806 -144 796 -151 l 858 -264 z "},"Æ":{"ha":833,"x_min":-6,"x_max":828,"o":"m 429 368 l 429 725 l 425 725 q 394 599 410 660 q 367 483 379 538 l 336 368 l 429 368 m 828 200 l 828 0 l 429 0 l 429 183 l 288 183 l 239 0 l -6 0 l 258 903 l 817 903 l 817 703 l 639 703 l 639 564 l 788 564 l 788 364 l 639 364 l 639 200 l 828 200 z "},"Ƀ":{"ha":833,"x_min":3,"x_max":781,"o":"m 414 169 q 519 203 485 169 q 553 300 553 238 q 519 394 553 365 q 414 422 485 422 l 344 422 l 344 353 l 472 353 l 472 242 l 344 242 l 344 169 l 414 169 m 344 561 l 397 561 q 511 656 511 561 q 483 715 511 697 q 397 733 456 733 l 344 733 l 344 561 m 589 506 q 733 431 685 486 q 781 281 781 376 q 753 154 781 207 q 678 67 726 101 q 567 16 631 32 q 431 0 503 0 l 106 0 l 106 242 l 3 242 l 3 344 l 106 353 l 106 903 l 403 903 q 535 892 474 903 q 642 857 596 882 q 713 790 688 832 q 739 686 739 749 q 731 632 739 658 q 703 582 722 606 q 656 540 685 558 q 589 511 628 521 l 589 506 z "},"Ç":{"ha":833,"x_min":71,"x_max":799,"o":"m 71 444 q 106 647 71 558 q 200 795 140 735 q 340 888 260 856 q 513 919 421 919 q 669 884 600 919 q 788 803 739 849 l 657 656 q 592 699 625 683 q 513 714 558 714 q 435 696 471 714 q 372 644 399 678 q 331 563 346 611 q 315 453 315 514 q 374 257 315 325 q 524 189 432 189 q 603 209 568 189 q 668 261 639 229 l 799 117 q 667 17 740 50 q 510 -17 593 -17 q 342 12 421 -17 q 202 98 263 40 q 106 242 142 156 q 71 444 71 329 m 419 6 l 556 6 l 531 -56 q 589 -92 567 -68 q 611 -161 611 -117 q 590 -226 611 -199 q 532 -272 568 -253 q 448 -300 496 -290 q 347 -311 400 -310 l 331 -219 q 410 -202 379 -215 q 442 -161 442 -189 q 427 -132 442 -146 q 364 -106 413 -118 l 419 6 z "},"Ć":{"ha":833,"x_min":71,"x_max":799,"o":"m 71 444 q 106 647 71 558 q 200 795 140 735 q 340 888 260 856 q 513 919 421 919 q 669 884 600 919 q 788 803 739 849 l 657 656 q 592 699 625 683 q 513 714 558 714 q 435 696 471 714 q 372 644 399 678 q 331 563 346 611 q 315 453 315 514 q 374 257 315 325 q 524 189 432 189 q 603 209 568 189 q 668 261 639 229 l 799 117 q 667 17 740 50 q 510 -17 593 -17 q 342 12 421 -17 q 202 98 263 40 q 106 242 142 156 q 71 444 71 329 m 567 972 l 378 972 l 486 1144 l 736 1144 l 567 972 z "},"Ĉ":{"ha":833,"x_min":71,"x_max":799,"o":"m 71 444 q 106 647 71 558 q 200 795 140 735 q 340 888 260 856 q 513 919 421 919 q 669 884 600 919 q 788 803 739 849 l 657 656 q 592 699 625 683 q 513 714 558 714 q 435 696 471 714 q 372 644 399 678 q 331 563 346 611 q 315 453 315 514 q 374 257 315 325 q 524 189 432 189 q 603 209 568 189 q 668 261 639 229 l 799 117 q 667 17 740 50 q 510 -17 593 -17 q 342 12 421 -17 q 202 98 263 40 q 106 242 142 156 q 71 444 71 329 m 244 972 l 378 1144 l 611 1144 l 744 972 l 564 972 l 497 1053 l 492 1053 l 425 972 l 244 972 z "},"Č":{"ha":833,"x_min":71,"x_max":799,"o":"m 71 444 q 106 647 71 558 q 200 795 140 735 q 340 888 260 856 q 513 919 421 919 q 669 884 600 919 q 788 803 739 849 l 657 656 q 592 699 625 683 q 513 714 558 714 q 435 696 471 714 q 372 644 399 678 q 331 563 346 611 q 315 453 315 514 q 374 257 315 325 q 524 189 432 189 q 603 209 568 189 q 668 261 639 229 l 799 117 q 667 17 740 50 q 510 -17 593 -17 q 342 12 421 -17 q 202 98 263 40 q 106 242 142 156 q 71 444 71 329 m 744 1144 l 611 972 l 378 972 l 244 1144 l 425 1144 l 492 1064 l 497 1064 l 564 1144 l 744 1144 z "},"Ċ":{"ha":833,"x_min":71,"x_max":799,"o":"m 71 444 q 106 647 71 558 q 200 795 140 735 q 340 888 260 856 q 513 919 421 919 q 669 884 600 919 q 788 803 739 849 l 657 656 q 592 699 625 683 q 513 714 558 714 q 435 696 471 714 q 372 644 399 678 q 331 563 346 611 q 315 453 315 514 q 374 257 315 325 q 524 189 432 189 q 603 209 568 189 q 668 261 639 229 l 799 117 q 667 17 740 50 q 510 -17 593 -17 q 342 12 421 -17 q 202 98 263 40 q 106 242 142 156 q 71 444 71 329 m 494 967 q 399 1000 436 967 q 361 1086 361 1033 q 399 1172 361 1139 q 494 1206 436 1206 q 590 1172 553 1206 q 628 1086 628 1139 q 590 1000 628 1033 q 494 967 553 967 z "},"Ď":{"ha":833,"x_min":81,"x_max":775,"o":"m 81 903 l 335 903 q 513 878 432 903 q 651 799 593 853 q 742 660 710 744 q 775 456 775 575 q 743 250 775 336 q 653 108 711 164 q 518 26 596 53 q 349 0 440 0 l 81 0 l 81 903 m 322 192 q 403 203 365 192 q 469 244 442 215 q 514 325 497 274 q 531 456 531 376 q 514 585 531 535 q 469 663 497 635 q 403 701 442 690 q 322 711 365 711 l 319 711 l 319 192 l 322 192 m 663 1144 l 529 972 l 296 972 l 163 1144 l 343 1144 l 410 1064 l 415 1064 l 482 1144 l 663 1144 z "},"Ḍ":{"ha":833,"x_min":81,"x_max":775,"o":"m 81 903 l 335 903 q 513 878 432 903 q 651 799 593 853 q 742 660 710 744 q 775 456 775 575 q 743 250 775 336 q 653 108 711 164 q 518 26 596 53 q 349 0 440 0 l 81 0 l 81 903 m 322 192 q 403 203 365 192 q 469 244 442 215 q 514 325 497 274 q 531 456 531 376 q 514 585 531 535 q 469 663 497 635 q 403 701 442 690 q 322 711 365 711 l 319 711 l 319 192 l 322 192 m 404 -367 q 294 -328 338 -367 q 251 -228 251 -290 q 294 -126 251 -165 q 404 -86 338 -86 q 514 -126 471 -86 q 557 -228 557 -165 q 514 -328 557 -290 q 404 -367 471 -367 z "},"Ḏ":{"ha":833,"x_min":81,"x_max":775,"o":"m 81 903 l 335 903 q 513 878 432 903 q 651 799 593 853 q 742 660 710 744 q 775 456 775 575 q 743 250 775 336 q 653 108 711 164 q 518 26 596 53 q 349 0 440 0 l 81 0 l 81 903 m 322 192 q 403 203 365 192 q 469 244 442 215 q 514 325 497 274 q 531 456 531 376 q 514 585 531 535 q 469 663 497 635 q 403 701 442 690 q 322 711 365 711 l 319 711 l 319 192 l 322 192 m 604 -272 l 204 -272 l 204 -122 l 604 -122 l 604 -272 z "},"Đ":{"ha":833,"x_min":-6,"x_max":783,"o":"m 89 408 l -6 408 l -6 511 l 89 519 l 89 903 l 344 903 q 521 878 440 903 q 660 799 601 853 q 751 660 718 744 q 783 456 783 575 q 751 250 783 336 q 661 108 718 164 q 526 26 604 53 q 358 0 449 0 l 89 0 l 89 408 m 331 192 q 411 203 374 192 q 477 244 449 215 q 522 325 506 274 q 539 456 539 376 q 522 585 539 535 q 477 663 506 635 q 411 701 449 690 q 331 711 374 711 l 328 711 l 328 519 l 458 519 l 458 408 l 328 408 l 328 192 l 331 192 z "},"È":{"ha":833,"x_min":119,"x_max":744,"o":"m 119 903 l 731 903 l 731 703 l 358 703 l 358 561 l 675 561 l 675 361 l 358 361 l 358 200 l 744 200 l 744 0 l 119 0 l 119 903 m 200 1144 l 450 1144 l 558 972 l 369 972 l 200 1144 z "},"É":{"ha":833,"x_min":119,"x_max":744,"o":"m 119 903 l 731 903 l 731 703 l 358 703 l 358 561 l 675 561 l 675 361 l 358 361 l 358 200 l 744 200 l 744 0 l 119 0 l 119 903 m 514 972 l 325 972 l 433 1144 l 683 1144 l 514 972 z "},"Ê":{"ha":833,"x_min":119,"x_max":744,"o":"m 119 903 l 731 903 l 731 703 l 358 703 l 358 561 l 675 561 l 675 361 l 358 361 l 358 200 l 744 200 l 744 0 l 119 0 l 119 903 m 192 972 l 325 1144 l 558 1144 l 692 972 l 511 972 l 444 1053 l 439 1053 l 372 972 l 192 972 z "},"Ě":{"ha":833,"x_min":119,"x_max":744,"o":"m 119 903 l 731 903 l 731 703 l 358 703 l 358 561 l 675 561 l 675 361 l 358 361 l 358 200 l 744 200 l 744 0 l 119 0 l 119 903 m 692 1144 l 558 972 l 325 972 l 192 1144 l 372 1144 l 439 1064 l 444 1064 l 511 1144 l 692 1144 z "},"Ë":{"ha":833,"x_min":119,"x_max":744,"o":"m 119 903 l 731 903 l 731 703 l 358 703 l 358 561 l 675 561 l 675 361 l 358 361 l 358 200 l 744 200 l 744 0 l 119 0 l 119 903 m 297 964 q 219 995 249 964 q 189 1072 189 1026 q 219 1149 189 1118 q 297 1181 249 1181 q 376 1149 346 1181 q 406 1072 406 1118 q 376 995 406 1026 q 297 964 346 964 m 586 964 q 508 995 538 964 q 478 1072 478 1026 q 508 1149 478 1118 q 586 1181 538 1181 q 665 1149 635 1181 q 694 1072 694 1118 q 665 995 694 1026 q 586 964 635 964 z "},"Ē":{"ha":833,"x_min":119,"x_max":744,"o":"m 119 903 l 731 903 l 731 703 l 358 703 l 358 561 l 675 561 l 675 361 l 358 361 l 358 200 l 744 200 l 744 0 l 119 0 l 119 903 m 236 1144 l 647 1144 l 647 994 l 236 994 l 236 1144 z "},"Ĕ":{"ha":833,"x_min":119,"x_max":744,"o":"m 119 903 l 731 903 l 731 703 l 358 703 l 358 561 l 675 561 l 675 361 l 358 361 l 358 200 l 744 200 l 744 0 l 119 0 l 119 903 m 442 972 q 300 1017 347 972 q 244 1144 253 1063 l 372 1144 q 394 1104 379 1119 q 442 1089 410 1089 q 489 1104 474 1089 q 511 1144 504 1119 l 639 1144 q 583 1017 631 1063 q 442 972 536 972 z "},"Ė":{"ha":833,"x_min":119,"x_max":744,"o":"m 119 903 l 731 903 l 731 703 l 358 703 l 358 561 l 675 561 l 675 361 l 358 361 l 358 200 l 744 200 l 744 0 l 119 0 l 119 903 m 442 967 q 346 1000 383 967 q 308 1086 308 1033 q 346 1172 308 1139 q 442 1206 383 1206 q 538 1172 500 1206 q 575 1086 575 1139 q 538 1000 575 1033 q 442 967 500 967 z "},"Ẹ":{"ha":833,"x_min":119,"x_max":744,"o":"m 119 903 l 731 903 l 731 703 l 358 703 l 358 561 l 675 561 l 675 361 l 358 361 l 358 200 l 744 200 l 744 0 l 119 0 l 119 903 m 439 -367 q 329 -328 372 -367 q 286 -228 286 -290 q 329 -126 286 -165 q 439 -86 372 -86 q 549 -126 506 -86 q 592 -228 592 -165 q 549 -328 592 -290 q 439 -367 506 -367 z "},"Ẻ":{"ha":833,"x_min":119,"x_max":744,"o":"m 119 903 l 731 903 l 731 703 l 358 703 l 358 561 l 675 561 l 675 361 l 358 361 l 358 200 l 744 200 l 744 0 l 119 0 l 119 903 m 372 1047 q 412 1057 396 1050 q 428 1081 428 1064 q 404 1108 428 1097 q 319 1122 381 1118 l 347 1239 q 467 1226 419 1236 q 544 1198 515 1215 q 585 1157 574 1181 q 597 1106 597 1133 q 581 1041 597 1068 q 535 995 564 1014 q 469 967 507 976 q 389 956 432 957 l 372 1047 z "},"Ẽ":{"ha":833,"x_min":119,"x_max":744,"o":"m 119 903 l 731 903 l 731 703 l 358 703 l 358 561 l 675 561 l 675 361 l 358 361 l 358 200 l 744 200 l 744 0 l 119 0 l 119 903 m 531 972 q 478 981 503 972 q 433 1001 454 990 q 395 1022 413 1013 q 364 1031 378 1031 q 333 1018 347 1031 q 311 972 319 1006 l 192 972 q 250 1126 204 1078 q 353 1175 296 1175 q 405 1166 381 1175 q 450 1146 429 1157 q 488 1126 471 1135 q 519 1117 504 1117 q 550 1129 536 1117 q 572 1175 564 1142 l 692 1175 q 669 1084 685 1122 q 633 1021 654 1046 q 585 984 611 996 q 531 972 558 972 z "},"Ế":{"ha":833,"x_min":119,"x_max":885,"o":"m 119 903 l 731 903 l 731 703 l 358 703 l 358 561 l 675 561 l 675 361 l 358 361 l 358 200 l 744 200 l 744 0 l 119 0 l 119 903 m 704 1242 l 885 1242 l 743 1069 l 610 1069 l 704 1242 m 339 1136 l 544 1136 l 678 972 l 511 972 l 444 1044 l 439 1044 l 372 972 l 206 972 l 339 1136 z "},"Ề":{"ha":833,"x_min":119,"x_max":801,"o":"m 119 903 l 731 903 l 731 703 l 358 703 l 358 561 l 675 561 l 675 361 l 358 361 l 358 200 l 744 200 l 744 0 l 119 0 l 119 903 m 801 1069 l 668 1069 l 526 1242 l 707 1242 l 801 1069 m 339 1136 l 544 1136 l 678 972 l 511 972 l 444 1044 l 439 1044 l 372 972 l 206 972 l 339 1136 z "},"Ể":{"ha":833,"x_min":119,"x_max":817,"o":"m 119 903 l 731 903 l 731 703 l 358 703 l 358 561 l 675 561 l 675 361 l 358 361 l 358 200 l 744 200 l 744 0 l 119 0 l 119 903 m 628 1111 q 656 1121 644 1114 q 667 1144 667 1128 q 649 1172 667 1161 q 578 1186 631 1182 l 600 1281 q 706 1268 664 1278 q 772 1243 747 1258 q 807 1207 797 1228 q 817 1164 817 1186 q 767 1071 817 1099 q 644 1039 718 1043 l 628 1111 m 339 1136 l 544 1136 l 678 972 l 511 972 l 444 1044 l 439 1044 l 372 972 l 206 972 l 339 1136 z "},"Ễ":{"ha":833,"x_min":119,"x_max":744,"o":"m 119 903 l 731 903 l 731 703 l 358 703 l 358 561 l 675 561 l 675 361 l 358 361 l 358 200 l 744 200 l 744 0 l 119 0 l 119 903 m 339 1136 l 544 1136 l 678 972 l 511 972 l 444 1044 l 439 1044 l 372 972 l 206 972 l 339 1136 m 225 1186 q 274 1317 236 1278 q 358 1356 313 1356 q 408 1348 386 1356 q 449 1331 431 1340 q 483 1313 468 1321 q 511 1306 497 1306 q 540 1317 528 1306 q 558 1356 551 1328 l 658 1356 q 609 1225 647 1264 q 525 1186 571 1186 q 475 1194 497 1186 q 434 1211 453 1201 q 401 1228 415 1221 q 372 1236 386 1236 q 344 1225 356 1236 q 325 1186 332 1214 l 225 1186 z "},"Ệ":{"ha":833,"x_min":119,"x_max":744,"o":"m 119 903 l 731 903 l 731 703 l 358 703 l 358 561 l 675 561 l 675 361 l 358 361 l 358 200 l 744 200 l 744 0 l 119 0 l 119 903 m 192 972 l 325 1144 l 558 1144 l 692 972 l 511 972 l 444 1053 l 439 1053 l 372 972 l 192 972 m 439 -367 q 329 -328 372 -367 q 286 -228 286 -290 q 329 -126 286 -165 q 439 -86 372 -86 q 549 -126 506 -86 q 592 -228 592 -165 q 549 -328 592 -290 q 439 -367 506 -367 z "},"Ę":{"ha":833,"x_min":119,"x_max":775,"o":"m 119 903 l 731 903 l 731 703 l 358 703 l 358 561 l 675 561 l 675 361 l 358 361 l 358 200 l 744 200 l 744 0 l 736 0 q 691 -10 713 0 q 653 -37 669 -21 q 628 -75 638 -54 q 619 -117 619 -96 q 637 -153 619 -142 q 675 -164 654 -164 q 700 -158 688 -164 q 722 -144 713 -151 l 775 -264 q 701 -302 746 -287 q 617 -317 657 -317 q 497 -281 546 -317 q 447 -181 447 -246 q 458 -119 447 -147 q 486 -67 469 -90 q 522 -28 503 -44 q 558 0 542 -11 l 119 0 l 119 903 z "},"Ĝ":{"ha":833,"x_min":56,"x_max":767,"o":"m 56 444 q 89 647 56 558 q 180 797 122 736 q 315 888 238 857 q 481 919 393 919 q 639 884 572 919 q 750 803 706 849 l 619 656 q 560 699 592 683 q 481 714 529 714 q 410 696 443 714 q 353 644 378 678 q 315 563 329 611 q 301 453 301 514 q 349 257 301 325 q 493 189 396 189 q 526 193 510 189 q 554 206 543 197 l 554 331 l 442 331 l 442 525 l 767 525 l 767 94 q 712 53 743 74 q 643 18 681 33 q 564 -7 606 3 q 479 -17 522 -17 q 315 12 392 -17 q 180 98 238 40 q 89 242 122 156 q 56 444 56 329 m 208 972 l 342 1144 l 575 1144 l 708 972 l 528 972 l 461 1053 l 456 1053 l 389 972 l 208 972 z "},"Ğ":{"ha":833,"x_min":56,"x_max":767,"o":"m 56 444 q 89 647 56 558 q 180 797 122 736 q 315 888 238 857 q 481 919 393 919 q 639 884 572 919 q 750 803 706 849 l 619 656 q 560 699 592 683 q 481 714 529 714 q 410 696 443 714 q 353 644 378 678 q 315 563 329 611 q 301 453 301 514 q 349 257 301 325 q 493 189 396 189 q 526 193 510 189 q 554 206 543 197 l 554 331 l 442 331 l 442 525 l 767 525 l 767 94 q 712 53 743 74 q 643 18 681 33 q 564 -7 606 3 q 479 -17 522 -17 q 315 12 392 -17 q 180 98 238 40 q 89 242 122 156 q 56 444 56 329 m 458 972 q 317 1017 364 972 q 261 1144 269 1063 l 389 1144 q 411 1104 396 1119 q 458 1089 426 1089 q 506 1104 490 1089 q 528 1144 521 1119 l 656 1144 q 600 1017 647 1063 q 458 972 553 972 z "},"Ġ":{"ha":833,"x_min":56,"x_max":767,"o":"m 56 444 q 89 647 56 558 q 180 797 122 736 q 315 888 238 857 q 481 919 393 919 q 639 884 572 919 q 750 803 706 849 l 619 656 q 560 699 592 683 q 481 714 529 714 q 410 696 443 714 q 353 644 378 678 q 315 563 329 611 q 301 453 301 514 q 349 257 301 325 q 493 189 396 189 q 526 193 510 189 q 554 206 543 197 l 554 331 l 442 331 l 442 525 l 767 525 l 767 94 q 712 53 743 74 q 643 18 681 33 q 564 -7 606 3 q 479 -17 522 -17 q 315 12 392 -17 q 180 98 238 40 q 89 242 122 156 q 56 444 56 329 m 458 967 q 363 1000 400 967 q 325 1086 325 1033 q 363 1172 325 1139 q 458 1206 400 1206 q 554 1172 517 1206 q 592 1086 592 1139 q 554 1000 592 1033 q 458 967 517 967 z "},"Ģ":{"ha":833,"x_min":56,"x_max":767,"o":"m 56 444 q 89 647 56 558 q 180 797 122 736 q 315 888 238 857 q 481 919 393 919 q 639 884 572 919 q 750 803 706 849 l 619 656 q 560 699 592 683 q 481 714 529 714 q 410 696 443 714 q 353 644 378 678 q 315 563 329 611 q 301 453 301 514 q 349 257 301 325 q 493 189 396 189 q 526 193 510 189 q 554 206 543 197 l 554 331 l 442 331 l 442 525 l 767 525 l 767 94 q 712 53 743 74 q 643 18 681 33 q 564 -7 606 3 q 479 -17 522 -17 q 315 12 392 -17 q 180 98 238 40 q 89 242 122 156 q 56 444 56 329 m 411 -56 q 552 -92 513 -64 q 592 -175 592 -121 q 570 -240 592 -212 q 513 -285 549 -267 q 428 -314 476 -304 q 328 -325 381 -324 l 311 -233 q 391 -219 360 -229 q 422 -186 422 -210 q 410 -158 422 -169 q 367 -139 399 -147 l 411 -56 l 411 -56 z "},"Ǧ":{"ha":833,"x_min":56,"x_max":767,"o":"m 56 444 q 89 647 56 558 q 180 797 122 736 q 315 888 238 857 q 481 919 393 919 q 639 884 572 919 q 750 803 706 849 l 619 656 q 560 699 592 683 q 481 714 529 714 q 410 696 443 714 q 353 644 378 678 q 315 563 329 611 q 301 453 301 514 q 349 257 301 325 q 493 189 396 189 q 526 193 510 189 q 554 206 543 197 l 554 331 l 442 331 l 442 525 l 767 525 l 767 94 q 712 53 743 74 q 643 18 681 33 q 564 -7 606 3 q 479 -17 522 -17 q 315 12 392 -17 q 180 98 238 40 q 89 242 122 156 q 56 444 56 329 m 708 1144 l 575 972 l 342 972 l 208 1144 l 389 1144 l 456 1064 l 461 1064 l 528 1144 l 708 1144 z "},"Ḡ":{"ha":833,"x_min":56,"x_max":767,"o":"m 56 444 q 89 647 56 558 q 180 797 122 736 q 315 888 238 857 q 481 919 393 919 q 639 884 572 919 q 750 803 706 849 l 619 656 q 560 699 592 683 q 481 714 529 714 q 410 696 443 714 q 353 644 378 678 q 315 563 329 611 q 301 453 301 514 q 349 257 301 325 q 493 189 396 189 q 526 193 510 189 q 554 206 543 197 l 554 331 l 442 331 l 442 525 l 767 525 l 767 94 q 712 53 743 74 q 643 18 681 33 q 564 -7 606 3 q 479 -17 522 -17 q 315 12 392 -17 q 180 98 238 40 q 89 242 122 156 q 56 444 56 329 m 253 1144 l 664 1144 l 664 994 l 253 994 l 253 1144 z "},"Ĥ":{"ha":833,"x_min":81,"x_max":753,"o":"m 81 903 l 319 903 l 319 567 l 514 567 l 514 903 l 753 903 l 753 0 l 514 0 l 514 358 l 319 358 l 319 0 l 81 0 l 81 903 m 167 972 l 300 1144 l 533 1144 l 667 972 l 486 972 l 419 1053 l 414 1053 l 347 972 l 167 972 z "},"Ḥ":{"ha":833,"x_min":81,"x_max":753,"o":"m 81 903 l 319 903 l 319 567 l 514 567 l 514 903 l 753 903 l 753 0 l 514 0 l 514 358 l 319 358 l 319 0 l 81 0 l 81 903 m 417 -367 q 307 -328 350 -367 q 264 -228 264 -290 q 307 -126 264 -165 q 417 -86 350 -86 q 526 -126 483 -86 q 569 -228 569 -165 q 526 -328 569 -290 q 417 -367 483 -367 z "},"Ḫ":{"ha":833,"x_min":81,"x_max":753,"o":"m 81 903 l 319 903 l 319 567 l 514 567 l 514 903 l 753 903 l 753 0 l 514 0 l 514 358 l 319 358 l 319 0 l 81 0 l 81 903 m 417 -294 q 330 -278 367 -294 q 268 -235 293 -262 q 231 -172 243 -208 q 217 -94 218 -135 l 347 -94 q 368 -147 351 -126 q 417 -167 385 -167 q 465 -147 449 -167 q 486 -94 482 -126 l 617 -94 q 603 -172 615 -135 q 565 -235 590 -208 q 503 -278 540 -262 q 417 -294 467 -294 z "},"Ħ":{"ha":833,"x_min":0,"x_max":833,"o":"m 514 672 l 319 672 l 319 567 l 514 567 l 514 672 m 833 672 l 753 672 l 753 0 l 514 0 l 514 358 l 319 358 l 319 0 l 81 0 l 81 672 l 0 672 l 0 775 l 81 782 l 81 903 l 319 903 l 319 783 l 514 783 l 514 903 l 753 903 l 753 783 l 833 783 l 833 672 z "},"Ì":{"ha":833,"x_min":92,"x_max":742,"o":"m 92 200 l 297 200 l 297 703 l 92 703 l 92 903 l 742 903 l 742 703 l 536 703 l 536 200 l 742 200 l 742 0 l 92 0 l 92 200 m 175 1144 l 425 1144 l 533 972 l 344 972 l 175 1144 z "},"Í":{"ha":833,"x_min":92,"x_max":742,"o":"m 92 200 l 297 200 l 297 703 l 92 703 l 92 903 l 742 903 l 742 703 l 536 703 l 536 200 l 742 200 l 742 0 l 92 0 l 92 200 m 489 972 l 300 972 l 408 1144 l 658 1144 l 489 972 z "},"Î":{"ha":833,"x_min":92,"x_max":742,"o":"m 92 200 l 297 200 l 297 703 l 92 703 l 92 903 l 742 903 l 742 703 l 536 703 l 536 200 l 742 200 l 742 0 l 92 0 l 92 200 m 167 972 l 300 1144 l 533 1144 l 667 972 l 486 972 l 419 1053 l 414 1053 l 347 972 l 167 972 z "},"Ĩ":{"ha":833,"x_min":92,"x_max":742,"o":"m 92 200 l 297 200 l 297 703 l 92 703 l 92 903 l 742 903 l 742 703 l 536 703 l 536 200 l 742 200 l 742 0 l 92 0 l 92 200 m 506 972 q 453 981 478 972 q 408 1001 429 990 q 370 1022 388 1013 q 339 1031 353 1031 q 308 1018 322 1031 q 286 972 294 1006 l 167 972 q 225 1126 179 1078 q 328 1175 271 1175 q 380 1166 356 1175 q 425 1146 404 1157 q 463 1126 446 1135 q 494 1117 479 1117 q 525 1129 511 1117 q 547 1175 539 1142 l 667 1175 q 644 1084 660 1122 q 608 1021 629 1046 q 560 984 586 996 q 506 972 533 972 z "},"Ï":{"ha":833,"x_min":92,"x_max":742,"o":"m 92 200 l 297 200 l 297 703 l 92 703 l 92 903 l 742 903 l 742 703 l 536 703 l 536 200 l 742 200 l 742 0 l 92 0 l 92 200 m 272 964 q 194 995 224 964 q 164 1072 164 1026 q 194 1149 164 1118 q 272 1181 224 1181 q 351 1149 321 1181 q 381 1072 381 1118 q 351 995 381 1026 q 272 964 321 964 m 561 964 q 483 995 513 964 q 453 1072 453 1026 q 483 1149 453 1118 q 561 1181 513 1181 q 640 1149 610 1181 q 669 1072 669 1118 q 640 995 669 1026 q 561 964 610 964 z "},"Ī":{"ha":833,"x_min":92,"x_max":742,"o":"m 92 200 l 297 200 l 297 703 l 92 703 l 92 903 l 742 903 l 742 703 l 536 703 l 536 200 l 742 200 l 742 0 l 92 0 l 92 200 m 211 1144 l 622 1144 l 622 994 l 211 994 l 211 1144 z "},"Ĭ":{"ha":833,"x_min":92,"x_max":742,"o":"m 92 200 l 297 200 l 297 703 l 92 703 l 92 903 l 742 903 l 742 703 l 536 703 l 536 200 l 742 200 l 742 0 l 92 0 l 92 200 m 417 972 q 275 1017 322 972 q 219 1144 228 1063 l 347 1144 q 369 1104 354 1119 q 417 1089 385 1089 q 464 1104 449 1089 q 486 1144 479 1119 l 614 1144 q 558 1017 606 1063 q 417 972 511 972 z "},"İ":{"ha":833,"x_min":92,"x_max":742,"o":"m 92 200 l 297 200 l 297 703 l 92 703 l 92 903 l 742 903 l 742 703 l 536 703 l 536 200 l 742 200 l 742 0 l 92 0 l 92 200 m 417 967 q 321 1000 358 967 q 283 1086 283 1033 q 321 1172 283 1139 q 417 1206 358 1206 q 513 1172 475 1206 q 550 1086 550 1139 q 513 1000 550 1033 q 417 967 475 967 z "},"Ǐ":{"ha":833,"x_min":92,"x_max":742,"o":"m 92 200 l 297 200 l 297 703 l 92 703 l 92 903 l 742 903 l 742 703 l 536 703 l 536 200 l 742 200 l 742 0 l 92 0 l 92 200 m 667 1144 l 533 972 l 300 972 l 167 1144 l 347 1144 l 414 1064 l 419 1064 l 486 1144 l 667 1144 z "},"Ỉ":{"ha":833,"x_min":92,"x_max":742,"o":"m 92 200 l 297 200 l 297 703 l 92 703 l 92 903 l 742 903 l 742 703 l 536 703 l 536 200 l 742 200 l 742 0 l 92 0 l 92 200 m 347 1047 q 387 1057 371 1050 q 403 1081 403 1064 q 379 1108 403 1097 q 294 1122 356 1118 l 322 1239 q 442 1226 394 1236 q 519 1198 490 1215 q 560 1157 549 1181 q 572 1106 572 1133 q 556 1041 572 1068 q 510 995 539 1014 q 444 967 482 976 q 364 956 407 957 l 347 1047 z "},"Ị":{"ha":833,"x_min":92,"x_max":742,"o":"m 92 200 l 297 200 l 297 703 l 92 703 l 92 903 l 742 903 l 742 703 l 536 703 l 536 200 l 742 200 l 742 0 l 92 0 l 92 200 m 417 -367 q 307 -328 350 -367 q 264 -228 264 -290 q 307 -126 264 -165 q 417 -86 350 -86 q 526 -126 483 -86 q 569 -228 569 -165 q 526 -328 569 -290 q 417 -367 483 -367 z "},"Į":{"ha":833,"x_min":92,"x_max":742,"o":"m 92 200 l 297 200 l 297 703 l 92 703 l 92 903 l 742 903 l 742 703 l 536 703 l 536 200 l 742 200 l 742 0 l 536 0 q 451 -51 475 -19 q 428 -117 428 -83 q 445 -153 428 -142 q 482 -164 463 -164 q 509 -158 496 -164 q 531 -144 522 -151 l 583 -264 q 510 -302 554 -287 q 425 -317 465 -317 q 305 -281 354 -317 q 256 -181 256 -246 q 267 -117 256 -146 q 294 -66 278 -89 q 329 -26 311 -43 q 363 0 347 -10 l 92 0 l 92 200 z "},"Ĵ":{"ha":833,"x_min":71,"x_max":729,"o":"m 206 281 q 286 213 244 236 q 369 189 328 189 q 421 195 399 189 q 459 218 443 201 q 483 263 475 235 q 490 333 490 290 l 490 703 l 147 703 l 147 903 l 729 903 l 729 314 q 711 186 729 246 q 651 81 693 126 q 542 10 610 36 q 378 -17 475 -17 q 299 -9 340 -17 q 218 16 258 -1 q 140 62 178 33 q 71 132 103 90 l 206 281 m 197 972 l 331 1144 l 564 1144 l 697 972 l 517 972 l 450 1053 l 444 1053 l 378 972 l 197 972 z "},"Ķ":{"ha":833,"x_min":79,"x_max":832,"o":"m 79 903 l 319 903 l 319 567 l 325 567 l 547 903 l 810 903 l 544 536 l 832 0 l 569 0 l 406 347 l 319 225 l 319 0 l 79 0 l 79 903 m 389 -56 q 530 -92 490 -64 q 569 -175 569 -121 q 548 -240 569 -212 q 490 -285 526 -267 q 406 -314 454 -304 q 306 -325 358 -324 l 289 -233 q 369 -219 338 -229 q 400 -186 400 -210 q 388 -158 400 -169 q 344 -139 376 -147 l 389 -56 l 389 -56 z "},"Ĺ":{"ha":833,"x_min":133,"x_max":757,"o":"m 133 903 l 372 903 l 372 200 l 757 200 l 757 0 l 133 0 l 133 903 m 347 972 l 158 972 l 267 1144 l 517 1144 l 347 972 z "},"Ľ":{"ha":833,"x_min":133,"x_max":757,"o":"m 133 903 l 372 903 l 372 200 l 757 200 l 757 0 l 133 0 l 133 903 m 535 707 l 526 1021 l 676 1021 l 674 918 l 635 707 l 535 707 z "},"Ļ":{"ha":833,"x_min":133,"x_max":757,"o":"m 133 903 l 372 903 l 372 200 l 757 200 l 757 0 l 133 0 l 133 903 m 400 -56 q 541 -92 501 -64 q 581 -175 581 -121 q 559 -240 581 -212 q 501 -285 538 -267 q 417 -314 465 -304 q 317 -325 369 -324 l 300 -233 q 380 -219 349 -229 q 411 -186 411 -210 q 399 -158 411 -169 q 356 -139 388 -147 l 400 -56 l 400 -56 z "},"Ŀ":{"ha":833,"x_min":133,"x_max":794,"o":"m 133 903 l 372 903 l 372 200 l 757 200 l 757 0 l 133 0 l 133 903 m 642 357 q 532 395 575 357 q 489 496 489 433 q 532 598 489 558 q 642 638 575 638 q 751 598 708 638 q 794 496 794 558 q 751 395 794 433 q 642 357 708 357 z "},"Ḷ":{"ha":833,"x_min":133,"x_max":757,"o":"m 133 903 l 372 903 l 372 200 l 757 200 l 757 0 l 133 0 l 133 903 m 453 -367 q 343 -328 386 -367 q 300 -228 300 -290 q 343 -126 300 -165 q 453 -86 386 -86 q 563 -126 519 -86 q 606 -228 606 -165 q 563 -328 606 -290 q 453 -367 519 -367 z "},"Ḹ":{"ha":833,"x_min":69,"x_max":757,"o":"m 133 903 l 372 903 l 372 200 l 757 200 l 757 0 l 133 0 l 133 903 m 69 1144 l 481 1144 l 481 994 l 69 994 l 69 1144 m 453 -367 q 343 -328 386 -367 q 300 -228 300 -290 q 343 -126 300 -165 q 453 -86 386 -86 q 563 -126 519 -86 q 606 -228 606 -165 q 563 -328 606 -290 q 453 -367 519 -367 z "},"Ḻ":{"ha":833,"x_min":133,"x_max":757,"o":"m 133 903 l 372 903 l 372 200 l 757 200 l 757 0 l 133 0 l 133 903 m 653 -272 l 253 -272 l 253 -122 l 653 -122 l 653 -272 z "},"Ł":{"ha":833,"x_min":35,"x_max":757,"o":"m 757 200 l 757 0 l 133 0 l 133 260 l 35 203 l 35 386 l 133 443 l 133 903 l 372 903 l 372 560 l 649 714 l 649 531 l 372 376 l 372 200 l 757 200 z "},"Ṃ":{"ha":833,"x_min":81,"x_max":753,"o":"m 81 903 l 315 903 l 392 608 l 417 492 l 421 492 l 446 608 l 518 903 l 753 903 l 753 0 l 561 0 l 561 213 q 565 315 561 253 q 572 442 568 376 q 582 569 576 508 q 592 671 588 631 l 588 671 l 513 403 l 465 240 l 363 240 l 315 403 l 244 671 l 239 671 q 249 569 243 631 q 258 442 254 508 q 266 315 263 376 q 269 213 269 253 l 269 0 l 81 0 l 81 903 m 417 -367 q 307 -328 350 -367 q 264 -228 264 -290 q 307 -126 264 -165 q 417 -86 350 -86 q 526 -126 483 -86 q 569 -228 569 -165 q 526 -328 569 -290 q 417 -367 483 -367 z "},"Ń":{"ha":833,"x_min":83,"x_max":750,"o":"m 83 903 l 325 903 l 476 500 l 550 297 l 556 297 q 546 376 551 333 q 535 465 540 419 q 526 555 529 510 q 522 642 522 600 l 522 903 l 750 903 l 750 0 l 508 0 l 357 404 l 283 606 l 278 606 q 299 436 286 528 q 311 261 311 344 l 311 0 l 83 0 l 83 903 m 497 972 l 308 972 l 417 1144 l 667 1144 l 497 972 z "},"Ň":{"ha":833,"x_min":83,"x_max":750,"o":"m 83 903 l 325 903 l 476 500 l 550 297 l 556 297 q 546 376 551 333 q 535 465 540 419 q 526 555 529 510 q 522 642 522 600 l 522 903 l 750 903 l 750 0 l 508 0 l 357 404 l 283 606 l 278 606 q 299 436 286 528 q 311 261 311 344 l 311 0 l 83 0 l 83 903 m 675 1144 l 542 972 l 308 972 l 175 1144 l 356 1144 l 422 1064 l 428 1064 l 494 1144 l 675 1144 z "},"Ñ":{"ha":833,"x_min":83,"x_max":750,"o":"m 83 903 l 325 903 l 476 500 l 550 297 l 556 297 q 546 376 551 333 q 535 465 540 419 q 526 555 529 510 q 522 642 522 600 l 522 903 l 750 903 l 750 0 l 508 0 l 357 404 l 283 606 l 278 606 q 299 436 286 528 q 311 261 311 344 l 311 0 l 83 0 l 83 903 m 514 972 q 462 981 486 972 q 417 1001 438 990 q 378 1022 396 1013 q 347 1031 361 1031 q 317 1018 331 1031 q 294 972 303 1006 l 175 972 q 233 1126 188 1078 q 336 1175 279 1175 q 388 1166 364 1175 q 433 1146 413 1157 q 471 1126 454 1135 q 503 1117 488 1117 q 533 1129 519 1117 q 556 1175 547 1142 l 675 1175 q 653 1084 668 1122 q 616 1021 638 1046 q 568 984 594 996 q 514 972 542 972 z "},"Ņ":{"ha":833,"x_min":83,"x_max":750,"o":"m 83 903 l 325 903 l 476 500 l 550 297 l 556 297 q 546 376 551 333 q 535 465 540 419 q 526 555 529 510 q 522 642 522 600 l 522 903 l 750 903 l 750 0 l 508 0 l 357 404 l 283 606 l 278 606 q 299 436 286 528 q 311 261 311 344 l 311 0 l 83 0 l 83 903 m 364 -56 q 505 -92 465 -64 q 544 -175 544 -121 q 523 -240 544 -212 q 465 -285 501 -267 q 381 -314 429 -304 q 281 -325 333 -324 l 264 -233 q 344 -219 313 -229 q 375 -186 375 -210 q 363 -158 375 -169 q 319 -139 351 -147 l 364 -56 l 364 -56 z "},"Ṅ":{"ha":833,"x_min":83,"x_max":750,"o":"m 83 903 l 325 903 l 476 500 l 550 297 l 556 297 q 546 376 551 333 q 535 465 540 419 q 526 555 529 510 q 522 642 522 600 l 522 903 l 750 903 l 750 0 l 508 0 l 357 404 l 283 606 l 278 606 q 299 436 286 528 q 311 261 311 344 l 311 0 l 83 0 l 83 903 m 425 967 q 329 1000 367 967 q 292 1086 292 1033 q 329 1172 292 1139 q 425 1206 367 1206 q 521 1172 483 1206 q 558 1086 558 1139 q 521 1000 558 1033 q 425 967 483 967 z "},"Ṇ":{"ha":833,"x_min":83,"x_max":750,"o":"m 83 903 l 325 903 l 476 500 l 550 297 l 556 297 q 546 376 551 333 q 535 465 540 419 q 526 555 529 510 q 522 642 522 600 l 522 903 l 750 903 l 750 0 l 508 0 l 357 404 l 283 606 l 278 606 q 299 436 286 528 q 311 261 311 344 l 311 0 l 83 0 l 83 903 m 417 -367 q 307 -328 350 -367 q 264 -228 264 -290 q 307 -126 264 -165 q 417 -86 350 -86 q 526 -126 483 -86 q 569 -228 569 -165 q 526 -328 569 -290 q 417 -367 483 -367 z "},"Ṉ":{"ha":833,"x_min":83,"x_max":750,"o":"m 83 903 l 325 903 l 476 500 l 550 297 l 556 297 q 546 376 551 333 q 535 465 540 419 q 526 555 529 510 q 522 642 522 600 l 522 903 l 750 903 l 750 0 l 508 0 l 357 404 l 283 606 l 278 606 q 299 436 286 528 q 311 261 311 344 l 311 0 l 83 0 l 83 903 m 617 -272 l 217 -272 l 217 -122 l 617 -122 l 617 -272 z "},"Ò":{"ha":833,"x_min":47,"x_max":786,"o":"m 417 -17 q 267 15 335 -17 q 150 108 199 47 q 74 256 101 168 q 47 456 47 344 q 74 653 47 567 q 150 799 101 740 q 267 889 199 858 q 417 919 335 919 q 567 889 499 919 q 683 799 635 858 q 759 653 732 739 q 786 456 786 567 q 759 256 786 344 q 683 108 732 168 q 567 15 635 47 q 417 -17 499 -17 m 417 189 q 508 260 475 189 q 542 456 542 332 q 508 647 542 579 q 417 714 475 714 q 325 647 358 714 q 292 456 292 579 q 325 260 292 332 q 417 189 358 189 m 175 1144 l 425 1144 l 533 972 l 344 972 l 175 1144 z "},"Ó":{"ha":833,"x_min":47,"x_max":786,"o":"m 417 -17 q 267 15 335 -17 q 150 108 199 47 q 74 256 101 168 q 47 456 47 344 q 74 653 47 567 q 150 799 101 740 q 267 889 199 858 q 417 919 335 919 q 567 889 499 919 q 683 799 635 858 q 759 653 732 739 q 786 456 786 567 q 759 256 786 344 q 683 108 732 168 q 567 15 635 47 q 417 -17 499 -17 m 417 189 q 508 260 475 189 q 542 456 542 332 q 508 647 542 579 q 417 714 475 714 q 325 647 358 714 q 292 456 292 579 q 325 260 292 332 q 417 189 358 189 m 489 972 l 300 972 l 408 1144 l 658 1144 l 489 972 z "},"Ô":{"ha":833,"x_min":47,"x_max":786,"o":"m 417 -17 q 267 15 335 -17 q 150 108 199 47 q 74 256 101 168 q 47 456 47 344 q 74 653 47 567 q 150 799 101 740 q 267 889 199 858 q 417 919 335 919 q 567 889 499 919 q 683 799 635 858 q 759 653 732 739 q 786 456 786 567 q 759 256 786 344 q 683 108 732 168 q 567 15 635 47 q 417 -17 499 -17 m 417 189 q 508 260 475 189 q 542 456 542 332 q 508 647 542 579 q 417 714 475 714 q 325 647 358 714 q 292 456 292 579 q 325 260 292 332 q 417 189 358 189 m 167 972 l 300 1144 l 533 1144 l 667 972 l 486 972 l 419 1053 l 414 1053 l 347 972 l 167 972 z "},"Õ":{"ha":833,"x_min":47,"x_max":786,"o":"m 417 -17 q 267 15 335 -17 q 150 108 199 47 q 74 256 101 168 q 47 456 47 344 q 74 653 47 567 q 150 799 101 740 q 267 889 199 858 q 417 919 335 919 q 567 889 499 919 q 683 799 635 858 q 759 653 732 739 q 786 456 786 567 q 759 256 786 344 q 683 108 732 168 q 567 15 635 47 q 417 -17 499 -17 m 417 189 q 508 260 475 189 q 542 456 542 332 q 508 647 542 579 q 417 714 475 714 q 325 647 358 714 q 292 456 292 579 q 325 260 292 332 q 417 189 358 189 m 506 972 q 453 981 478 972 q 408 1001 429 990 q 370 1022 388 1013 q 339 1031 353 1031 q 308 1018 322 1031 q 286 972 294 1006 l 167 972 q 225 1126 179 1078 q 328 1175 271 1175 q 380 1166 356 1175 q 425 1146 404 1157 q 463 1126 446 1135 q 494 1117 479 1117 q 525 1129 511 1117 q 547 1175 539 1142 l 667 1175 q 644 1084 660 1122 q 608 1021 629 1046 q 560 984 586 996 q 506 972 533 972 z "},"Ö":{"ha":833,"x_min":47,"x_max":786,"o":"m 417 -17 q 267 15 335 -17 q 150 108 199 47 q 74 256 101 168 q 47 456 47 344 q 74 653 47 567 q 150 799 101 740 q 267 889 199 858 q 417 919 335 919 q 567 889 499 919 q 683 799 635 858 q 759 653 732 739 q 786 456 786 567 q 759 256 786 344 q 683 108 732 168 q 567 15 635 47 q 417 -17 499 -17 m 417 189 q 508 260 475 189 q 542 456 542 332 q 508 647 542 579 q 417 714 475 714 q 325 647 358 714 q 292 456 292 579 q 325 260 292 332 q 417 189 358 189 m 272 964 q 194 995 224 964 q 164 1072 164 1026 q 194 1149 164 1118 q 272 1181 224 1181 q 351 1149 321 1181 q 381 1072 381 1118 q 351 995 381 1026 q 272 964 321 964 m 561 964 q 483 995 513 964 q 453 1072 453 1026 q 483 1149 453 1118 q 561 1181 513 1181 q 640 1149 610 1181 q 669 1072 669 1118 q 640 995 669 1026 q 561 964 610 964 z "},"Ō":{"ha":833,"x_min":47,"x_max":786,"o":"m 417 -17 q 267 15 335 -17 q 150 108 199 47 q 74 256 101 168 q 47 456 47 344 q 74 653 47 567 q 150 799 101 740 q 267 889 199 858 q 417 919 335 919 q 567 889 499 919 q 683 799 635 858 q 759 653 732 739 q 786 456 786 567 q 759 256 786 344 q 683 108 732 168 q 567 15 635 47 q 417 -17 499 -17 m 417 189 q 508 260 475 189 q 542 456 542 332 q 508 647 542 579 q 417 714 475 714 q 325 647 358 714 q 292 456 292 579 q 325 260 292 332 q 417 189 358 189 m 211 1144 l 622 1144 l 622 994 l 211 994 l 211 1144 z "},"Ŏ":{"ha":833,"x_min":47,"x_max":786,"o":"m 417 -17 q 267 15 335 -17 q 150 108 199 47 q 74 256 101 168 q 47 456 47 344 q 74 653 47 567 q 150 799 101 740 q 267 889 199 858 q 417 919 335 919 q 567 889 499 919 q 683 799 635 858 q 759 653 732 739 q 786 456 786 567 q 759 256 786 344 q 683 108 732 168 q 567 15 635 47 q 417 -17 499 -17 m 417 189 q 508 260 475 189 q 542 456 542 332 q 508 647 542 579 q 417 714 475 714 q 325 647 358 714 q 292 456 292 579 q 325 260 292 332 q 417 189 358 189 m 417 972 q 275 1017 322 972 q 219 1144 228 1063 l 347 1144 q 369 1104 354 1119 q 417 1089 385 1089 q 464 1104 449 1089 q 486 1144 479 1119 l 614 1144 q 558 1017 606 1063 q 417 972 511 972 z "},"Ő":{"ha":833,"x_min":47,"x_max":786,"o":"m 417 -17 q 267 15 335 -17 q 150 108 199 47 q 74 256 101 168 q 47 456 47 344 q 74 653 47 567 q 150 799 101 740 q 267 889 199 858 q 417 919 335 919 q 567 889 499 919 q 683 799 635 858 q 759 653 732 739 q 786 456 786 567 q 759 256 786 344 q 683 108 732 168 q 567 15 635 47 q 417 -17 499 -17 m 417 189 q 508 260 475 189 q 542 456 542 332 q 508 647 542 579 q 417 714 475 714 q 325 647 358 714 q 292 456 292 579 q 325 260 292 332 q 417 189 358 189 m 211 972 l 297 1144 l 497 1144 l 369 972 l 211 972 m 558 1144 l 758 1144 l 631 972 l 472 972 l 558 1144 z "},"Ǒ":{"ha":833,"x_min":47,"x_max":786,"o":"m 417 -17 q 267 15 335 -17 q 150 108 199 47 q 74 256 101 168 q 47 456 47 344 q 74 653 47 567 q 150 799 101 740 q 267 889 199 858 q 417 919 335 919 q 567 889 499 919 q 683 799 635 858 q 759 653 732 739 q 786 456 786 567 q 759 256 786 344 q 683 108 732 168 q 567 15 635 47 q 417 -17 499 -17 m 417 189 q 508 260 475 189 q 542 456 542 332 q 508 647 542 579 q 417 714 475 714 q 325 647 358 714 q 292 456 292 579 q 325 260 292 332 q 417 189 358 189 m 667 1144 l 533 972 l 300 972 l 167 1144 l 347 1144 l 414 1064 l 419 1064 l 486 1144 l 667 1144 z "},"Ọ":{"ha":833,"x_min":47,"x_max":786,"o":"m 417 -17 q 267 15 335 -17 q 150 108 199 47 q 74 256 101 168 q 47 456 47 344 q 74 653 47 567 q 150 799 101 740 q 267 889 199 858 q 417 919 335 919 q 567 889 499 919 q 683 799 635 858 q 759 653 732 739 q 786 456 786 567 q 759 256 786 344 q 683 108 732 168 q 567 15 635 47 q 417 -17 499 -17 m 417 189 q 508 260 475 189 q 542 456 542 332 q 508 647 542 579 q 417 714 475 714 q 325 647 358 714 q 292 456 292 579 q 325 260 292 332 q 417 189 358 189 m 417 -367 q 307 -328 350 -367 q 264 -228 264 -290 q 307 -126 264 -165 q 417 -86 350 -86 q 526 -126 483 -86 q 569 -228 569 -165 q 526 -328 569 -290 q 417 -367 483 -367 z "},"Ỏ":{"ha":833,"x_min":47,"x_max":786,"o":"m 417 -17 q 267 15 335 -17 q 150 108 199 47 q 74 256 101 168 q 47 456 47 344 q 74 653 47 567 q 150 799 101 740 q 267 889 199 858 q 417 919 335 919 q 567 889 499 919 q 683 799 635 858 q 759 653 732 739 q 786 456 786 567 q 759 256 786 344 q 683 108 732 168 q 567 15 635 47 q 417 -17 499 -17 m 417 189 q 508 260 475 189 q 542 456 542 332 q 508 647 542 579 q 417 714 475 714 q 325 647 358 714 q 292 456 292 579 q 325 260 292 332 q 417 189 358 189 m 347 1047 q 387 1057 371 1050 q 403 1081 403 1064 q 379 1108 403 1097 q 294 1122 356 1118 l 322 1239 q 442 1226 394 1236 q 519 1198 490 1215 q 560 1157 549 1181 q 572 1106 572 1133 q 556 1041 572 1068 q 510 995 539 1014 q 444 967 482 976 q 364 956 407 957 l 347 1047 z "},"Ố":{"ha":833,"x_min":47,"x_max":860,"o":"m 417 -17 q 267 15 335 -17 q 150 108 199 47 q 74 256 101 168 q 47 456 47 344 q 74 653 47 567 q 150 799 101 740 q 267 889 199 858 q 417 919 335 919 q 567 889 499 919 q 683 799 635 858 q 759 653 732 739 q 786 456 786 567 q 759 256 786 344 q 683 108 732 168 q 567 15 635 47 q 417 -17 499 -17 m 417 189 q 508 260 475 189 q 542 456 542 332 q 508 647 542 579 q 417 714 475 714 q 325 647 358 714 q 292 456 292 579 q 325 260 292 332 q 417 189 358 189 m 679 1242 l 860 1242 l 718 1069 l 585 1069 l 679 1242 m 314 1136 l 519 1136 l 653 972 l 486 972 l 419 1044 l 414 1044 l 347 972 l 181 972 l 314 1136 z "},"Ồ":{"ha":833,"x_min":47,"x_max":786,"o":"m 417 -17 q 267 15 335 -17 q 150 108 199 47 q 74 256 101 168 q 47 456 47 344 q 74 653 47 567 q 150 799 101 740 q 267 889 199 858 q 417 919 335 919 q 567 889 499 919 q 683 799 635 858 q 759 653 732 739 q 786 456 786 567 q 759 256 786 344 q 683 108 732 168 q 567 15 635 47 q 417 -17 499 -17 m 417 189 q 508 260 475 189 q 542 456 542 332 q 508 647 542 579 q 417 714 475 714 q 325 647 358 714 q 292 456 292 579 q 325 260 292 332 q 417 189 358 189 m 776 1069 l 643 1069 l 501 1242 l 682 1242 l 776 1069 m 314 1136 l 519 1136 l 653 972 l 486 972 l 419 1044 l 414 1044 l 347 972 l 181 972 l 314 1136 z "},"Ổ":{"ha":833,"x_min":47,"x_max":792,"o":"m 417 -17 q 267 15 335 -17 q 150 108 199 47 q 74 256 101 168 q 47 456 47 344 q 74 653 47 567 q 150 799 101 740 q 267 889 199 858 q 417 919 335 919 q 567 889 499 919 q 683 799 635 858 q 759 653 732 739 q 786 456 786 567 q 759 256 786 344 q 683 108 732 168 q 567 15 635 47 q 417 -17 499 -17 m 417 189 q 508 260 475 189 q 542 456 542 332 q 508 647 542 579 q 417 714 475 714 q 325 647 358 714 q 292 456 292 579 q 325 260 292 332 q 417 189 358 189 m 603 1111 q 631 1121 619 1114 q 642 1144 642 1128 q 624 1172 642 1161 q 553 1186 606 1182 l 575 1281 q 681 1268 639 1278 q 747 1243 722 1258 q 782 1207 772 1228 q 792 1164 792 1186 q 742 1071 792 1099 q 619 1039 693 1043 l 603 1111 m 314 1136 l 519 1136 l 653 972 l 486 972 l 419 1044 l 414 1044 l 347 972 l 181 972 l 314 1136 z "},"Ỗ":{"ha":833,"x_min":47,"x_max":786,"o":"m 417 -17 q 267 15 335 -17 q 150 108 199 47 q 74 256 101 168 q 47 456 47 344 q 74 653 47 567 q 150 799 101 740 q 267 889 199 858 q 417 919 335 919 q 567 889 499 919 q 683 799 635 858 q 759 653 732 739 q 786 456 786 567 q 759 256 786 344 q 683 108 732 168 q 567 15 635 47 q 417 -17 499 -17 m 417 189 q 508 260 475 189 q 542 456 542 332 q 508 647 542 579 q 417 714 475 714 q 325 647 358 714 q 292 456 292 579 q 325 260 292 332 q 417 189 358 189 m 314 1136 l 519 1136 l 653 972 l 486 972 l 419 1044 l 414 1044 l 347 972 l 181 972 l 314 1136 m 200 1186 q 249 1317 211 1278 q 333 1356 288 1356 q 383 1348 361 1356 q 424 1331 406 1340 q 458 1313 443 1321 q 486 1306 472 1306 q 515 1317 503 1306 q 533 1356 526 1328 l 633 1356 q 584 1225 622 1264 q 500 1186 546 1186 q 450 1194 472 1186 q 409 1211 428 1201 q 376 1228 390 1221 q 347 1236 361 1236 q 319 1225 331 1236 q 300 1186 307 1214 l 200 1186 z "},"Ộ":{"ha":833,"x_min":47,"x_max":786,"o":"m 417 -17 q 267 15 335 -17 q 150 108 199 47 q 74 256 101 168 q 47 456 47 344 q 74 653 47 567 q 150 799 101 740 q 267 889 199 858 q 417 919 335 919 q 567 889 499 919 q 683 799 635 858 q 759 653 732 739 q 786 456 786 567 q 759 256 786 344 q 683 108 732 168 q 567 15 635 47 q 417 -17 499 -17 m 417 189 q 508 260 475 189 q 542 456 542 332 q 508 647 542 579 q 417 714 475 714 q 325 647 358 714 q 292 456 292 579 q 325 260 292 332 q 417 189 358 189 m 167 972 l 300 1144 l 533 1144 l 667 972 l 486 972 l 419 1053 l 414 1053 l 347 972 l 167 972 m 417 -367 q 307 -328 350 -367 q 264 -228 264 -290 q 307 -126 264 -165 q 417 -86 350 -86 q 526 -126 483 -86 q 569 -228 569 -165 q 526 -328 569 -290 q 417 -367 483 -367 z "},"Ø":{"ha":833,"x_min":33,"x_max":817,"o":"m 353 218 q 417 189 379 189 q 508 260 475 189 q 542 456 542 332 l 542 489 l 353 218 m 490 676 q 417 714 461 714 q 325 647 358 714 q 292 456 292 579 q 292 424 292 439 q 294 393 293 408 l 490 676 m 719 746 q 769 617 751 689 q 786 456 786 544 q 759 256 786 344 q 683 108 732 168 q 567 15 635 47 q 417 -17 499 -17 q 228 36 310 -17 l 158 -64 l 33 17 l 122 146 q 67 282 86 204 q 47 456 47 360 q 74 653 47 567 q 150 799 101 740 q 267 889 199 858 q 417 919 335 919 q 618 860 531 919 l 692 967 l 817 886 l 719 746 z "},"Œ":{"ha":833,"x_min":19,"x_max":828,"o":"m 19 456 q 50 660 19 575 q 133 799 81 744 q 256 878 185 853 q 408 903 326 903 l 814 903 l 814 703 l 611 703 l 611 561 l 764 561 l 764 361 l 611 361 l 611 200 l 828 200 l 828 0 l 394 0 q 247 26 315 0 q 128 108 179 53 q 49 250 78 164 q 19 456 19 336 m 264 456 q 273 324 264 375 q 298 243 282 272 q 335 203 314 214 q 381 192 356 192 l 400 192 l 400 711 l 381 711 q 335 701 356 711 q 298 664 314 692 q 273 586 282 636 q 264 456 264 536 z "},"Ơ":{"ha":833,"x_min":47,"x_max":844,"o":"m 417 189 q 508 260 475 189 q 542 456 542 332 q 508 647 542 579 q 417 714 475 714 q 325 647 358 714 q 292 456 292 579 q 325 260 292 332 q 417 189 358 189 m 800 1094 q 831 1044 817 1075 q 844 975 844 1013 q 800 857 844 900 q 686 796 756 814 q 760 651 735 736 q 786 456 786 565 q 759 256 786 344 q 683 108 732 168 q 567 15 635 47 q 417 -17 499 -17 q 267 15 335 -17 q 150 108 199 47 q 74 256 101 168 q 47 456 47 344 q 74 653 47 567 q 150 799 101 740 q 267 889 199 858 q 417 919 335 919 q 589 878 514 919 q 641 901 621 885 q 661 958 661 918 q 653 997 661 979 q 639 1025 646 1014 l 800 1094 z "},"Ớ":{"ha":833,"x_min":47,"x_max":844,"o":"m 417 189 q 508 260 475 189 q 542 456 542 332 q 508 647 542 579 q 417 714 475 714 q 325 647 358 714 q 292 456 292 579 q 325 260 292 332 q 417 189 358 189 m 800 1094 q 831 1044 817 1075 q 844 975 844 1013 q 800 857 844 900 q 686 796 756 814 q 760 651 735 736 q 786 456 786 565 q 759 256 786 344 q 683 108 732 168 q 567 15 635 47 q 417 -17 499 -17 q 267 15 335 -17 q 150 108 199 47 q 74 256 101 168 q 47 456 47 344 q 74 653 47 567 q 150 799 101 740 q 267 889 199 858 q 417 919 335 919 q 589 878 514 919 q 641 901 621 885 q 661 958 661 918 q 653 997 661 979 q 639 1025 646 1014 l 800 1094 m 489 972 l 300 972 l 408 1144 l 658 1144 l 489 972 z "},"Ờ":{"ha":833,"x_min":47,"x_max":844,"o":"m 417 189 q 508 260 475 189 q 542 456 542 332 q 508 647 542 579 q 417 714 475 714 q 325 647 358 714 q 292 456 292 579 q 325 260 292 332 q 417 189 358 189 m 800 1094 q 831 1044 817 1075 q 844 975 844 1013 q 800 857 844 900 q 686 796 756 814 q 760 651 735 736 q 786 456 786 565 q 759 256 786 344 q 683 108 732 168 q 567 15 635 47 q 417 -17 499 -17 q 267 15 335 -17 q 150 108 199 47 q 74 256 101 168 q 47 456 47 344 q 74 653 47 567 q 150 799 101 740 q 267 889 199 858 q 417 919 335 919 q 589 878 514 919 q 641 901 621 885 q 661 958 661 918 q 653 997 661 979 q 639 1025 646 1014 l 800 1094 m 175 1144 l 425 1144 l 533 972 l 344 972 l 175 1144 z "},"Ở":{"ha":833,"x_min":47,"x_max":844,"o":"m 417 189 q 508 260 475 189 q 542 456 542 332 q 508 647 542 579 q 417 714 475 714 q 325 647 358 714 q 292 456 292 579 q 325 260 292 332 q 417 189 358 189 m 800 1094 q 831 1044 817 1075 q 844 975 844 1013 q 800 857 844 900 q 686 796 756 814 q 760 651 735 736 q 786 456 786 565 q 759 256 786 344 q 683 108 732 168 q 567 15 635 47 q 417 -17 499 -17 q 267 15 335 -17 q 150 108 199 47 q 74 256 101 168 q 47 456 47 344 q 74 653 47 567 q 150 799 101 740 q 267 889 199 858 q 417 919 335 919 q 589 878 514 919 q 641 901 621 885 q 661 958 661 918 q 653 997 661 979 q 639 1025 646 1014 l 800 1094 m 347 1047 q 387 1057 371 1050 q 403 1081 403 1064 q 379 1108 403 1097 q 294 1122 356 1118 l 322 1239 q 442 1226 394 1236 q 519 1198 490 1215 q 560 1157 549 1181 q 572 1106 572 1133 q 556 1041 572 1068 q 510 995 539 1014 q 444 967 482 976 q 364 956 407 957 l 347 1047 z "},"Ỡ":{"ha":833,"x_min":47,"x_max":844,"o":"m 417 189 q 508 260 475 189 q 542 456 542 332 q 508 647 542 579 q 417 714 475 714 q 325 647 358 714 q 292 456 292 579 q 325 260 292 332 q 417 189 358 189 m 800 1094 q 831 1044 817 1075 q 844 975 844 1013 q 800 857 844 900 q 686 796 756 814 q 760 651 735 736 q 786 456 786 565 q 759 256 786 344 q 683 108 732 168 q 567 15 635 47 q 417 -17 499 -17 q 267 15 335 -17 q 150 108 199 47 q 74 256 101 168 q 47 456 47 344 q 74 653 47 567 q 150 799 101 740 q 267 889 199 858 q 417 919 335 919 q 589 878 514 919 q 641 901 621 885 q 661 958 661 918 q 653 997 661 979 q 639 1025 646 1014 l 800 1094 m 506 972 q 453 981 478 972 q 408 1001 429 990 q 370 1022 388 1013 q 339 1031 353 1031 q 308 1018 322 1031 q 286 972 294 1006 l 167 972 q 225 1126 179 1078 q 328 1175 271 1175 q 380 1166 356 1175 q 425 1146 404 1157 q 463 1126 446 1135 q 494 1117 479 1117 q 525 1129 511 1117 q 547 1175 539 1142 l 667 1175 q 644 1084 660 1122 q 608 1021 629 1046 q 560 984 586 996 q 506 972 533 972 z "},"Ợ":{"ha":833,"x_min":47,"x_max":844,"o":"m 417 189 q 508 260 475 189 q 542 456 542 332 q 508 647 542 579 q 417 714 475 714 q 325 647 358 714 q 292 456 292 579 q 325 260 292 332 q 417 189 358 189 m 800 1094 q 831 1044 817 1075 q 844 975 844 1013 q 800 857 844 900 q 686 796 756 814 q 760 651 735 736 q 786 456 786 565 q 759 256 786 344 q 683 108 732 168 q 567 15 635 47 q 417 -17 499 -17 q 267 15 335 -17 q 150 108 199 47 q 74 256 101 168 q 47 456 47 344 q 74 653 47 567 q 150 799 101 740 q 267 889 199 858 q 417 919 335 919 q 589 878 514 919 q 641 901 621 885 q 661 958 661 918 q 653 997 661 979 q 639 1025 646 1014 l 800 1094 m 417 -367 q 307 -328 350 -367 q 264 -228 264 -290 q 307 -126 264 -165 q 417 -86 350 -86 q 526 -126 483 -86 q 569 -228 569 -165 q 526 -328 569 -290 q 417 -367 483 -367 z "},"Ǫ":{"ha":833,"x_min":47,"x_max":786,"o":"m 608 -264 q 535 -302 579 -287 q 450 -317 490 -317 q 330 -281 379 -317 q 281 -181 281 -246 q 310 -81 281 -124 q 369 -14 340 -39 q 226 39 288 -3 q 126 143 165 81 q 67 285 86 206 q 47 456 47 365 q 74 653 47 567 q 150 799 101 740 q 267 889 199 858 q 417 919 335 919 q 567 889 499 919 q 683 799 635 858 q 759 653 732 739 q 786 456 786 567 q 769 290 786 363 q 719 162 751 217 q 643 68 688 107 q 544 6 599 29 q 472 -52 492 -18 q 453 -117 453 -86 q 470 -153 453 -142 q 508 -164 488 -164 q 533 -158 521 -164 q 556 -144 546 -151 l 608 -264 m 417 189 q 508 260 475 189 q 542 456 542 332 q 508 647 542 579 q 417 714 475 714 q 325 647 358 714 q 292 456 292 579 q 325 260 292 332 q 417 189 358 189 z "},"Ŕ":{"ha":833,"x_min":81,"x_max":828,"o":"m 319 492 l 400 492 q 544 611 544 492 q 508 692 544 669 q 400 714 471 714 l 319 714 l 319 492 m 561 0 l 406 303 l 319 303 l 319 0 l 81 0 l 81 903 l 417 903 q 555 889 489 903 q 670 842 621 875 q 749 752 719 808 q 778 611 778 696 q 738 450 778 514 q 632 350 699 386 l 828 0 l 561 0 m 492 972 l 303 972 l 411 1144 l 661 1144 l 492 972 z "},"Ř":{"ha":833,"x_min":81,"x_max":828,"o":"m 319 492 l 400 492 q 544 611 544 492 q 508 692 544 669 q 400 714 471 714 l 319 714 l 319 492 m 561 0 l 406 303 l 319 303 l 319 0 l 81 0 l 81 903 l 417 903 q 555 889 489 903 q 670 842 621 875 q 749 752 719 808 q 778 611 778 696 q 738 450 778 514 q 632 350 699 386 l 828 0 l 561 0 m 669 1144 l 536 972 l 303 972 l 169 1144 l 350 1144 l 417 1064 l 422 1064 l 489 1144 l 669 1144 z "},"Ŗ":{"ha":833,"x_min":81,"x_max":828,"o":"m 319 492 l 400 492 q 544 611 544 492 q 508 692 544 669 q 400 714 471 714 l 319 714 l 319 492 m 561 0 l 406 303 l 319 303 l 319 0 l 81 0 l 81 903 l 417 903 q 555 889 489 903 q 670 842 621 875 q 749 752 719 808 q 778 611 778 696 q 738 450 778 514 q 632 350 699 386 l 828 0 l 561 0 m 392 -56 q 533 -92 493 -64 q 572 -175 572 -121 q 551 -240 572 -212 q 493 -285 529 -267 q 409 -314 457 -304 q 308 -325 361 -324 l 292 -233 q 372 -219 340 -229 q 403 -186 403 -210 q 391 -158 403 -169 q 347 -139 379 -147 l 392 -56 l 392 -56 z "},"Ṛ":{"ha":833,"x_min":81,"x_max":828,"o":"m 319 492 l 400 492 q 544 611 544 492 q 508 692 544 669 q 400 714 471 714 l 319 714 l 319 492 m 561 0 l 406 303 l 319 303 l 319 0 l 81 0 l 81 903 l 417 903 q 555 889 489 903 q 670 842 621 875 q 749 752 719 808 q 778 611 778 696 q 738 450 778 514 q 632 350 699 386 l 828 0 l 561 0 m 444 -367 q 335 -328 378 -367 q 292 -228 292 -290 q 335 -126 292 -165 q 444 -86 378 -86 q 554 -126 511 -86 q 597 -228 597 -165 q 554 -328 597 -290 q 444 -367 511 -367 z "},"Ṝ":{"ha":833,"x_min":81,"x_max":828,"o":"m 319 492 l 400 492 q 544 611 544 492 q 508 692 544 669 q 400 714 471 714 l 319 714 l 319 492 m 561 0 l 406 303 l 319 303 l 319 0 l 81 0 l 81 903 l 417 903 q 555 889 489 903 q 670 842 621 875 q 749 752 719 808 q 778 611 778 696 q 738 450 778 514 q 632 350 699 386 l 828 0 l 561 0 m 214 1144 l 625 1144 l 625 994 l 214 994 l 214 1144 m 444 -367 q 335 -328 378 -367 q 292 -228 292 -290 q 335 -126 292 -165 q 444 -86 378 -86 q 554 -126 511 -86 q 597 -228 597 -165 q 554 -328 597 -290 q 444 -367 511 -367 z "},"Ṟ":{"ha":833,"x_min":81,"x_max":828,"o":"m 319 492 l 400 492 q 544 611 544 492 q 508 692 544 669 q 400 714 471 714 l 319 714 l 319 492 m 561 0 l 406 303 l 319 303 l 319 0 l 81 0 l 81 903 l 417 903 q 555 889 489 903 q 670 842 621 875 q 749 752 719 808 q 778 611 778 696 q 738 450 778 514 q 632 350 699 386 l 828 0 l 561 0 m 644 -272 l 244 -272 l 244 -122 l 644 -122 l 644 -272 z "},"Ś":{"ha":833,"x_min":61,"x_max":772,"o":"m 197 276 q 306 213 249 238 q 417 189 364 189 q 503 206 479 189 q 528 253 528 222 q 519 281 528 269 q 494 301 511 292 q 453 320 478 311 q 397 340 429 329 l 285 388 q 211 424 246 401 q 151 478 176 447 q 110 550 125 510 q 94 639 94 590 q 119 748 94 697 q 190 837 144 799 q 298 897 235 875 q 439 919 361 919 q 600 890 519 919 q 747 799 681 861 l 628 649 q 536 697 579 681 q 439 714 493 714 q 336 653 336 714 q 373 604 336 621 q 478 563 410 588 l 582 519 q 723 426 674 486 q 772 272 772 367 q 749 163 772 215 q 679 70 725 110 q 566 7 633 31 q 411 -17 499 -17 q 230 15 322 -17 q 61 113 138 46 l 197 276 m 497 972 l 308 972 l 417 1144 l 667 1144 l 497 972 z "},"Ŝ":{"ha":833,"x_min":61,"x_max":772,"o":"m 197 276 q 306 213 249 238 q 417 189 364 189 q 503 206 479 189 q 528 253 528 222 q 519 281 528 269 q 494 301 511 292 q 453 320 478 311 q 397 340 429 329 l 285 388 q 211 424 246 401 q 151 478 176 447 q 110 550 125 510 q 94 639 94 590 q 119 748 94 697 q 190 837 144 799 q 298 897 235 875 q 439 919 361 919 q 600 890 519 919 q 747 799 681 861 l 628 649 q 536 697 579 681 q 439 714 493 714 q 336 653 336 714 q 373 604 336 621 q 478 563 410 588 l 582 519 q 723 426 674 486 q 772 272 772 367 q 749 163 772 215 q 679 70 725 110 q 566 7 633 31 q 411 -17 499 -17 q 230 15 322 -17 q 61 113 138 46 l 197 276 m 175 972 l 308 1144 l 542 1144 l 675 972 l 494 972 l 428 1053 l 422 1053 l 356 972 l 175 972 z "},"Š":{"ha":833,"x_min":61,"x_max":772,"o":"m 197 276 q 306 213 249 238 q 417 189 364 189 q 503 206 479 189 q 528 253 528 222 q 519 281 528 269 q 494 301 511 292 q 453 320 478 311 q 397 340 429 329 l 285 388 q 211 424 246 401 q 151 478 176 447 q 110 550 125 510 q 94 639 94 590 q 119 748 94 697 q 190 837 144 799 q 298 897 235 875 q 439 919 361 919 q 600 890 519 919 q 747 799 681 861 l 628 649 q 536 697 579 681 q 439 714 493 714 q 336 653 336 714 q 373 604 336 621 q 478 563 410 588 l 582 519 q 723 426 674 486 q 772 272 772 367 q 749 163 772 215 q 679 70 725 110 q 566 7 633 31 q 411 -17 499 -17 q 230 15 322 -17 q 61 113 138 46 l 197 276 m 675 1144 l 542 972 l 308 972 l 175 1144 l 356 1144 l 422 1064 l 428 1064 l 494 1144 l 675 1144 z "},"Ş":{"ha":833,"x_min":61,"x_max":772,"o":"m 197 276 q 306 213 249 238 q 417 189 364 189 q 503 206 479 189 q 528 253 528 222 q 519 281 528 269 q 494 301 511 292 q 453 320 478 311 q 397 340 429 329 l 285 388 q 211 424 246 401 q 151 478 176 447 q 110 550 125 510 q 94 639 94 590 q 119 748 94 697 q 190 837 144 799 q 298 897 235 875 q 439 919 361 919 q 600 890 519 919 q 747 799 681 861 l 628 649 q 536 697 579 681 q 439 714 493 714 q 336 653 336 714 q 373 604 336 621 q 478 563 410 588 l 582 519 q 723 426 674 486 q 772 272 772 367 q 749 163 772 215 q 679 70 725 110 q 566 7 633 31 q 411 -17 499 -17 q 230 15 322 -17 q 61 113 138 46 l 197 276 m 353 6 l 489 6 l 464 -56 q 522 -92 500 -68 q 544 -161 544 -117 q 523 -226 544 -199 q 465 -272 501 -253 q 381 -300 429 -290 q 281 -311 333 -310 l 264 -219 q 344 -202 313 -215 q 375 -161 375 -189 q 360 -132 375 -146 q 297 -106 346 -118 l 353 6 z "},"Ș":{"ha":833,"x_min":61,"x_max":772,"o":"m 197 276 q 306 213 249 238 q 417 189 364 189 q 503 206 479 189 q 528 253 528 222 q 519 281 528 269 q 494 301 511 292 q 453 320 478 311 q 397 340 429 329 l 285 388 q 211 424 246 401 q 151 478 176 447 q 110 550 125 510 q 94 639 94 590 q 119 748 94 697 q 190 837 144 799 q 298 897 235 875 q 439 919 361 919 q 600 890 519 919 q 747 799 681 861 l 628 649 q 536 697 579 681 q 439 714 493 714 q 336 653 336 714 q 373 604 336 621 q 478 563 410 588 l 582 519 q 723 426 674 486 q 772 272 772 367 q 749 163 772 215 q 679 70 725 110 q 566 7 633 31 q 411 -17 499 -17 q 230 15 322 -17 q 61 113 138 46 l 197 276 m 378 -56 q 519 -92 479 -64 q 558 -175 558 -121 q 537 -240 558 -212 q 479 -285 515 -267 q 395 -314 443 -304 q 294 -325 347 -324 l 278 -233 q 358 -219 326 -229 q 389 -186 389 -210 q 377 -158 389 -169 q 333 -139 365 -147 l 378 -56 l 378 -56 z "},"Ṡ":{"ha":833,"x_min":61,"x_max":772,"o":"m 197 276 q 306 213 249 238 q 417 189 364 189 q 503 206 479 189 q 528 253 528 222 q 519 281 528 269 q 494 301 511 292 q 453 320 478 311 q 397 340 429 329 l 285 388 q 211 424 246 401 q 151 478 176 447 q 110 550 125 510 q 94 639 94 590 q 119 748 94 697 q 190 837 144 799 q 298 897 235 875 q 439 919 361 919 q 600 890 519 919 q 747 799 681 861 l 628 649 q 536 697 579 681 q 439 714 493 714 q 336 653 336 714 q 373 604 336 621 q 478 563 410 588 l 582 519 q 723 426 674 486 q 772 272 772 367 q 749 163 772 215 q 679 70 725 110 q 566 7 633 31 q 411 -17 499 -17 q 230 15 322 -17 q 61 113 138 46 l 197 276 m 425 967 q 329 1000 367 967 q 292 1086 292 1033 q 329 1172 292 1139 q 425 1206 367 1206 q 521 1172 483 1206 q 558 1086 558 1139 q 521 1000 558 1033 q 425 967 483 967 z "},"Ṣ":{"ha":833,"x_min":61,"x_max":772,"o":"m 197 276 q 306 213 249 238 q 417 189 364 189 q 503 206 479 189 q 528 253 528 222 q 519 281 528 269 q 494 301 511 292 q 453 320 478 311 q 397 340 429 329 l 285 388 q 211 424 246 401 q 151 478 176 447 q 110 550 125 510 q 94 639 94 590 q 119 748 94 697 q 190 837 144 799 q 298 897 235 875 q 439 919 361 919 q 600 890 519 919 q 747 799 681 861 l 628 649 q 536 697 579 681 q 439 714 493 714 q 336 653 336 714 q 373 604 336 621 q 478 563 410 588 l 582 519 q 723 426 674 486 q 772 272 772 367 q 749 163 772 215 q 679 70 725 110 q 566 7 633 31 q 411 -17 499 -17 q 230 15 322 -17 q 61 113 138 46 l 197 276 m 431 -367 q 321 -328 364 -367 q 278 -228 278 -290 q 321 -126 278 -165 q 431 -86 364 -86 q 540 -126 497 -86 q 583 -228 583 -165 q 540 -328 583 -290 q 431 -367 497 -367 z "},"ẞ":{"ha":833,"x_min":82,"x_max":786,"o":"m 82 619 q 100 736 82 682 q 158 831 118 790 q 263 896 199 872 q 418 919 326 919 q 533 900 481 919 q 626 845 586 881 q 692 760 667 810 q 728 650 718 710 l 651 497 q 694 459 671 481 q 738 408 718 438 q 772 340 758 379 q 786 250 786 301 q 772 144 786 193 q 729 60 758 96 q 656 4 700 25 q 549 -17 611 -17 q 419 10 469 -17 q 340 67 368 36 l 463 211 q 496 183 482 190 q 515 175 510 175 q 530 196 522 175 q 538 253 538 217 q 506 315 538 286 q 428 363 475 344 l 413 500 l 493 658 q 465 707 485 686 q 413 728 444 728 q 345 692 364 728 q 326 589 326 657 l 326 0 l 82 0 l 82 619 z "},"Ť":{"ha":833,"x_min":38,"x_max":796,"o":"m 297 703 l 38 703 l 38 903 l 796 903 l 796 703 l 536 703 l 536 0 l 297 0 l 297 703 m 667 1144 l 533 972 l 300 972 l 167 1144 l 347 1144 l 414 1064 l 419 1064 l 486 1144 l 667 1144 z "},"Ţ":{"ha":833,"x_min":38,"x_max":796,"o":"m 297 703 l 38 703 l 38 903 l 796 903 l 796 703 l 536 703 l 536 0 l 297 0 l 297 703 m 353 6 l 489 6 l 464 -56 q 522 -92 500 -68 q 544 -161 544 -117 q 523 -226 544 -199 q 465 -272 501 -253 q 381 -300 429 -290 q 281 -311 333 -310 l 264 -219 q 344 -202 313 -215 q 375 -161 375 -189 q 360 -132 375 -146 q 297 -106 346 -118 l 353 6 z "},"Ț":{"ha":833,"x_min":38,"x_max":796,"o":"m 297 703 l 38 703 l 38 903 l 796 903 l 796 703 l 536 703 l 536 0 l 297 0 l 297 703 m 364 -56 q 505 -92 465 -64 q 544 -175 544 -121 q 523 -240 544 -212 q 465 -285 501 -267 q 381 -314 429 -304 q 281 -325 333 -324 l 264 -233 q 344 -219 313 -229 q 375 -186 375 -210 q 363 -158 375 -169 q 319 -139 351 -147 l 364 -56 l 364 -56 z "},"Ṭ":{"ha":833,"x_min":38,"x_max":796,"o":"m 297 703 l 38 703 l 38 903 l 796 903 l 796 703 l 536 703 l 536 0 l 297 0 l 297 703 m 417 -367 q 307 -328 350 -367 q 264 -228 264 -290 q 307 -126 264 -165 q 417 -86 350 -86 q 526 -126 483 -86 q 569 -228 569 -165 q 526 -328 569 -290 q 417 -367 483 -367 z "},"Ṯ":{"ha":833,"x_min":38,"x_max":796,"o":"m 297 703 l 38 703 l 38 903 l 796 903 l 796 703 l 536 703 l 536 0 l 297 0 l 297 703 m 617 -272 l 217 -272 l 217 -122 l 617 -122 l 617 -272 z "},"Ù":{"ha":833,"x_min":81,"x_max":753,"o":"m 81 903 l 319 903 l 319 322 q 341 226 319 264 q 419 189 363 189 q 500 226 478 189 q 522 322 522 264 l 522 903 l 753 903 l 753 350 q 734 198 753 265 q 675 83 715 131 q 572 9 635 35 q 419 -17 508 -17 q 267 9 331 -17 q 161 83 203 35 q 100 198 119 131 q 81 350 81 265 l 81 903 m 175 1144 l 425 1144 l 533 972 l 344 972 l 175 1144 z "},"Ú":{"ha":833,"x_min":81,"x_max":753,"o":"m 81 903 l 319 903 l 319 322 q 341 226 319 264 q 419 189 363 189 q 500 226 478 189 q 522 322 522 264 l 522 903 l 753 903 l 753 350 q 734 198 753 265 q 675 83 715 131 q 572 9 635 35 q 419 -17 508 -17 q 267 9 331 -17 q 161 83 203 35 q 100 198 119 131 q 81 350 81 265 l 81 903 m 489 972 l 300 972 l 408 1144 l 658 1144 l 489 972 z "},"Û":{"ha":833,"x_min":81,"x_max":753,"o":"m 81 903 l 319 903 l 319 322 q 341 226 319 264 q 419 189 363 189 q 500 226 478 189 q 522 322 522 264 l 522 903 l 753 903 l 753 350 q 734 198 753 265 q 675 83 715 131 q 572 9 635 35 q 419 -17 508 -17 q 267 9 331 -17 q 161 83 203 35 q 100 198 119 131 q 81 350 81 265 l 81 903 m 167 972 l 300 1144 l 533 1144 l 667 972 l 486 972 l 419 1053 l 414 1053 l 347 972 l 167 972 z "},"Ũ":{"ha":833,"x_min":81,"x_max":753,"o":"m 81 903 l 319 903 l 319 322 q 341 226 319 264 q 419 189 363 189 q 500 226 478 189 q 522 322 522 264 l 522 903 l 753 903 l 753 350 q 734 198 753 265 q 675 83 715 131 q 572 9 635 35 q 419 -17 508 -17 q 267 9 331 -17 q 161 83 203 35 q 100 198 119 131 q 81 350 81 265 l 81 903 m 506 972 q 453 981 478 972 q 408 1001 429 990 q 370 1022 388 1013 q 339 1031 353 1031 q 308 1018 322 1031 q 286 972 294 1006 l 167 972 q 225 1126 179 1078 q 328 1175 271 1175 q 380 1166 356 1175 q 425 1146 404 1157 q 463 1126 446 1135 q 494 1117 479 1117 q 525 1129 511 1117 q 547 1175 539 1142 l 667 1175 q 644 1084 660 1122 q 608 1021 629 1046 q 560 984 586 996 q 506 972 533 972 z "},"Ü":{"ha":833,"x_min":81,"x_max":753,"o":"m 81 903 l 319 903 l 319 322 q 341 226 319 264 q 419 189 363 189 q 500 226 478 189 q 522 322 522 264 l 522 903 l 753 903 l 753 350 q 734 198 753 265 q 675 83 715 131 q 572 9 635 35 q 419 -17 508 -17 q 267 9 331 -17 q 161 83 203 35 q 100 198 119 131 q 81 350 81 265 l 81 903 m 272 964 q 194 995 224 964 q 164 1072 164 1026 q 194 1149 164 1118 q 272 1181 224 1181 q 351 1149 321 1181 q 381 1072 381 1118 q 351 995 381 1026 q 272 964 321 964 m 561 964 q 483 995 513 964 q 453 1072 453 1026 q 483 1149 453 1118 q 561 1181 513 1181 q 640 1149 610 1181 q 669 1072 669 1118 q 640 995 669 1026 q 561 964 610 964 z "},"Ū":{"ha":833,"x_min":81,"x_max":753,"o":"m 81 903 l 319 903 l 319 322 q 341 226 319 264 q 419 189 363 189 q 500 226 478 189 q 522 322 522 264 l 522 903 l 753 903 l 753 350 q 734 198 753 265 q 675 83 715 131 q 572 9 635 35 q 419 -17 508 -17 q 267 9 331 -17 q 161 83 203 35 q 100 198 119 131 q 81 350 81 265 l 81 903 m 211 1144 l 622 1144 l 622 994 l 211 994 l 211 1144 z "},"Ŭ":{"ha":833,"x_min":81,"x_max":753,"o":"m 81 903 l 319 903 l 319 322 q 341 226 319 264 q 419 189 363 189 q 500 226 478 189 q 522 322 522 264 l 522 903 l 753 903 l 753 350 q 734 198 753 265 q 675 83 715 131 q 572 9 635 35 q 419 -17 508 -17 q 267 9 331 -17 q 161 83 203 35 q 100 198 119 131 q 81 350 81 265 l 81 903 m 417 972 q 275 1017 322 972 q 219 1144 228 1063 l 347 1144 q 369 1104 354 1119 q 417 1089 385 1089 q 464 1104 449 1089 q 486 1144 479 1119 l 614 1144 q 558 1017 606 1063 q 417 972 511 972 z "},"Ů":{"ha":833,"x_min":81,"x_max":753,"o":"m 81 903 l 319 903 l 319 322 q 341 226 319 264 q 419 189 363 189 q 500 226 478 189 q 522 322 522 264 l 522 903 l 753 903 l 753 350 q 734 198 753 265 q 675 83 715 131 q 572 9 635 35 q 419 -17 508 -17 q 267 9 331 -17 q 161 83 203 35 q 100 198 119 131 q 81 350 81 265 l 81 903 m 417 967 q 296 1005 342 967 q 250 1108 250 1043 q 296 1212 250 1174 q 417 1250 342 1250 q 538 1212 492 1250 q 583 1108 583 1174 q 538 1005 583 1043 q 417 967 492 967 m 417 1053 q 454 1068 439 1053 q 469 1108 469 1083 q 454 1149 469 1133 q 417 1164 439 1164 q 379 1149 394 1164 q 364 1108 364 1133 q 379 1068 364 1083 q 417 1053 394 1053 z "},"Ű":{"ha":833,"x_min":81,"x_max":758,"o":"m 81 903 l 319 903 l 319 322 q 341 226 319 264 q 419 189 363 189 q 500 226 478 189 q 522 322 522 264 l 522 903 l 753 903 l 753 350 q 734 198 753 265 q 675 83 715 131 q 572 9 635 35 q 419 -17 508 -17 q 267 9 331 -17 q 161 83 203 35 q 100 198 119 131 q 81 350 81 265 l 81 903 m 211 972 l 297 1144 l 497 1144 l 369 972 l 211 972 m 558 1144 l 758 1144 l 631 972 l 472 972 l 558 1144 z "},"Ǔ":{"ha":833,"x_min":81,"x_max":753,"o":"m 81 903 l 319 903 l 319 322 q 341 226 319 264 q 419 189 363 189 q 500 226 478 189 q 522 322 522 264 l 522 903 l 753 903 l 753 350 q 734 198 753 265 q 675 83 715 131 q 572 9 635 35 q 419 -17 508 -17 q 267 9 331 -17 q 161 83 203 35 q 100 198 119 131 q 81 350 81 265 l 81 903 m 667 1144 l 533 972 l 300 972 l 167 1144 l 347 1144 l 414 1064 l 419 1064 l 486 1144 l 667 1144 z "},"Ǖ":{"ha":833,"x_min":81,"x_max":753,"o":"m 81 903 l 319 903 l 319 322 q 341 226 319 264 q 419 189 363 189 q 500 226 478 189 q 522 322 522 264 l 522 903 l 753 903 l 753 350 q 734 198 753 265 q 675 83 715 131 q 572 9 635 35 q 419 -17 508 -17 q 267 9 331 -17 q 161 83 203 35 q 100 198 119 131 q 81 350 81 265 l 81 903 m 211 1325 l 622 1325 l 622 1217 l 211 1217 l 211 1325 m 272 964 q 204 991 231 964 q 178 1058 178 1018 q 204 1126 178 1099 q 272 1153 231 1153 q 340 1126 314 1153 q 367 1058 367 1099 q 340 991 367 1018 q 272 964 314 964 m 561 964 q 493 991 519 964 q 467 1058 467 1018 q 493 1126 467 1099 q 561 1153 519 1153 q 629 1126 603 1153 q 656 1058 656 1099 q 629 991 656 1018 q 561 964 603 964 z "},"Ǘ":{"ha":833,"x_min":81,"x_max":753,"o":"m 81 903 l 319 903 l 319 322 q 341 226 319 264 q 419 189 363 189 q 500 226 478 189 q 522 322 522 264 l 522 903 l 753 903 l 753 350 q 734 198 753 265 q 675 83 715 131 q 572 9 635 35 q 419 -17 508 -17 q 267 9 331 -17 q 161 83 203 35 q 100 198 119 131 q 81 350 81 265 l 81 903 m 408 1367 l 656 1367 l 489 1194 l 300 1194 l 408 1367 m 272 964 q 204 991 231 964 q 178 1058 178 1018 q 204 1126 178 1099 q 272 1153 231 1153 q 340 1126 314 1153 q 367 1058 367 1099 q 340 991 367 1018 q 272 964 314 964 m 561 964 q 493 991 519 964 q 467 1058 467 1018 q 493 1126 467 1099 q 561 1153 519 1153 q 629 1126 603 1153 q 656 1058 656 1099 q 629 991 656 1018 q 561 964 603 964 z "},"Ǚ":{"ha":833,"x_min":81,"x_max":753,"o":"m 81 903 l 319 903 l 319 322 q 341 226 319 264 q 419 189 363 189 q 500 226 478 189 q 522 322 522 264 l 522 903 l 753 903 l 753 350 q 734 198 753 265 q 675 83 715 131 q 572 9 635 35 q 419 -17 508 -17 q 267 9 331 -17 q 161 83 203 35 q 100 198 119 131 q 81 350 81 265 l 81 903 m 272 964 q 204 991 231 964 q 178 1058 178 1018 q 204 1126 178 1099 q 272 1153 231 1153 q 340 1126 314 1153 q 367 1058 367 1099 q 340 991 367 1018 q 272 964 314 964 m 561 964 q 493 991 519 964 q 467 1058 467 1018 q 493 1126 467 1099 q 561 1153 519 1153 q 629 1126 603 1153 q 656 1058 656 1099 q 629 991 656 1018 q 561 964 603 964 m 667 1367 l 533 1194 l 300 1194 l 167 1367 l 347 1367 l 414 1286 l 419 1286 l 486 1367 l 667 1367 z "},"Ǜ":{"ha":833,"x_min":81,"x_max":753,"o":"m 81 903 l 319 903 l 319 322 q 341 226 319 264 q 419 189 363 189 q 500 226 478 189 q 522 322 522 264 l 522 903 l 753 903 l 753 350 q 734 198 753 265 q 675 83 715 131 q 572 9 635 35 q 419 -17 508 -17 q 267 9 331 -17 q 161 83 203 35 q 100 198 119 131 q 81 350 81 265 l 81 903 m 533 1194 l 344 1194 l 178 1367 l 425 1367 l 533 1194 m 561 964 q 493 991 519 964 q 467 1058 467 1018 q 493 1126 467 1099 q 561 1153 519 1153 q 629 1126 603 1153 q 656 1058 656 1099 q 629 991 656 1018 q 561 964 603 964 m 272 964 q 204 991 231 964 q 178 1058 178 1018 q 204 1126 178 1099 q 272 1153 231 1153 q 340 1126 314 1153 q 367 1058 367 1099 q 340 991 367 1018 q 272 964 314 964 z "},"Ụ":{"ha":833,"x_min":81,"x_max":753,"o":"m 81 903 l 319 903 l 319 322 q 341 226 319 264 q 419 189 363 189 q 500 226 478 189 q 522 322 522 264 l 522 903 l 753 903 l 753 350 q 734 198 753 265 q 675 83 715 131 q 572 9 635 35 q 419 -17 508 -17 q 267 9 331 -17 q 161 83 203 35 q 100 198 119 131 q 81 350 81 265 l 81 903 m 417 -367 q 307 -328 350 -367 q 264 -228 264 -290 q 307 -126 264 -165 q 417 -86 350 -86 q 526 -126 483 -86 q 569 -228 569 -165 q 526 -328 569 -290 q 417 -367 483 -367 z "},"Ủ":{"ha":833,"x_min":81,"x_max":753,"o":"m 81 903 l 319 903 l 319 322 q 341 226 319 264 q 419 189 363 189 q 500 226 478 189 q 522 322 522 264 l 522 903 l 753 903 l 753 350 q 734 198 753 265 q 675 83 715 131 q 572 9 635 35 q 419 -17 508 -17 q 267 9 331 -17 q 161 83 203 35 q 100 198 119 131 q 81 350 81 265 l 81 903 m 347 1047 q 387 1057 371 1050 q 403 1081 403 1064 q 379 1108 403 1097 q 294 1122 356 1118 l 322 1239 q 442 1226 394 1236 q 519 1198 490 1215 q 560 1157 549 1181 q 572 1106 572 1133 q 556 1041 572 1068 q 510 995 539 1014 q 444 967 482 976 q 364 956 407 957 l 347 1047 z "},"Ų":{"ha":833,"x_min":81,"x_max":753,"o":"m 81 903 l 319 903 l 319 322 q 341 226 319 264 q 419 189 363 189 q 500 226 478 189 q 522 322 522 264 l 522 903 l 753 903 l 753 350 q 711 141 753 225 q 581 14 669 57 q 514 -24 539 -7 q 475 -58 489 -42 q 457 -88 461 -74 q 453 -117 453 -103 q 470 -153 453 -142 q 508 -164 488 -164 q 533 -158 521 -164 q 556 -144 546 -151 l 608 -264 q 535 -302 579 -287 q 450 -317 490 -317 q 330 -281 379 -317 q 281 -181 281 -246 q 292 -119 281 -147 q 317 -71 303 -92 q 347 -35 332 -50 q 369 -14 363 -21 q 151 94 222 -1 q 81 350 81 189 l 81 903 z "},"Ư":{"ha":833,"x_min":81,"x_max":933,"o":"m 889 1122 q 919 1072 906 1103 q 933 1003 933 1040 q 919 931 933 963 q 881 877 906 900 q 824 840 857 854 q 753 818 792 825 l 753 350 q 734 198 753 265 q 675 83 715 131 q 572 9 635 35 q 419 -17 508 -17 q 267 9 331 -17 q 161 83 203 35 q 100 198 119 131 q 81 350 81 265 l 81 903 l 319 903 l 319 322 q 341 226 319 264 q 419 189 363 189 q 500 226 478 189 q 522 322 522 264 l 522 903 l 639 903 q 676 906 657 903 q 713 917 696 908 q 740 942 729 925 q 750 986 750 958 q 742 1024 750 1007 q 728 1053 735 1042 l 889 1122 z "},"Ứ":{"ha":833,"x_min":81,"x_max":933,"o":"m 889 1122 q 919 1072 906 1103 q 933 1003 933 1040 q 919 931 933 963 q 881 877 906 900 q 824 840 857 854 q 753 818 792 825 l 753 350 q 734 198 753 265 q 675 83 715 131 q 572 9 635 35 q 419 -17 508 -17 q 267 9 331 -17 q 161 83 203 35 q 100 198 119 131 q 81 350 81 265 l 81 903 l 319 903 l 319 322 q 341 226 319 264 q 419 189 363 189 q 500 226 478 189 q 522 322 522 264 l 522 903 l 639 903 q 676 906 657 903 q 713 917 696 908 q 740 942 729 925 q 750 986 750 958 q 742 1024 750 1007 q 728 1053 735 1042 l 889 1122 m 489 972 l 300 972 l 408 1144 l 658 1144 l 489 972 z "},"Ừ":{"ha":833,"x_min":81,"x_max":933,"o":"m 889 1122 q 919 1072 906 1103 q 933 1003 933 1040 q 919 931 933 963 q 881 877 906 900 q 824 840 857 854 q 753 818 792 825 l 753 350 q 734 198 753 265 q 675 83 715 131 q 572 9 635 35 q 419 -17 508 -17 q 267 9 331 -17 q 161 83 203 35 q 100 198 119 131 q 81 350 81 265 l 81 903 l 319 903 l 319 322 q 341 226 319 264 q 419 189 363 189 q 500 226 478 189 q 522 322 522 264 l 522 903 l 639 903 q 676 906 657 903 q 713 917 696 908 q 740 942 729 925 q 750 986 750 958 q 742 1024 750 1007 q 728 1053 735 1042 l 889 1122 m 175 1144 l 425 1144 l 533 972 l 344 972 l 175 1144 z "},"Ử":{"ha":833,"x_min":81,"x_max":933,"o":"m 889 1122 q 919 1072 906 1103 q 933 1003 933 1040 q 919 931 933 963 q 881 877 906 900 q 824 840 857 854 q 753 818 792 825 l 753 350 q 734 198 753 265 q 675 83 715 131 q 572 9 635 35 q 419 -17 508 -17 q 267 9 331 -17 q 161 83 203 35 q 100 198 119 131 q 81 350 81 265 l 81 903 l 319 903 l 319 322 q 341 226 319 264 q 419 189 363 189 q 500 226 478 189 q 522 322 522 264 l 522 903 l 639 903 q 676 906 657 903 q 713 917 696 908 q 740 942 729 925 q 750 986 750 958 q 742 1024 750 1007 q 728 1053 735 1042 l 889 1122 m 347 1047 q 387 1057 371 1050 q 403 1081 403 1064 q 379 1108 403 1097 q 294 1122 356 1118 l 322 1239 q 442 1226 394 1236 q 519 1198 490 1215 q 560 1157 549 1181 q 572 1106 572 1133 q 556 1041 572 1068 q 510 995 539 1014 q 444 967 482 976 q 364 956 407 957 l 347 1047 z "},"Ữ":{"ha":833,"x_min":81,"x_max":933,"o":"m 889 1122 q 919 1072 906 1103 q 933 1003 933 1040 q 919 931 933 963 q 881 877 906 900 q 824 840 857 854 q 753 818 792 825 l 753 350 q 734 198 753 265 q 675 83 715 131 q 572 9 635 35 q 419 -17 508 -17 q 267 9 331 -17 q 161 83 203 35 q 100 198 119 131 q 81 350 81 265 l 81 903 l 319 903 l 319 322 q 341 226 319 264 q 419 189 363 189 q 500 226 478 189 q 522 322 522 264 l 522 903 l 639 903 q 676 906 657 903 q 713 917 696 908 q 740 942 729 925 q 750 986 750 958 q 742 1024 750 1007 q 728 1053 735 1042 l 889 1122 m 506 972 q 453 981 478 972 q 408 1001 429 990 q 370 1022 388 1013 q 339 1031 353 1031 q 308 1018 322 1031 q 286 972 294 1006 l 167 972 q 225 1126 179 1078 q 328 1175 271 1175 q 380 1166 356 1175 q 425 1146 404 1157 q 463 1126 446 1135 q 494 1117 479 1117 q 525 1129 511 1117 q 547 1175 539 1142 l 667 1175 q 644 1084 660 1122 q 608 1021 629 1046 q 560 984 586 996 q 506 972 533 972 z "},"Ự":{"ha":833,"x_min":81,"x_max":933,"o":"m 889 1122 q 919 1072 906 1103 q 933 1003 933 1040 q 919 931 933 963 q 881 877 906 900 q 824 840 857 854 q 753 818 792 825 l 753 350 q 734 198 753 265 q 675 83 715 131 q 572 9 635 35 q 419 -17 508 -17 q 267 9 331 -17 q 161 83 203 35 q 100 198 119 131 q 81 350 81 265 l 81 903 l 319 903 l 319 322 q 341 226 319 264 q 419 189 363 189 q 500 226 478 189 q 522 322 522 264 l 522 903 l 639 903 q 676 906 657 903 q 713 917 696 908 q 740 942 729 925 q 750 986 750 958 q 742 1024 750 1007 q 728 1053 735 1042 l 889 1122 m 417 -367 q 307 -328 350 -367 q 264 -228 264 -290 q 307 -126 264 -165 q 417 -86 350 -86 q 526 -126 483 -86 q 569 -228 569 -165 q 526 -328 569 -290 q 417 -367 483 -367 z "},"Ẁ":{"ha":833,"x_min":3,"x_max":832,"o":"m 3 903 l 247 903 l 258 456 l 258 222 l 264 222 q 285 339 272 281 q 308 456 297 397 l 358 675 l 497 675 l 543 456 q 565 342 553 400 q 588 222 578 283 l 593 222 l 593 456 l 604 903 l 832 903 l 728 0 l 481 0 l 440 247 q 427 338 433 292 q 419 424 421 383 l 415 424 q 407 338 413 383 q 394 247 401 292 l 357 0 l 115 0 l 3 903 m 175 1144 l 425 1144 l 533 972 l 344 972 l 175 1144 z "},"Ẃ":{"ha":833,"x_min":3,"x_max":832,"o":"m 3 903 l 247 903 l 258 456 l 258 222 l 264 222 q 285 339 272 281 q 308 456 297 397 l 358 675 l 497 675 l 543 456 q 565 342 553 400 q 588 222 578 283 l 593 222 l 593 456 l 604 903 l 832 903 l 728 0 l 481 0 l 440 247 q 427 338 433 292 q 419 424 421 383 l 415 424 q 407 338 413 383 q 394 247 401 292 l 357 0 l 115 0 l 3 903 m 489 972 l 300 972 l 408 1144 l 658 1144 l 489 972 z "},"Ŵ":{"ha":833,"x_min":3,"x_max":832,"o":"m 3 903 l 247 903 l 258 456 l 258 222 l 264 222 q 285 339 272 281 q 308 456 297 397 l 358 675 l 497 675 l 543 456 q 565 342 553 400 q 588 222 578 283 l 593 222 l 593 456 l 604 903 l 832 903 l 728 0 l 481 0 l 440 247 q 427 338 433 292 q 419 424 421 383 l 415 424 q 407 338 413 383 q 394 247 401 292 l 357 0 l 115 0 l 3 903 m 167 972 l 300 1144 l 533 1144 l 667 972 l 486 972 l 419 1053 l 414 1053 l 347 972 l 167 972 z "},"Ẅ":{"ha":833,"x_min":3,"x_max":832,"o":"m 3 903 l 247 903 l 258 456 l 258 222 l 264 222 q 285 339 272 281 q 308 456 297 397 l 358 675 l 497 675 l 543 456 q 565 342 553 400 q 588 222 578 283 l 593 222 l 593 456 l 604 903 l 832 903 l 728 0 l 481 0 l 440 247 q 427 338 433 292 q 419 424 421 383 l 415 424 q 407 338 413 383 q 394 247 401 292 l 357 0 l 115 0 l 3 903 m 272 964 q 194 995 224 964 q 164 1072 164 1026 q 194 1149 164 1118 q 272 1181 224 1181 q 351 1149 321 1181 q 381 1072 381 1118 q 351 995 381 1026 q 272 964 321 964 m 561 964 q 483 995 513 964 q 453 1072 453 1026 q 483 1149 453 1118 q 561 1181 513 1181 q 640 1149 610 1181 q 669 1072 669 1118 q 640 995 669 1026 q 561 964 610 964 z "},"Ỳ":{"ha":833,"x_min":11,"x_max":822,"o":"m 297 299 l 11 903 l 267 903 l 342 706 q 378 603 360 653 q 415 500 396 554 l 421 500 q 459 603 440 554 q 497 706 478 653 l 572 903 l 822 903 l 536 299 l 536 0 l 297 0 l 297 299 m 175 1144 l 425 1144 l 533 972 l 344 972 l 175 1144 z "},"Ý":{"ha":833,"x_min":11,"x_max":822,"o":"m 297 299 l 11 903 l 267 903 l 342 706 q 378 603 360 653 q 415 500 396 554 l 421 500 q 459 603 440 554 q 497 706 478 653 l 572 903 l 822 903 l 536 299 l 536 0 l 297 0 l 297 299 m 489 972 l 300 972 l 408 1144 l 658 1144 l 489 972 z "},"Ŷ":{"ha":833,"x_min":11,"x_max":822,"o":"m 297 299 l 11 903 l 267 903 l 342 706 q 378 603 360 653 q 415 500 396 554 l 421 500 q 459 603 440 554 q 497 706 478 653 l 572 903 l 822 903 l 536 299 l 536 0 l 297 0 l 297 299 m 167 972 l 300 1144 l 533 1144 l 667 972 l 486 972 l 419 1053 l 414 1053 l 347 972 l 167 972 z "},"Ÿ":{"ha":833,"x_min":11,"x_max":822,"o":"m 297 299 l 11 903 l 267 903 l 342 706 q 378 603 360 653 q 415 500 396 554 l 421 500 q 459 603 440 554 q 497 706 478 653 l 572 903 l 822 903 l 536 299 l 536 0 l 297 0 l 297 299 m 272 964 q 194 995 224 964 q 164 1072 164 1026 q 194 1149 164 1118 q 272 1181 224 1181 q 351 1149 321 1181 q 381 1072 381 1118 q 351 995 381 1026 q 272 964 321 964 m 561 964 q 483 995 513 964 q 453 1072 453 1026 q 483 1149 453 1118 q 561 1181 513 1181 q 640 1149 610 1181 q 669 1072 669 1118 q 640 995 669 1026 q 561 964 610 964 z "},"Ẏ":{"ha":833,"x_min":11,"x_max":822,"o":"m 297 299 l 11 903 l 267 903 l 342 706 q 378 603 360 653 q 415 500 396 554 l 421 500 q 459 603 440 554 q 497 706 478 653 l 572 903 l 822 903 l 536 299 l 536 0 l 297 0 l 297 299 m 417 967 q 321 1000 358 967 q 283 1086 283 1033 q 321 1172 283 1139 q 417 1206 358 1206 q 513 1172 475 1206 q 550 1086 550 1139 q 513 1000 550 1033 q 417 967 475 967 z "},"Ỵ":{"ha":833,"x_min":11,"x_max":822,"o":"m 297 299 l 11 903 l 267 903 l 342 706 q 378 603 360 653 q 415 500 396 554 l 421 500 q 459 603 440 554 q 497 706 478 653 l 572 903 l 822 903 l 536 299 l 536 0 l 297 0 l 297 299 m 417 -367 q 307 -328 350 -367 q 264 -228 264 -290 q 307 -126 264 -165 q 417 -86 350 -86 q 526 -126 483 -86 q 569 -228 569 -165 q 526 -328 569 -290 q 417 -367 483 -367 z "},"Ỷ":{"ha":833,"x_min":11,"x_max":822,"o":"m 297 299 l 11 903 l 267 903 l 342 706 q 378 603 360 653 q 415 500 396 554 l 421 500 q 459 603 440 554 q 497 706 478 653 l 572 903 l 822 903 l 536 299 l 536 0 l 297 0 l 297 299 m 347 1047 q 387 1057 371 1050 q 403 1081 403 1064 q 379 1108 403 1097 q 294 1122 356 1118 l 322 1239 q 442 1226 394 1236 q 519 1198 490 1215 q 560 1157 549 1181 q 572 1106 572 1133 q 556 1041 572 1068 q 510 995 539 1014 q 444 967 482 976 q 364 956 407 957 l 347 1047 z "},"Ỹ":{"ha":833,"x_min":11,"x_max":822,"o":"m 297 299 l 11 903 l 267 903 l 342 706 q 378 603 360 653 q 415 500 396 554 l 421 500 q 459 603 440 554 q 497 706 478 653 l 572 903 l 822 903 l 536 299 l 536 0 l 297 0 l 297 299 m 506 972 q 453 981 478 972 q 408 1001 429 990 q 370 1022 388 1013 q 339 1031 353 1031 q 308 1018 322 1031 q 286 972 294 1006 l 167 972 q 225 1126 179 1078 q 328 1175 271 1175 q 380 1166 356 1175 q 425 1146 404 1157 q 463 1126 446 1135 q 494 1117 479 1117 q 525 1129 511 1117 q 547 1175 539 1142 l 667 1175 q 644 1084 660 1122 q 608 1021 629 1046 q 560 984 586 996 q 506 972 533 972 z "},"Ź":{"ha":833,"x_min":74,"x_max":764,"o":"m 74 144 l 465 703 l 111 703 l 111 903 l 760 903 l 760 758 l 368 200 l 764 200 l 764 0 l 74 0 l 74 144 m 508 972 l 319 972 l 428 1144 l 678 1144 l 508 972 z "},"Ž":{"ha":833,"x_min":74,"x_max":764,"o":"m 74 144 l 465 703 l 111 703 l 111 903 l 760 903 l 760 758 l 368 200 l 764 200 l 764 0 l 74 0 l 74 144 m 686 1144 l 553 972 l 319 972 l 186 1144 l 367 1144 l 433 1064 l 439 1064 l 506 1144 l 686 1144 z "},"Ż":{"ha":833,"x_min":74,"x_max":764,"o":"m 74 144 l 465 703 l 111 703 l 111 903 l 760 903 l 760 758 l 368 200 l 764 200 l 764 0 l 74 0 l 74 144 m 436 967 q 340 1000 378 967 q 303 1086 303 1033 q 340 1172 303 1139 q 436 1206 378 1206 q 532 1172 494 1206 q 569 1086 569 1139 q 532 1000 569 1033 q 436 967 494 967 z "},"Ẓ":{"ha":833,"x_min":74,"x_max":764,"o":"m 74 144 l 465 703 l 111 703 l 111 903 l 760 903 l 760 758 l 368 200 l 764 200 l 764 0 l 74 0 l 74 144 m 431 -367 q 321 -328 364 -367 q 278 -228 278 -290 q 321 -126 278 -165 q 431 -86 364 -86 q 540 -126 497 -86 q 583 -228 583 -165 q 540 -328 583 -290 q 431 -367 497 -367 z "},"Ð":{"ha":833,"x_min":-6,"x_max":783,"o":"m 89 408 l -6 408 l -6 511 l 89 519 l 89 903 l 344 903 q 521 878 440 903 q 660 799 601 853 q 751 660 718 744 q 783 456 783 575 q 751 250 783 336 q 661 108 718 164 q 526 26 604 53 q 358 0 449 0 l 89 0 l 89 408 m 331 192 q 411 203 374 192 q 477 244 449 215 q 522 325 506 274 q 539 456 539 376 q 522 585 539 535 q 477 663 506 635 q 411 701 449 690 q 331 711 374 711 l 328 711 l 328 519 l 458 519 l 458 408 l 328 408 l 328 192 l 331 192 z "},"Þ":{"ha":833,"x_min":86,"x_max":797,"o":"m 86 903 l 325 903 l 325 772 l 436 772 q 574 758 508 772 q 690 708 640 743 q 768 615 739 672 q 797 472 797 557 q 767 329 797 389 q 688 231 738 269 q 572 174 638 193 q 436 156 507 156 l 325 156 l 325 0 l 86 0 l 86 903 m 425 344 q 530 378 496 344 q 564 472 564 411 q 528 558 564 533 q 425 583 492 583 l 325 583 l 325 344 l 425 344 z "},"Ə":{"ha":833,"x_min":78,"x_max":783,"o":"m 322 356 q 358 227 329 268 q 431 186 386 186 q 501 228 471 186 q 542 356 531 271 l 322 356 m 169 819 q 282 892 218 864 q 436 919 346 919 q 576 888 513 919 q 686 797 640 857 q 758 651 732 738 q 783 453 783 564 q 758 254 783 342 q 685 106 732 167 q 574 15 639 46 q 431 -17 508 -17 q 288 14 353 -17 q 176 103 222 44 q 103 249 129 163 q 78 447 78 336 q 79 487 78 467 q 83 528 81 507 l 544 528 q 406 717 526 717 q 329 698 361 717 q 272 656 297 679 l 169 819 z "},"à":{"ha":833,"x_min":75,"x_max":753,"o":"m 75 197 q 99 300 75 256 q 176 376 124 344 q 311 425 228 407 q 514 450 394 443 q 473 505 507 488 q 381 522 439 522 q 290 508 336 522 q 181 464 243 493 l 97 619 q 258 688 176 664 q 428 711 340 711 q 562 692 501 711 q 665 634 622 674 q 730 533 707 594 q 753 386 753 471 l 753 0 l 558 0 l 542 72 l 536 72 q 425 9 485 35 q 300 -17 365 -17 q 204 1 246 -17 q 133 47 163 18 q 90 115 104 76 q 75 197 75 154 m 303 217 q 378 167 303 167 q 453 183 419 167 q 514 219 486 199 l 514 308 q 409 298 450 306 q 344 278 368 290 q 312 250 321 265 q 303 217 303 235 m 183 1039 l 425 1039 l 547 797 l 375 797 l 183 1039 z "},"á":{"ha":833,"x_min":75,"x_max":753,"o":"m 75 197 q 99 300 75 256 q 176 376 124 344 q 311 425 228 407 q 514 450 394 443 q 473 505 507 488 q 381 522 439 522 q 290 508 336 522 q 181 464 243 493 l 97 619 q 258 688 176 664 q 428 711 340 711 q 562 692 501 711 q 665 634 622 674 q 730 533 707 594 q 753 386 753 471 l 753 0 l 558 0 l 542 72 l 536 72 q 425 9 485 35 q 300 -17 365 -17 q 204 1 246 -17 q 133 47 163 18 q 90 115 104 76 q 75 197 75 154 m 303 217 q 378 167 303 167 q 453 183 419 167 q 514 219 486 199 l 514 308 q 409 298 450 306 q 344 278 368 290 q 312 250 321 265 q 303 217 303 235 m 475 797 l 303 797 l 425 1039 l 667 1039 l 475 797 z "},"â":{"ha":833,"x_min":75,"x_max":753,"o":"m 75 197 q 99 300 75 256 q 176 376 124 344 q 311 425 228 407 q 514 450 394 443 q 473 505 507 488 q 381 522 439 522 q 290 508 336 522 q 181 464 243 493 l 97 619 q 258 688 176 664 q 428 711 340 711 q 562 692 501 711 q 665 634 622 674 q 730 533 707 594 q 753 386 753 471 l 753 0 l 558 0 l 542 72 l 536 72 q 425 9 485 35 q 300 -17 365 -17 q 204 1 246 -17 q 133 47 163 18 q 90 115 104 76 q 75 197 75 154 m 303 217 q 378 167 303 167 q 453 183 419 167 q 514 219 486 199 l 514 308 q 409 298 450 306 q 344 278 368 290 q 312 250 321 265 q 303 217 303 235 m 325 1039 l 525 1039 l 667 797 l 494 797 l 428 928 l 422 928 l 356 797 l 183 797 l 325 1039 z "},"ã":{"ha":833,"x_min":75,"x_max":753,"o":"m 75 197 q 99 300 75 256 q 176 376 124 344 q 311 425 228 407 q 514 450 394 443 q 473 505 507 488 q 381 522 439 522 q 290 508 336 522 q 181 464 243 493 l 97 619 q 258 688 176 664 q 428 711 340 711 q 562 692 501 711 q 665 634 622 674 q 730 533 707 594 q 753 386 753 471 l 753 0 l 558 0 l 542 72 l 536 72 q 425 9 485 35 q 300 -17 365 -17 q 204 1 246 -17 q 133 47 163 18 q 90 115 104 76 q 75 197 75 154 m 303 217 q 378 167 303 167 q 453 183 419 167 q 514 219 486 199 l 514 308 q 409 298 450 306 q 344 278 368 290 q 312 250 321 265 q 303 217 303 235 m 172 797 q 235 963 188 911 q 350 1014 283 1014 q 397 1003 375 1014 q 435 978 418 992 q 468 953 453 964 q 497 942 483 942 q 533 957 519 942 q 558 1014 547 972 l 678 1014 q 615 849 663 900 q 500 797 567 797 q 453 808 474 797 q 414 833 432 819 q 381 858 396 847 q 353 869 367 869 q 317 854 331 869 q 292 797 303 839 l 172 797 l 172 797 z "},"ä":{"ha":833,"x_min":75,"x_max":753,"o":"m 75 197 q 99 300 75 256 q 176 376 124 344 q 311 425 228 407 q 514 450 394 443 q 473 505 507 488 q 381 522 439 522 q 290 508 336 522 q 181 464 243 493 l 97 619 q 258 688 176 664 q 428 711 340 711 q 562 692 501 711 q 665 634 622 674 q 730 533 707 594 q 753 386 753 471 l 753 0 l 558 0 l 542 72 l 536 72 q 425 9 485 35 q 300 -17 365 -17 q 204 1 246 -17 q 133 47 163 18 q 90 115 104 76 q 75 197 75 154 m 303 217 q 378 167 303 167 q 453 183 419 167 q 514 219 486 199 l 514 308 q 409 298 450 306 q 344 278 368 290 q 312 250 321 265 q 303 217 303 235 m 267 783 q 178 818 213 783 q 144 906 144 853 q 178 993 144 958 q 267 1028 213 1028 q 355 993 321 1028 q 389 906 389 958 q 355 818 389 853 q 267 783 321 783 m 583 783 q 495 818 529 783 q 461 906 461 853 q 495 993 461 958 q 583 1028 529 1028 q 672 993 638 1028 q 706 906 706 958 q 672 818 706 853 q 583 783 638 783 z "},"ā":{"ha":833,"x_min":75,"x_max":753,"o":"m 75 197 q 99 300 75 256 q 176 376 124 344 q 311 425 228 407 q 514 450 394 443 q 473 505 507 488 q 381 522 439 522 q 290 508 336 522 q 181 464 243 493 l 97 619 q 258 688 176 664 q 428 711 340 711 q 562 692 501 711 q 665 634 622 674 q 730 533 707 594 q 753 386 753 471 l 753 0 l 558 0 l 542 72 l 536 72 q 425 9 485 35 q 300 -17 365 -17 q 204 1 246 -17 q 133 47 163 18 q 90 115 104 76 q 75 197 75 154 m 303 217 q 378 167 303 167 q 453 183 419 167 q 514 219 486 199 l 514 308 q 409 298 450 306 q 344 278 368 290 q 312 250 321 265 q 303 217 303 235 m 225 967 l 625 967 l 625 817 l 225 817 l 225 967 z "},"ă":{"ha":833,"x_min":75,"x_max":753,"o":"m 75 197 q 99 300 75 256 q 176 376 124 344 q 311 425 228 407 q 514 450 394 443 q 473 505 507 488 q 381 522 439 522 q 290 508 336 522 q 181 464 243 493 l 97 619 q 258 688 176 664 q 428 711 340 711 q 562 692 501 711 q 665 634 622 674 q 730 533 707 594 q 753 386 753 471 l 753 0 l 558 0 l 542 72 l 536 72 q 425 9 485 35 q 300 -17 365 -17 q 204 1 246 -17 q 133 47 163 18 q 90 115 104 76 q 75 197 75 154 m 303 217 q 378 167 303 167 q 453 183 419 167 q 514 219 486 199 l 514 308 q 409 298 450 306 q 344 278 368 290 q 312 250 321 265 q 303 217 303 235 m 425 797 q 331 815 371 797 q 265 865 292 833 q 226 938 239 896 q 211 1025 213 979 l 342 1025 q 367 953 347 981 q 425 925 386 925 q 483 953 464 925 q 508 1025 503 981 l 639 1025 q 624 938 638 979 q 585 865 611 896 q 519 815 558 833 q 425 797 479 797 z "},"å":{"ha":833,"x_min":75,"x_max":753,"o":"m 75 197 q 99 300 75 256 q 176 376 124 344 q 311 425 228 407 q 514 450 394 443 q 473 505 507 488 q 381 522 439 522 q 290 508 336 522 q 181 464 243 493 l 97 619 q 258 688 176 664 q 428 711 340 711 q 562 692 501 711 q 665 634 622 674 q 730 533 707 594 q 753 386 753 471 l 753 0 l 558 0 l 542 72 l 536 72 q 425 9 485 35 q 300 -17 365 -17 q 204 1 246 -17 q 133 47 163 18 q 90 115 104 76 q 75 197 75 154 m 303 217 q 378 167 303 167 q 453 183 419 167 q 514 219 486 199 l 514 308 q 409 298 450 306 q 344 278 368 290 q 312 250 321 265 q 303 217 303 235 m 425 764 q 304 804 350 764 q 258 911 258 844 q 304 1018 258 978 q 425 1058 350 1058 q 546 1018 500 1058 q 592 911 592 978 q 546 804 592 844 q 425 764 500 764 m 425 850 q 463 867 447 850 q 478 911 478 883 q 463 956 478 939 q 425 972 447 972 q 388 956 403 972 q 372 911 372 939 q 388 867 372 883 q 425 850 403 850 z "},"ǎ":{"ha":833,"x_min":75,"x_max":753,"o":"m 75 197 q 99 300 75 256 q 176 376 124 344 q 311 425 228 407 q 514 450 394 443 q 473 505 507 488 q 381 522 439 522 q 290 508 336 522 q 181 464 243 493 l 97 619 q 258 688 176 664 q 428 711 340 711 q 562 692 501 711 q 665 634 622 674 q 730 533 707 594 q 753 386 753 471 l 753 0 l 558 0 l 542 72 l 536 72 q 425 9 485 35 q 300 -17 365 -17 q 204 1 246 -17 q 133 47 163 18 q 90 115 104 76 q 75 197 75 154 m 303 217 q 378 167 303 167 q 453 183 419 167 q 514 219 486 199 l 514 308 q 409 298 450 306 q 344 278 368 290 q 312 250 321 265 q 303 217 303 235 m 183 1039 l 356 1039 l 422 908 l 428 908 l 494 1039 l 667 1039 l 525 797 l 325 797 l 183 1039 z "},"ạ":{"ha":833,"x_min":75,"x_max":753,"o":"m 75 197 q 99 300 75 256 q 176 376 124 344 q 311 425 228 407 q 514 450 394 443 q 473 505 507 488 q 381 522 439 522 q 290 508 336 522 q 181 464 243 493 l 97 619 q 258 688 176 664 q 428 711 340 711 q 562 692 501 711 q 665 634 622 674 q 730 533 707 594 q 753 386 753 471 l 753 0 l 558 0 l 542 72 l 536 72 q 425 9 485 35 q 300 -17 365 -17 q 204 1 246 -17 q 133 47 163 18 q 90 115 104 76 q 75 197 75 154 m 303 217 q 378 167 303 167 q 453 183 419 167 q 514 219 486 199 l 514 308 q 409 298 450 306 q 344 278 368 290 q 312 250 321 265 q 303 217 303 235 m 433 -367 q 324 -328 367 -367 q 281 -228 281 -290 q 324 -126 281 -165 q 433 -86 367 -86 q 543 -126 500 -86 q 586 -228 586 -165 q 543 -328 586 -290 q 433 -367 500 -367 z "},"ả":{"ha":833,"x_min":75,"x_max":753,"o":"m 75 197 q 99 300 75 256 q 176 376 124 344 q 311 425 228 407 q 514 450 394 443 q 473 505 507 488 q 381 522 439 522 q 290 508 336 522 q 181 464 243 493 l 97 619 q 258 688 176 664 q 428 711 340 711 q 562 692 501 711 q 665 634 622 674 q 730 533 707 594 q 753 386 753 471 l 753 0 l 558 0 l 542 72 l 536 72 q 425 9 485 35 q 300 -17 365 -17 q 204 1 246 -17 q 133 47 163 18 q 90 115 104 76 q 75 197 75 154 m 303 217 q 378 167 303 167 q 453 183 419 167 q 514 219 486 199 l 514 308 q 409 298 450 306 q 344 278 368 290 q 312 250 321 265 q 303 217 303 235 m 356 867 q 395 876 379 869 q 411 900 411 883 q 388 927 411 917 q 303 942 364 938 l 331 1058 q 451 1045 403 1056 q 528 1017 499 1035 q 569 976 557 1000 q 581 925 581 953 q 564 860 581 888 q 519 815 547 833 q 453 786 490 796 q 372 775 415 776 l 356 867 z "},"ấ":{"ha":833,"x_min":75,"x_max":847,"o":"m 75 197 q 99 300 75 256 q 176 376 124 344 q 311 425 228 407 q 514 450 394 443 q 473 505 507 488 q 381 522 439 522 q 290 508 336 522 q 181 464 243 493 l 97 619 q 258 688 176 664 q 428 711 340 711 q 562 692 501 711 q 665 634 622 674 q 730 533 707 594 q 753 386 753 471 l 753 0 l 558 0 l 542 72 l 536 72 q 425 9 485 35 q 300 -17 365 -17 q 204 1 246 -17 q 133 47 163 18 q 90 115 104 76 q 75 197 75 154 m 303 217 q 378 167 303 167 q 453 183 419 167 q 514 219 486 199 l 514 308 q 409 298 450 306 q 344 278 368 290 q 312 250 321 265 q 303 217 303 235 m 331 981 l 519 981 l 631 797 l 486 797 l 428 883 l 422 883 l 364 797 l 219 797 l 331 981 m 675 1067 l 847 1067 l 714 900 l 583 900 l 675 1067 z "},"ầ":{"ha":833,"x_min":75,"x_max":797,"o":"m 75 197 q 99 300 75 256 q 176 376 124 344 q 311 425 228 407 q 514 450 394 443 q 473 505 507 488 q 381 522 439 522 q 290 508 336 522 q 181 464 243 493 l 97 619 q 258 688 176 664 q 428 711 340 711 q 562 692 501 711 q 665 634 622 674 q 730 533 707 594 q 753 386 753 471 l 753 0 l 558 0 l 542 72 l 536 72 q 425 9 485 35 q 300 -17 365 -17 q 204 1 246 -17 q 133 47 163 18 q 90 115 104 76 q 75 197 75 154 m 303 217 q 378 167 303 167 q 453 183 419 167 q 514 219 486 199 l 514 308 q 409 298 450 306 q 344 278 368 290 q 312 250 321 265 q 303 217 303 235 m 331 981 l 519 981 l 631 797 l 486 797 l 428 883 l 422 883 l 364 797 l 219 797 l 331 981 m 797 900 l 667 900 l 533 1067 l 706 1067 l 797 900 z "},"ẩ":{"ha":833,"x_min":75,"x_max":803,"o":"m 75 197 q 99 300 75 256 q 176 376 124 344 q 311 425 228 407 q 514 450 394 443 q 473 505 507 488 q 381 522 439 522 q 290 508 336 522 q 181 464 243 493 l 97 619 q 258 688 176 664 q 428 711 340 711 q 562 692 501 711 q 665 634 622 674 q 730 533 707 594 q 753 386 753 471 l 753 0 l 558 0 l 542 72 l 536 72 q 425 9 485 35 q 300 -17 365 -17 q 204 1 246 -17 q 133 47 163 18 q 90 115 104 76 q 75 197 75 154 m 303 217 q 378 167 303 167 q 453 183 419 167 q 514 219 486 199 l 514 308 q 409 298 450 306 q 344 278 368 290 q 312 250 321 265 q 303 217 303 235 m 331 981 l 519 981 l 631 797 l 486 797 l 428 883 l 422 883 l 364 797 l 219 797 l 331 981 m 614 950 q 640 960 631 953 q 650 983 650 967 q 632 1010 650 1000 q 561 1025 614 1021 l 583 1122 q 690 1110 647 1119 q 757 1087 732 1101 q 792 1052 782 1072 q 803 1008 803 1032 q 789 948 803 972 q 751 908 775 924 q 696 885 728 893 q 628 872 664 876 l 614 950 z "},"ẫ":{"ha":833,"x_min":75,"x_max":753,"o":"m 75 197 q 99 300 75 256 q 176 376 124 344 q 311 425 228 407 q 514 450 394 443 q 473 505 507 488 q 381 522 439 522 q 290 508 336 522 q 181 464 243 493 l 97 619 q 258 688 176 664 q 428 711 340 711 q 562 692 501 711 q 665 634 622 674 q 730 533 707 594 q 753 386 753 471 l 753 0 l 558 0 l 542 72 l 536 72 q 425 9 485 35 q 300 -17 365 -17 q 204 1 246 -17 q 133 47 163 18 q 90 115 104 76 q 75 197 75 154 m 303 217 q 378 167 303 167 q 453 183 419 167 q 514 219 486 199 l 514 308 q 409 298 450 306 q 344 278 368 290 q 312 250 321 265 q 303 217 303 235 m 317 956 l 533 956 l 642 797 l 489 797 l 428 875 l 422 875 l 361 797 l 208 797 l 317 956 m 214 1006 q 263 1136 225 1097 q 347 1175 301 1175 q 396 1167 375 1175 q 433 1150 417 1160 q 462 1133 449 1140 q 489 1125 475 1125 q 517 1136 506 1125 q 536 1175 529 1147 l 636 1175 q 587 1044 625 1083 q 503 1006 549 1006 q 454 1013 475 1006 q 417 1031 433 1021 q 388 1048 401 1040 q 361 1056 375 1056 q 333 1044 344 1056 q 314 1006 321 1033 l 214 1006 z "},"ậ":{"ha":833,"x_min":75,"x_max":753,"o":"m 75 197 q 99 300 75 256 q 176 376 124 344 q 311 425 228 407 q 514 450 394 443 q 473 505 507 488 q 381 522 439 522 q 290 508 336 522 q 181 464 243 493 l 97 619 q 258 688 176 664 q 428 711 340 711 q 562 692 501 711 q 665 634 622 674 q 730 533 707 594 q 753 386 753 471 l 753 0 l 558 0 l 542 72 l 536 72 q 425 9 485 35 q 300 -17 365 -17 q 204 1 246 -17 q 133 47 163 18 q 90 115 104 76 q 75 197 75 154 m 303 217 q 378 167 303 167 q 453 183 419 167 q 514 219 486 199 l 514 308 q 409 298 450 306 q 344 278 368 290 q 312 250 321 265 q 303 217 303 235 m 325 1039 l 525 1039 l 667 797 l 494 797 l 428 928 l 422 928 l 356 797 l 183 797 l 325 1039 m 433 -367 q 324 -328 367 -367 q 281 -228 281 -290 q 324 -126 281 -165 q 433 -86 367 -86 q 543 -126 500 -86 q 586 -228 586 -165 q 543 -328 586 -290 q 433 -367 500 -367 z "},"ắ":{"ha":833,"x_min":75,"x_max":753,"o":"m 75 197 q 99 300 75 256 q 176 376 124 344 q 311 425 228 407 q 514 450 394 443 q 473 505 507 488 q 381 522 439 522 q 290 508 336 522 q 181 464 243 493 l 97 619 q 258 688 176 664 q 428 711 340 711 q 562 692 501 711 q 665 634 622 674 q 730 533 707 594 q 753 386 753 471 l 753 0 l 558 0 l 542 72 l 536 72 q 425 9 485 35 q 300 -17 365 -17 q 204 1 246 -17 q 133 47 163 18 q 90 115 104 76 q 75 197 75 154 m 303 217 q 378 167 303 167 q 453 183 419 167 q 514 219 486 199 l 514 308 q 409 298 450 306 q 344 278 368 290 q 312 250 321 265 q 303 217 303 235 m 431 1136 l 597 1136 l 472 969 l 356 969 l 431 1136 m 425 797 q 338 813 375 797 q 276 856 301 829 q 239 920 251 883 q 225 997 226 957 l 328 997 q 358 935 335 960 q 425 911 381 911 q 492 935 469 911 q 522 997 515 960 l 625 997 q 611 920 624 957 q 574 856 599 883 q 512 813 549 829 q 425 797 475 797 z "},"ằ":{"ha":833,"x_min":75,"x_max":753,"o":"m 75 197 q 99 300 75 256 q 176 376 124 344 q 311 425 228 407 q 514 450 394 443 q 473 505 507 488 q 381 522 439 522 q 290 508 336 522 q 181 464 243 493 l 97 619 q 258 688 176 664 q 428 711 340 711 q 562 692 501 711 q 665 634 622 674 q 730 533 707 594 q 753 386 753 471 l 753 0 l 558 0 l 542 72 l 536 72 q 425 9 485 35 q 300 -17 365 -17 q 204 1 246 -17 q 133 47 163 18 q 90 115 104 76 q 75 197 75 154 m 303 217 q 378 167 303 167 q 453 183 419 167 q 514 219 486 199 l 514 308 q 409 298 450 306 q 344 278 368 290 q 312 250 321 265 q 303 217 303 235 m 494 969 l 378 969 l 253 1136 l 419 1136 l 494 969 m 425 797 q 338 813 375 797 q 276 856 301 829 q 239 920 251 883 q 225 997 226 957 l 328 997 q 358 935 335 960 q 425 911 381 911 q 492 935 469 911 q 522 997 515 960 l 625 997 q 611 920 624 957 q 574 856 599 883 q 512 813 549 829 q 425 797 475 797 z "},"ẳ":{"ha":833,"x_min":75,"x_max":753,"o":"m 75 197 q 99 300 75 256 q 176 376 124 344 q 311 425 228 407 q 514 450 394 443 q 473 505 507 488 q 381 522 439 522 q 290 508 336 522 q 181 464 243 493 l 97 619 q 258 688 176 664 q 428 711 340 711 q 562 692 501 711 q 665 634 622 674 q 730 533 707 594 q 753 386 753 471 l 753 0 l 558 0 l 542 72 l 536 72 q 425 9 485 35 q 300 -17 365 -17 q 204 1 246 -17 q 133 47 163 18 q 90 115 104 76 q 75 197 75 154 m 303 217 q 378 167 303 167 q 453 183 419 167 q 514 219 486 199 l 514 308 q 409 298 450 306 q 344 278 368 290 q 312 250 321 265 q 303 217 303 235 m 425 797 q 338 813 375 797 q 276 856 301 829 q 239 920 251 883 q 225 997 226 957 l 328 997 q 358 935 335 960 q 425 911 381 911 q 492 935 469 911 q 522 997 515 960 l 625 997 q 611 920 624 957 q 574 856 599 883 q 512 813 549 829 q 425 797 475 797 m 358 1054 q 385 1064 375 1057 q 394 1088 394 1071 q 376 1115 394 1104 q 306 1129 358 1125 l 328 1226 q 434 1215 392 1224 q 501 1191 476 1206 q 537 1156 526 1176 q 547 1113 547 1136 q 533 1052 547 1076 q 496 1013 519 1028 q 440 989 472 997 q 372 976 408 981 l 358 1054 z "},"ẵ":{"ha":833,"x_min":75,"x_max":753,"o":"m 75 197 q 99 300 75 256 q 176 376 124 344 q 311 425 228 407 q 514 450 394 443 q 473 505 507 488 q 381 522 439 522 q 290 508 336 522 q 181 464 243 493 l 97 619 q 258 688 176 664 q 428 711 340 711 q 562 692 501 711 q 665 634 622 674 q 730 533 707 594 q 753 386 753 471 l 753 0 l 558 0 l 542 72 l 536 72 q 425 9 485 35 q 300 -17 365 -17 q 204 1 246 -17 q 133 47 163 18 q 90 115 104 76 q 75 197 75 154 m 303 217 q 378 167 303 167 q 453 183 419 167 q 514 219 486 199 l 514 308 q 409 298 450 306 q 344 278 368 290 q 312 250 321 265 q 303 217 303 235 m 425 797 q 276 848 325 797 q 225 969 226 899 l 333 969 q 360 925 340 944 q 425 906 381 906 q 490 925 469 906 q 517 969 510 944 l 625 969 q 611 902 624 933 q 574 848 599 871 q 512 811 549 825 q 425 797 475 797 m 214 1006 q 263 1136 225 1097 q 347 1175 301 1175 q 396 1167 375 1175 q 433 1150 417 1160 q 462 1133 449 1140 q 489 1125 475 1125 q 517 1136 506 1125 q 536 1175 529 1147 l 636 1175 q 587 1044 625 1083 q 503 1006 549 1006 q 454 1013 475 1006 q 417 1031 433 1021 q 388 1048 401 1040 q 361 1056 375 1056 q 333 1044 344 1056 q 314 1006 321 1033 l 214 1006 z "},"ặ":{"ha":833,"x_min":75,"x_max":753,"o":"m 75 197 q 99 300 75 256 q 176 376 124 344 q 311 425 228 407 q 514 450 394 443 q 473 505 507 488 q 381 522 439 522 q 290 508 336 522 q 181 464 243 493 l 97 619 q 258 688 176 664 q 428 711 340 711 q 562 692 501 711 q 665 634 622 674 q 730 533 707 594 q 753 386 753 471 l 753 0 l 558 0 l 542 72 l 536 72 q 425 9 485 35 q 300 -17 365 -17 q 204 1 246 -17 q 133 47 163 18 q 90 115 104 76 q 75 197 75 154 m 303 217 q 378 167 303 167 q 453 183 419 167 q 514 219 486 199 l 514 308 q 409 298 450 306 q 344 278 368 290 q 312 250 321 265 q 303 217 303 235 m 425 797 q 331 815 371 797 q 265 865 292 833 q 226 938 239 896 q 211 1025 213 979 l 342 1025 q 367 953 347 981 q 425 925 386 925 q 483 953 464 925 q 508 1025 503 981 l 639 1025 q 624 938 638 979 q 585 865 611 896 q 519 815 558 833 q 425 797 479 797 m 433 -367 q 324 -328 367 -367 q 281 -228 281 -290 q 324 -126 281 -165 q 433 -86 367 -86 q 543 -126 500 -86 q 586 -228 586 -165 q 543 -328 586 -290 q 433 -367 500 -367 z "},"ą":{"ha":833,"x_min":75,"x_max":781,"o":"m 75 197 q 99 300 75 256 q 176 376 124 344 q 311 425 228 407 q 514 450 394 443 q 473 505 507 488 q 381 522 439 522 q 290 508 336 522 q 181 464 243 493 l 97 619 q 258 688 176 664 q 428 711 340 711 q 562 692 501 711 q 665 634 622 674 q 730 533 707 594 q 753 386 753 471 l 753 0 q 656 -48 682 -17 q 631 -108 631 -79 q 648 -144 631 -133 q 686 -156 665 -156 q 712 -151 699 -156 q 733 -139 725 -146 l 781 -244 q 708 -281 751 -268 q 628 -294 664 -294 q 517 -262 563 -294 q 472 -164 472 -229 q 482 -107 472 -133 q 506 -60 492 -81 q 535 -26 521 -40 q 561 -6 550 -12 l 542 72 l 536 72 q 425 9 485 35 q 300 -17 365 -17 q 204 1 246 -17 q 133 47 163 18 q 90 115 104 76 q 75 197 75 154 m 303 217 q 378 167 303 167 q 453 183 419 167 q 514 219 486 199 l 514 308 q 409 298 450 306 q 344 278 368 290 q 312 250 321 265 q 303 217 303 235 z "},"æ":{"ha":833,"x_min":22,"x_max":821,"o":"m 22 197 q 96 363 22 306 q 322 451 169 419 q 302 505 317 488 q 258 522 288 522 q 197 511 233 522 q 122 478 160 500 l 39 633 q 158 691 101 671 q 272 711 214 711 q 368 688 331 711 q 431 622 406 664 q 505 690 467 668 q 601 711 543 711 q 697 684 656 711 q 765 610 738 657 q 807 501 793 564 q 821 369 821 439 q 817 313 821 338 q 811 275 814 288 l 511 275 q 556 193 526 217 q 622 169 585 169 q 669 176 646 169 q 719 203 692 183 l 800 50 q 706 0 758 17 q 614 -17 654 -17 q 489 10 539 -17 q 403 83 439 38 q 306 6 349 29 q 217 -17 263 -17 q 132 1 168 -17 q 72 47 96 18 q 35 115 47 76 q 22 197 22 154 m 633 419 q 622 498 633 465 q 579 531 611 531 q 535 506 556 531 q 508 419 515 481 l 633 419 m 235 217 q 283 167 235 167 q 313 174 299 167 q 340 194 328 182 q 329 238 333 214 q 322 282 325 261 l 319 308 q 255 272 275 296 q 235 217 235 247 z "},"ƀ":{"ha":833,"x_min":0,"x_max":775,"o":"m 328 211 q 374 185 350 192 q 422 178 399 178 q 464 186 444 178 q 498 213 483 194 q 522 264 513 232 q 531 342 531 296 q 505 455 531 421 q 428 489 479 489 q 376 478 400 489 q 328 439 353 467 l 328 211 m 322 614 q 406 665 360 647 q 499 683 451 683 q 613 659 561 683 q 700 591 664 635 q 756 485 736 547 q 775 346 775 422 q 750 191 775 258 q 684 78 725 124 q 590 8 643 32 q 479 -17 536 -17 q 386 6 432 -17 q 300 75 340 29 l 294 75 l 275 0 l 89 0 l 89 764 l 0 764 l 0 867 l 89 874 l 89 967 l 328 967 l 328 875 l 564 875 l 564 764 l 328 764 l 328 714 l 322 614 z "},"ç":{"ha":833,"x_min":86,"x_max":765,"o":"m 86 347 q 119 501 86 433 q 209 616 153 569 q 339 687 265 663 q 493 711 413 711 q 643 686 575 711 q 756 619 711 661 l 647 472 q 574 509 608 499 q 507 519 540 519 q 379 473 428 519 q 331 347 331 426 q 378 222 331 268 q 499 175 425 175 q 592 193 550 175 q 671 233 635 211 l 765 83 q 622 7 700 31 q 475 -17 544 -17 q 322 8 393 -17 q 198 78 250 32 q 116 193 146 125 q 86 347 86 261 m 408 6 l 544 6 l 519 -56 q 578 -92 556 -68 q 600 -161 600 -117 q 578 -226 600 -199 q 521 -272 557 -253 q 437 -300 485 -290 q 336 -311 389 -310 l 319 -219 q 399 -202 368 -215 q 431 -161 431 -189 q 416 -132 431 -146 q 353 -106 401 -118 l 408 6 z "},"ć":{"ha":833,"x_min":86,"x_max":765,"o":"m 86 347 q 119 501 86 433 q 209 616 153 569 q 339 687 265 663 q 493 711 413 711 q 643 686 575 711 q 756 619 711 661 l 647 472 q 574 509 608 499 q 507 519 540 519 q 379 473 428 519 q 331 347 331 426 q 378 222 331 268 q 499 175 425 175 q 592 193 550 175 q 671 233 635 211 l 765 83 q 622 7 700 31 q 475 -17 544 -17 q 322 8 393 -17 q 198 78 250 32 q 116 193 146 125 q 86 347 86 261 m 522 797 l 350 797 l 472 1039 l 714 1039 l 522 797 z "},"ĉ":{"ha":833,"x_min":86,"x_max":765,"o":"m 86 347 q 119 501 86 433 q 209 616 153 569 q 339 687 265 663 q 493 711 413 711 q 643 686 575 711 q 756 619 711 661 l 647 472 q 574 509 608 499 q 507 519 540 519 q 379 473 428 519 q 331 347 331 426 q 378 222 331 268 q 499 175 425 175 q 592 193 550 175 q 671 233 635 211 l 765 83 q 622 7 700 31 q 475 -17 544 -17 q 322 8 393 -17 q 198 78 250 32 q 116 193 146 125 q 86 347 86 261 m 372 1039 l 572 1039 l 714 797 l 542 797 l 475 928 l 469 928 l 403 797 l 231 797 l 372 1039 z "},"č":{"ha":833,"x_min":86,"x_max":765,"o":"m 86 347 q 119 501 86 433 q 209 616 153 569 q 339 687 265 663 q 493 711 413 711 q 643 686 575 711 q 756 619 711 661 l 647 472 q 574 509 608 499 q 507 519 540 519 q 379 473 428 519 q 331 347 331 426 q 378 222 331 268 q 499 175 425 175 q 592 193 550 175 q 671 233 635 211 l 765 83 q 622 7 700 31 q 475 -17 544 -17 q 322 8 393 -17 q 198 78 250 32 q 116 193 146 125 q 86 347 86 261 m 231 1039 l 403 1039 l 469 908 l 475 908 l 542 1039 l 714 1039 l 572 797 l 372 797 l 231 1039 z "},"ċ":{"ha":833,"x_min":86,"x_max":765,"o":"m 86 347 q 119 501 86 433 q 209 616 153 569 q 339 687 265 663 q 493 711 413 711 q 643 686 575 711 q 756 619 711 661 l 647 472 q 574 509 608 499 q 507 519 540 519 q 379 473 428 519 q 331 347 331 426 q 378 222 331 268 q 499 175 425 175 q 592 193 550 175 q 671 233 635 211 l 765 83 q 622 7 700 31 q 475 -17 544 -17 q 322 8 393 -17 q 198 78 250 32 q 116 193 146 125 q 86 347 86 261 m 472 781 q 363 819 406 781 q 319 919 319 857 q 363 1022 319 982 q 472 1061 406 1061 q 582 1022 539 1061 q 625 919 625 982 q 582 819 625 857 q 472 781 539 781 z "},"ď":{"ha":833,"x_min":22,"x_max":897,"o":"m 22 347 q 47 500 22 432 q 113 615 72 568 q 206 686 153 661 q 313 711 258 711 q 408 692 371 711 q 478 642 446 674 l 469 742 l 469 967 l 708 967 l 708 0 l 514 0 l 497 64 l 492 64 q 408 6 456 28 q 313 -17 360 -17 q 192 8 246 -17 q 101 81 139 33 q 43 195 64 128 q 22 347 22 263 m 267 350 q 295 217 267 256 q 375 178 324 178 q 427 188 404 178 q 469 228 450 199 l 469 483 q 426 510 449 503 q 378 517 403 517 q 300 479 333 517 q 267 350 267 442 m 756 761 l 747 1075 l 897 1075 l 894 972 l 856 761 l 756 761 z "},"ḍ":{"ha":833,"x_min":58,"x_max":744,"o":"m 58 347 q 83 500 58 432 q 149 615 108 568 q 242 686 189 661 q 349 711 294 711 q 444 692 407 711 q 514 642 482 674 l 506 742 l 506 967 l 744 967 l 744 0 l 550 0 l 533 64 l 528 64 q 444 6 492 28 q 349 -17 396 -17 q 228 8 282 -17 q 138 81 175 33 q 79 195 100 128 q 58 347 58 263 m 303 350 q 331 217 303 256 q 411 178 360 178 q 463 188 440 178 q 506 228 486 199 l 506 483 q 462 510 485 503 q 414 517 439 517 q 336 479 369 517 q 303 350 303 442 m 431 -367 q 321 -328 364 -367 q 278 -228 278 -290 q 321 -126 278 -165 q 431 -86 364 -86 q 540 -126 497 -86 q 583 -228 583 -165 q 540 -328 583 -290 q 431 -367 497 -367 z "},"ḏ":{"ha":833,"x_min":58,"x_max":744,"o":"m 58 347 q 83 500 58 432 q 149 615 108 568 q 242 686 189 661 q 349 711 294 711 q 444 692 407 711 q 514 642 482 674 l 506 742 l 506 967 l 744 967 l 744 0 l 550 0 l 533 64 l 528 64 q 444 6 492 28 q 349 -17 396 -17 q 228 8 282 -17 q 138 81 175 33 q 79 195 100 128 q 58 347 58 263 m 303 350 q 331 217 303 256 q 411 178 360 178 q 463 188 440 178 q 506 228 486 199 l 506 483 q 462 510 485 503 q 414 517 439 517 q 336 479 369 517 q 303 350 303 442 m 631 -272 l 231 -272 l 231 -122 l 631 -122 l 631 -272 z "},"đ":{"ha":833,"x_min":58,"x_max":833,"o":"m 506 456 q 463 481 485 474 q 418 489 440 489 q 337 455 371 489 q 303 336 303 421 q 331 213 303 249 q 411 178 360 178 q 463 188 440 178 q 506 228 486 199 l 506 456 m 833 772 l 744 765 l 744 0 l 550 0 l 533 64 l 528 64 q 444 6 492 28 q 349 -17 396 -17 q 228 8 282 -17 q 138 77 175 32 q 79 187 100 122 q 58 333 58 251 q 83 481 58 415 q 149 591 108 546 q 242 660 189 636 q 349 683 294 683 q 444 665 407 683 q 514 614 482 646 l 506 714 l 506 764 l 300 764 l 300 875 l 506 875 l 506 967 l 744 967 l 744 875 l 833 875 l 833 772 z "},"è":{"ha":833,"x_min":69,"x_max":764,"o":"m 69 347 q 100 500 69 432 q 181 615 131 568 q 298 686 232 661 q 433 711 364 711 q 577 685 515 711 q 681 613 639 658 q 743 506 722 567 q 764 375 764 444 q 760 315 764 343 q 754 275 757 288 l 314 275 q 336 222 319 243 q 377 188 353 200 q 431 169 401 175 q 492 164 460 164 q 573 174 533 164 q 658 206 613 185 l 736 64 q 599 3 674 24 q 458 -17 524 -17 q 305 8 376 -17 q 181 78 233 32 q 99 193 129 125 q 69 347 69 261 m 547 431 q 524 501 547 472 q 439 531 500 531 q 359 508 394 531 q 311 431 324 485 l 547 431 m 192 1039 l 433 1039 l 556 797 l 383 797 l 192 1039 z "},"é":{"ha":833,"x_min":69,"x_max":764,"o":"m 69 347 q 100 500 69 432 q 181 615 131 568 q 298 686 232 661 q 433 711 364 711 q 577 685 515 711 q 681 613 639 658 q 743 506 722 567 q 764 375 764 444 q 760 315 764 343 q 754 275 757 288 l 314 275 q 336 222 319 243 q 377 188 353 200 q 431 169 401 175 q 492 164 460 164 q 573 174 533 164 q 658 206 613 185 l 736 64 q 599 3 674 24 q 458 -17 524 -17 q 305 8 376 -17 q 181 78 233 32 q 99 193 129 125 q 69 347 69 261 m 547 431 q 524 501 547 472 q 439 531 500 531 q 359 508 394 531 q 311 431 324 485 l 547 431 m 483 797 l 311 797 l 433 1039 l 675 1039 l 483 797 z "},"ê":{"ha":833,"x_min":69,"x_max":764,"o":"m 69 347 q 100 500 69 432 q 181 615 131 568 q 298 686 232 661 q 433 711 364 711 q 577 685 515 711 q 681 613 639 658 q 743 506 722 567 q 764 375 764 444 q 760 315 764 343 q 754 275 757 288 l 314 275 q 336 222 319 243 q 377 188 353 200 q 431 169 401 175 q 492 164 460 164 q 573 174 533 164 q 658 206 613 185 l 736 64 q 599 3 674 24 q 458 -17 524 -17 q 305 8 376 -17 q 181 78 233 32 q 99 193 129 125 q 69 347 69 261 m 547 431 q 524 501 547 472 q 439 531 500 531 q 359 508 394 531 q 311 431 324 485 l 547 431 m 333 1039 l 533 1039 l 675 797 l 503 797 l 436 928 l 431 928 l 364 797 l 192 797 l 333 1039 z "},"ě":{"ha":833,"x_min":69,"x_max":764,"o":"m 69 347 q 100 500 69 432 q 181 615 131 568 q 298 686 232 661 q 433 711 364 711 q 577 685 515 711 q 681 613 639 658 q 743 506 722 567 q 764 375 764 444 q 760 315 764 343 q 754 275 757 288 l 314 275 q 336 222 319 243 q 377 188 353 200 q 431 169 401 175 q 492 164 460 164 q 573 174 533 164 q 658 206 613 185 l 736 64 q 599 3 674 24 q 458 -17 524 -17 q 305 8 376 -17 q 181 78 233 32 q 99 193 129 125 q 69 347 69 261 m 547 431 q 524 501 547 472 q 439 531 500 531 q 359 508 394 531 q 311 431 324 485 l 547 431 m 192 1039 l 364 1039 l 431 908 l 436 908 l 503 1039 l 675 1039 l 533 797 l 333 797 l 192 1039 z "},"ë":{"ha":833,"x_min":69,"x_max":764,"o":"m 69 347 q 100 500 69 432 q 181 615 131 568 q 298 686 232 661 q 433 711 364 711 q 577 685 515 711 q 681 613 639 658 q 743 506 722 567 q 764 375 764 444 q 760 315 764 343 q 754 275 757 288 l 314 275 q 336 222 319 243 q 377 188 353 200 q 431 169 401 175 q 492 164 460 164 q 573 174 533 164 q 658 206 613 185 l 736 64 q 599 3 674 24 q 458 -17 524 -17 q 305 8 376 -17 q 181 78 233 32 q 99 193 129 125 q 69 347 69 261 m 547 431 q 524 501 547 472 q 439 531 500 531 q 359 508 394 531 q 311 431 324 485 l 547 431 m 274 783 q 185 818 219 783 q 151 906 151 853 q 185 993 151 958 q 274 1028 219 1028 q 362 993 328 1028 q 396 906 396 958 q 362 818 396 853 q 274 783 328 783 m 590 783 q 502 818 536 783 q 468 906 468 853 q 502 993 468 958 q 590 1028 536 1028 q 678 993 644 1028 q 713 906 713 958 q 678 818 713 853 q 590 783 644 783 z "},"ē":{"ha":833,"x_min":69,"x_max":764,"o":"m 69 347 q 100 500 69 432 q 181 615 131 568 q 298 686 232 661 q 433 711 364 711 q 577 685 515 711 q 681 613 639 658 q 743 506 722 567 q 764 375 764 444 q 760 315 764 343 q 754 275 757 288 l 314 275 q 336 222 319 243 q 377 188 353 200 q 431 169 401 175 q 492 164 460 164 q 573 174 533 164 q 658 206 613 185 l 736 64 q 599 3 674 24 q 458 -17 524 -17 q 305 8 376 -17 q 181 78 233 32 q 99 193 129 125 q 69 347 69 261 m 547 431 q 524 501 547 472 q 439 531 500 531 q 359 508 394 531 q 311 431 324 485 l 547 431 m 233 967 l 633 967 l 633 817 l 233 817 l 233 967 z "},"ĕ":{"ha":833,"x_min":69,"x_max":764,"o":"m 69 347 q 100 500 69 432 q 181 615 131 568 q 298 686 232 661 q 433 711 364 711 q 577 685 515 711 q 681 613 639 658 q 743 506 722 567 q 764 375 764 444 q 760 315 764 343 q 754 275 757 288 l 314 275 q 336 222 319 243 q 377 188 353 200 q 431 169 401 175 q 492 164 460 164 q 573 174 533 164 q 658 206 613 185 l 736 64 q 599 3 674 24 q 458 -17 524 -17 q 305 8 376 -17 q 181 78 233 32 q 99 193 129 125 q 69 347 69 261 m 547 431 q 524 501 547 472 q 439 531 500 531 q 359 508 394 531 q 311 431 324 485 l 547 431 m 433 797 q 340 815 379 797 q 274 865 300 833 q 234 938 247 896 q 219 1025 221 979 l 350 1025 q 375 953 356 981 q 433 925 394 925 q 492 953 472 925 q 517 1025 511 981 l 647 1025 q 633 938 646 979 q 593 865 619 896 q 527 815 567 833 q 433 797 488 797 z "},"ė":{"ha":833,"x_min":69,"x_max":764,"o":"m 69 347 q 100 500 69 432 q 181 615 131 568 q 298 686 232 661 q 433 711 364 711 q 577 685 515 711 q 681 613 639 658 q 743 506 722 567 q 764 375 764 444 q 760 315 764 343 q 754 275 757 288 l 314 275 q 336 222 319 243 q 377 188 353 200 q 431 169 401 175 q 492 164 460 164 q 573 174 533 164 q 658 206 613 185 l 736 64 q 599 3 674 24 q 458 -17 524 -17 q 305 8 376 -17 q 181 78 233 32 q 99 193 129 125 q 69 347 69 261 m 547 431 q 524 501 547 472 q 439 531 500 531 q 359 508 394 531 q 311 431 324 485 l 547 431 m 433 781 q 324 819 367 781 q 281 919 281 857 q 324 1022 281 982 q 433 1061 367 1061 q 543 1022 500 1061 q 586 919 586 982 q 543 819 586 857 q 433 781 500 781 z "},"ẹ":{"ha":833,"x_min":69,"x_max":764,"o":"m 69 347 q 100 500 69 432 q 181 615 131 568 q 298 686 232 661 q 433 711 364 711 q 577 685 515 711 q 681 613 639 658 q 743 506 722 567 q 764 375 764 444 q 760 315 764 343 q 754 275 757 288 l 314 275 q 336 222 319 243 q 377 188 353 200 q 431 169 401 175 q 492 164 460 164 q 573 174 533 164 q 658 206 613 185 l 736 64 q 599 3 674 24 q 458 -17 524 -17 q 305 8 376 -17 q 181 78 233 32 q 99 193 129 125 q 69 347 69 261 m 547 431 q 524 501 547 472 q 439 531 500 531 q 359 508 394 531 q 311 431 324 485 l 547 431 m 433 -367 q 324 -328 367 -367 q 281 -228 281 -290 q 324 -126 281 -165 q 433 -86 367 -86 q 543 -126 500 -86 q 586 -228 586 -165 q 543 -328 586 -290 q 433 -367 500 -367 z "},"ẻ":{"ha":833,"x_min":69,"x_max":764,"o":"m 69 347 q 100 500 69 432 q 181 615 131 568 q 298 686 232 661 q 433 711 364 711 q 577 685 515 711 q 681 613 639 658 q 743 506 722 567 q 764 375 764 444 q 760 315 764 343 q 754 275 757 288 l 314 275 q 336 222 319 243 q 377 188 353 200 q 431 169 401 175 q 492 164 460 164 q 573 174 533 164 q 658 206 613 185 l 736 64 q 599 3 674 24 q 458 -17 524 -17 q 305 8 376 -17 q 181 78 233 32 q 99 193 129 125 q 69 347 69 261 m 547 431 q 524 501 547 472 q 439 531 500 531 q 359 508 394 531 q 311 431 324 485 l 547 431 m 364 867 q 403 876 388 869 q 419 900 419 883 q 396 927 419 917 q 311 942 372 938 l 339 1058 q 459 1045 411 1056 q 536 1017 507 1035 q 577 976 565 1000 q 589 925 589 953 q 572 860 589 888 q 527 815 556 833 q 461 786 499 796 q 381 775 424 776 l 364 867 z "},"ẽ":{"ha":833,"x_min":69,"x_max":764,"o":"m 69 347 q 100 500 69 432 q 181 615 131 568 q 298 686 232 661 q 433 711 364 711 q 577 685 515 711 q 681 613 639 658 q 743 506 722 567 q 764 375 764 444 q 760 315 764 343 q 754 275 757 288 l 314 275 q 336 222 319 243 q 377 188 353 200 q 431 169 401 175 q 492 164 460 164 q 573 174 533 164 q 658 206 613 185 l 736 64 q 599 3 674 24 q 458 -17 524 -17 q 305 8 376 -17 q 181 78 233 32 q 99 193 129 125 q 69 347 69 261 m 547 431 q 524 501 547 472 q 439 531 500 531 q 359 508 394 531 q 311 431 324 485 l 547 431 m 181 797 q 244 963 196 911 q 358 1014 292 1014 q 405 1003 383 1014 q 444 978 426 992 q 476 953 461 964 q 506 942 492 942 q 542 957 528 942 q 567 1014 556 972 l 686 1014 q 623 849 671 900 q 508 797 575 797 q 461 808 482 797 q 422 833 440 819 q 390 858 404 847 q 361 869 375 869 q 325 854 339 869 q 300 797 311 839 l 181 797 l 181 797 z "},"ế":{"ha":833,"x_min":69,"x_max":856,"o":"m 69 347 q 100 500 69 432 q 181 615 131 568 q 298 686 232 661 q 433 711 364 711 q 577 685 515 711 q 681 613 639 658 q 743 506 722 567 q 764 375 764 444 q 760 315 764 343 q 754 275 757 288 l 314 275 q 336 222 319 243 q 377 188 353 200 q 431 169 401 175 q 492 164 460 164 q 573 174 533 164 q 658 206 613 185 l 736 64 q 599 3 674 24 q 458 -17 524 -17 q 305 8 376 -17 q 181 78 233 32 q 99 193 129 125 q 69 347 69 261 m 547 431 q 524 501 547 472 q 439 531 500 531 q 359 508 394 531 q 311 431 324 485 l 547 431 m 339 981 l 528 981 l 639 797 l 494 797 l 436 883 l 431 883 l 372 797 l 228 797 l 339 981 m 683 1067 l 856 1067 l 722 900 l 592 900 l 683 1067 z "},"ề":{"ha":833,"x_min":69,"x_max":806,"o":"m 69 347 q 100 500 69 432 q 181 615 131 568 q 298 686 232 661 q 433 711 364 711 q 577 685 515 711 q 681 613 639 658 q 743 506 722 567 q 764 375 764 444 q 760 315 764 343 q 754 275 757 288 l 314 275 q 336 222 319 243 q 377 188 353 200 q 431 169 401 175 q 492 164 460 164 q 573 174 533 164 q 658 206 613 185 l 736 64 q 599 3 674 24 q 458 -17 524 -17 q 305 8 376 -17 q 181 78 233 32 q 99 193 129 125 q 69 347 69 261 m 547 431 q 524 501 547 472 q 439 531 500 531 q 359 508 394 531 q 311 431 324 485 l 547 431 m 339 981 l 528 981 l 639 797 l 494 797 l 436 883 l 431 883 l 372 797 l 228 797 l 339 981 m 806 900 l 675 900 l 542 1067 l 714 1067 l 806 900 z "},"ể":{"ha":833,"x_min":69,"x_max":811,"o":"m 69 347 q 100 500 69 432 q 181 615 131 568 q 298 686 232 661 q 433 711 364 711 q 577 685 515 711 q 681 613 639 658 q 743 506 722 567 q 764 375 764 444 q 760 315 764 343 q 754 275 757 288 l 314 275 q 336 222 319 243 q 377 188 353 200 q 431 169 401 175 q 492 164 460 164 q 573 174 533 164 q 658 206 613 185 l 736 64 q 599 3 674 24 q 458 -17 524 -17 q 305 8 376 -17 q 181 78 233 32 q 99 193 129 125 q 69 347 69 261 m 547 431 q 524 501 547 472 q 439 531 500 531 q 359 508 394 531 q 311 431 324 485 l 547 431 m 339 981 l 528 981 l 639 797 l 494 797 l 436 883 l 431 883 l 372 797 l 228 797 l 339 981 m 622 950 q 649 960 639 953 q 658 983 658 967 q 640 1010 658 1000 q 569 1025 622 1021 l 592 1122 q 698 1110 656 1119 q 765 1087 740 1101 q 801 1052 790 1072 q 811 1008 811 1032 q 797 948 811 972 q 760 908 783 924 q 704 885 736 893 q 636 872 672 876 l 622 950 z "},"ễ":{"ha":833,"x_min":69,"x_max":764,"o":"m 69 347 q 100 500 69 432 q 181 615 131 568 q 298 686 232 661 q 433 711 364 711 q 577 685 515 711 q 681 613 639 658 q 743 506 722 567 q 764 375 764 444 q 760 315 764 343 q 754 275 757 288 l 314 275 q 336 222 319 243 q 377 188 353 200 q 431 169 401 175 q 492 164 460 164 q 573 174 533 164 q 658 206 613 185 l 736 64 q 599 3 674 24 q 458 -17 524 -17 q 305 8 376 -17 q 181 78 233 32 q 99 193 129 125 q 69 347 69 261 m 547 431 q 524 501 547 472 q 439 531 500 531 q 359 508 394 531 q 311 431 324 485 l 547 431 m 325 956 l 542 956 l 650 797 l 497 797 l 436 875 l 431 875 l 369 797 l 217 797 l 325 956 m 222 1006 q 272 1136 233 1097 q 356 1175 310 1175 q 404 1167 383 1175 q 441 1150 425 1160 q 470 1133 457 1140 q 497 1125 483 1125 q 526 1136 514 1125 q 544 1175 538 1147 l 644 1175 q 595 1044 633 1083 q 511 1006 557 1006 q 463 1013 483 1006 q 426 1031 442 1021 q 397 1048 410 1040 q 369 1056 383 1056 q 341 1044 353 1056 q 322 1006 329 1033 l 222 1006 z "},"ệ":{"ha":833,"x_min":69,"x_max":764,"o":"m 69 347 q 100 500 69 432 q 181 615 131 568 q 298 686 232 661 q 433 711 364 711 q 577 685 515 711 q 681 613 639 658 q 743 506 722 567 q 764 375 764 444 q 760 315 764 343 q 754 275 757 288 l 314 275 q 336 222 319 243 q 377 188 353 200 q 431 169 401 175 q 492 164 460 164 q 573 174 533 164 q 658 206 613 185 l 736 64 q 599 3 674 24 q 458 -17 524 -17 q 305 8 376 -17 q 181 78 233 32 q 99 193 129 125 q 69 347 69 261 m 547 431 q 524 501 547 472 q 439 531 500 531 q 359 508 394 531 q 311 431 324 485 l 547 431 m 333 1039 l 533 1039 l 675 797 l 503 797 l 436 928 l 431 928 l 364 797 l 192 797 l 333 1039 m 433 -367 q 324 -328 367 -367 q 281 -228 281 -290 q 324 -126 281 -165 q 433 -86 367 -86 q 543 -126 500 -86 q 586 -228 586 -165 q 543 -328 586 -290 q 433 -367 500 -367 z "},"ę":{"ha":833,"x_min":69,"x_max":764,"o":"m 736 64 q 662 9 690 32 q 617 -33 633 -14 q 594 -71 600 -53 q 589 -108 589 -89 q 606 -144 589 -132 q 646 -156 622 -156 q 670 -151 658 -156 q 692 -139 682 -146 l 739 -244 q 666 -281 710 -268 q 586 -294 622 -294 q 477 -262 521 -294 q 433 -164 433 -229 q 458 -76 433 -114 q 508 -14 482 -37 q 479 -17 489 -17 q 458 -17 469 -17 q 305 8 376 -17 q 181 78 233 32 q 99 193 129 125 q 69 347 69 261 q 100 500 69 432 q 181 615 131 568 q 298 686 232 661 q 433 711 364 711 q 577 685 515 711 q 681 613 639 658 q 743 506 722 567 q 764 375 764 444 q 760 315 764 343 q 754 275 757 288 l 314 275 q 336 222 319 243 q 377 188 353 200 q 431 169 401 175 q 492 164 460 164 q 573 174 533 164 q 658 206 613 185 l 736 64 m 547 431 q 524 501 547 472 q 439 531 500 531 q 359 508 394 531 q 311 431 324 485 l 547 431 z "},"ĝ":{"ha":833,"x_min":61,"x_max":799,"o":"m 254 -75 q 297 -124 254 -108 q 411 -139 340 -139 q 527 -122 482 -139 q 572 -75 572 -104 q 544 -40 572 -47 q 464 -33 517 -33 l 394 -33 q 331 -31 354 -33 q 289 -25 307 -29 q 263 -49 271 -37 q 254 -75 254 -60 m 61 -114 q 167 19 61 -31 l 167 25 q 117 72 138 44 q 97 144 97 100 q 121 215 97 181 q 181 275 144 250 l 181 281 q 113 351 140 306 q 86 458 86 397 q 111 570 86 522 q 179 649 136 618 q 277 696 222 681 q 393 711 332 711 q 511 694 458 711 l 792 694 l 792 522 l 667 522 q 680 490 674 510 q 686 450 686 471 q 664 345 686 389 q 602 274 642 301 q 509 233 563 246 q 393 219 456 219 q 306 229 353 219 q 288 212 293 219 q 283 189 283 204 q 308 156 283 165 q 392 147 333 147 l 510 147 q 724 105 649 147 q 799 -33 799 63 q 769 -137 799 -90 q 683 -217 739 -183 q 549 -268 628 -250 q 374 -286 471 -286 q 252 -277 308 -286 q 153 -247 196 -268 q 85 -194 110 -226 q 61 -114 61 -161 m 393 361 q 453 385 428 361 q 478 458 478 408 q 453 530 478 507 q 393 553 428 553 q 334 530 358 553 q 310 458 310 507 q 334 385 310 408 q 393 361 358 361 m 321 1039 l 521 1039 l 663 797 l 490 797 l 424 928 l 418 928 l 351 797 l 179 797 l 321 1039 z "},"ğ":{"ha":833,"x_min":61,"x_max":799,"o":"m 254 -75 q 297 -124 254 -108 q 411 -139 340 -139 q 527 -122 482 -139 q 572 -75 572 -104 q 544 -40 572 -47 q 464 -33 517 -33 l 394 -33 q 331 -31 354 -33 q 289 -25 307 -29 q 263 -49 271 -37 q 254 -75 254 -60 m 61 -114 q 167 19 61 -31 l 167 25 q 117 72 138 44 q 97 144 97 100 q 121 215 97 181 q 181 275 144 250 l 181 281 q 113 351 140 306 q 86 458 86 397 q 111 570 86 522 q 179 649 136 618 q 277 696 222 681 q 393 711 332 711 q 511 694 458 711 l 792 694 l 792 522 l 667 522 q 680 490 674 510 q 686 450 686 471 q 664 345 686 389 q 602 274 642 301 q 509 233 563 246 q 393 219 456 219 q 306 229 353 219 q 288 212 293 219 q 283 189 283 204 q 308 156 283 165 q 392 147 333 147 l 510 147 q 724 105 649 147 q 799 -33 799 63 q 769 -137 799 -90 q 683 -217 739 -183 q 549 -268 628 -250 q 374 -286 471 -286 q 252 -277 308 -286 q 153 -247 196 -268 q 85 -194 110 -226 q 61 -114 61 -161 m 393 361 q 453 385 428 361 q 478 458 478 408 q 453 530 478 507 q 393 553 428 553 q 334 530 358 553 q 310 458 310 507 q 334 385 310 408 q 393 361 358 361 m 421 797 q 327 815 367 797 q 261 865 288 833 q 222 938 235 896 q 207 1025 208 979 l 338 1025 q 363 953 343 981 q 421 925 382 925 q 479 953 460 925 q 504 1025 499 981 l 635 1025 q 620 938 633 979 q 581 865 607 896 q 515 815 554 833 q 421 797 475 797 z "},"ġ":{"ha":833,"x_min":61,"x_max":799,"o":"m 254 -75 q 297 -124 254 -108 q 411 -139 340 -139 q 527 -122 482 -139 q 572 -75 572 -104 q 544 -40 572 -47 q 464 -33 517 -33 l 394 -33 q 331 -31 354 -33 q 289 -25 307 -29 q 263 -49 271 -37 q 254 -75 254 -60 m 61 -114 q 167 19 61 -31 l 167 25 q 117 72 138 44 q 97 144 97 100 q 121 215 97 181 q 181 275 144 250 l 181 281 q 113 351 140 306 q 86 458 86 397 q 111 570 86 522 q 179 649 136 618 q 277 696 222 681 q 393 711 332 711 q 511 694 458 711 l 792 694 l 792 522 l 667 522 q 680 490 674 510 q 686 450 686 471 q 664 345 686 389 q 602 274 642 301 q 509 233 563 246 q 393 219 456 219 q 306 229 353 219 q 288 212 293 219 q 283 189 283 204 q 308 156 283 165 q 392 147 333 147 l 510 147 q 724 105 649 147 q 799 -33 799 63 q 769 -137 799 -90 q 683 -217 739 -183 q 549 -268 628 -250 q 374 -286 471 -286 q 252 -277 308 -286 q 153 -247 196 -268 q 85 -194 110 -226 q 61 -114 61 -161 m 393 361 q 453 385 428 361 q 478 458 478 408 q 453 530 478 507 q 393 553 428 553 q 334 530 358 553 q 310 458 310 507 q 334 385 310 408 q 393 361 358 361 m 421 781 q 311 819 354 781 q 268 919 268 857 q 311 1022 268 982 q 421 1061 354 1061 q 531 1022 488 1061 q 574 919 574 982 q 531 819 574 857 q 421 781 488 781 z "},"ģ":{"ha":833,"x_min":61,"x_max":799,"o":"m 254 -75 q 297 -124 254 -108 q 411 -139 340 -139 q 527 -122 482 -139 q 572 -75 572 -104 q 544 -40 572 -47 q 464 -33 517 -33 l 394 -33 q 331 -31 354 -33 q 289 -25 307 -29 q 263 -49 271 -37 q 254 -75 254 -60 m 61 -114 q 167 19 61 -31 l 167 25 q 117 72 138 44 q 97 144 97 100 q 121 215 97 181 q 181 275 144 250 l 181 281 q 113 351 140 306 q 86 458 86 397 q 111 570 86 522 q 179 649 136 618 q 277 696 222 681 q 393 711 332 711 q 511 694 458 711 l 792 694 l 792 522 l 667 522 q 680 490 674 510 q 686 450 686 471 q 664 345 686 389 q 602 274 642 301 q 509 233 563 246 q 393 219 456 219 q 306 229 353 219 q 288 212 293 219 q 283 189 283 204 q 308 156 283 165 q 392 147 333 147 l 510 147 q 724 105 649 147 q 799 -33 799 63 q 769 -137 799 -90 q 683 -217 739 -183 q 549 -268 628 -250 q 374 -286 471 -286 q 252 -277 308 -286 q 153 -247 196 -268 q 85 -194 110 -226 q 61 -114 61 -161 m 393 361 q 453 385 428 361 q 478 458 478 408 q 453 530 478 507 q 393 553 428 553 q 334 530 358 553 q 310 458 310 507 q 334 385 310 408 q 393 361 358 361 m 474 758 q 388 772 422 763 q 332 795 353 781 q 302 830 311 810 q 293 878 293 850 q 315 942 293 915 q 372 988 336 969 q 456 1016 408 1007 q 557 1028 504 1025 l 574 936 q 494 922 525 932 q 463 889 463 913 q 474 861 463 872 q 518 842 486 850 l 474 758 l 474 758 z "},"ǧ":{"ha":833,"x_min":61,"x_max":799,"o":"m 254 -75 q 297 -124 254 -108 q 411 -139 340 -139 q 527 -122 482 -139 q 572 -75 572 -104 q 544 -40 572 -47 q 464 -33 517 -33 l 394 -33 q 331 -31 354 -33 q 289 -25 307 -29 q 263 -49 271 -37 q 254 -75 254 -60 m 61 -114 q 167 19 61 -31 l 167 25 q 117 72 138 44 q 97 144 97 100 q 121 215 97 181 q 181 275 144 250 l 181 281 q 113 351 140 306 q 86 458 86 397 q 111 570 86 522 q 179 649 136 618 q 277 696 222 681 q 393 711 332 711 q 511 694 458 711 l 792 694 l 792 522 l 667 522 q 680 490 674 510 q 686 450 686 471 q 664 345 686 389 q 602 274 642 301 q 509 233 563 246 q 393 219 456 219 q 306 229 353 219 q 288 212 293 219 q 283 189 283 204 q 308 156 283 165 q 392 147 333 147 l 510 147 q 724 105 649 147 q 799 -33 799 63 q 769 -137 799 -90 q 683 -217 739 -183 q 549 -268 628 -250 q 374 -286 471 -286 q 252 -277 308 -286 q 153 -247 196 -268 q 85 -194 110 -226 q 61 -114 61 -161 m 393 361 q 453 385 428 361 q 478 458 478 408 q 453 530 478 507 q 393 553 428 553 q 334 530 358 553 q 310 458 310 507 q 334 385 310 408 q 393 361 358 361 m 179 1039 l 351 1039 l 418 908 l 424 908 l 490 1039 l 663 1039 l 521 797 l 321 797 l 179 1039 z "},"ḡ":{"ha":833,"x_min":61,"x_max":799,"o":"m 254 -75 q 297 -124 254 -108 q 411 -139 340 -139 q 527 -122 482 -139 q 572 -75 572 -104 q 544 -40 572 -47 q 464 -33 517 -33 l 394 -33 q 331 -31 354 -33 q 289 -25 307 -29 q 263 -49 271 -37 q 254 -75 254 -60 m 61 -114 q 167 19 61 -31 l 167 25 q 117 72 138 44 q 97 144 97 100 q 121 215 97 181 q 181 275 144 250 l 181 281 q 113 351 140 306 q 86 458 86 397 q 111 570 86 522 q 179 649 136 618 q 277 696 222 681 q 393 711 332 711 q 511 694 458 711 l 792 694 l 792 522 l 667 522 q 680 490 674 510 q 686 450 686 471 q 664 345 686 389 q 602 274 642 301 q 509 233 563 246 q 393 219 456 219 q 306 229 353 219 q 288 212 293 219 q 283 189 283 204 q 308 156 283 165 q 392 147 333 147 l 510 147 q 724 105 649 147 q 799 -33 799 63 q 769 -137 799 -90 q 683 -217 739 -183 q 549 -268 628 -250 q 374 -286 471 -286 q 252 -277 308 -286 q 153 -247 196 -268 q 85 -194 110 -226 q 61 -114 61 -161 m 393 361 q 453 385 428 361 q 478 458 478 408 q 453 530 478 507 q 393 553 428 553 q 334 530 358 553 q 310 458 310 507 q 334 385 310 408 q 393 361 358 361 m 221 967 l 621 967 l 621 817 l 221 817 l 221 967 z "},"ĥ":{"ha":833,"x_min":-39,"x_max":758,"o":"m 89 967 l 328 967 l 328 742 l 315 619 q 406 682 350 653 q 539 711 461 711 q 706 634 653 711 q 758 428 758 557 l 758 0 l 519 0 l 519 397 q 502 482 519 456 q 439 508 485 508 q 381 494 406 508 q 328 456 356 481 l 328 0 l 89 0 l 89 967 m -39 1042 l 94 1214 l 328 1214 l 461 1042 l 281 1042 l 214 1122 l 208 1122 l 142 1042 l -39 1042 z "},"ḥ":{"ha":833,"x_min":89,"x_max":758,"o":"m 89 967 l 328 967 l 328 742 l 315 619 q 406 682 350 653 q 539 711 461 711 q 706 634 653 711 q 758 428 758 557 l 758 0 l 519 0 l 519 397 q 502 482 519 456 q 439 508 485 508 q 381 494 406 508 q 328 456 356 481 l 328 0 l 89 0 l 89 967 m 424 -367 q 314 -328 357 -367 q 271 -228 271 -290 q 314 -126 271 -165 q 424 -86 357 -86 q 533 -126 490 -86 q 576 -228 576 -165 q 533 -328 576 -290 q 424 -367 490 -367 z "},"ḫ":{"ha":833,"x_min":89,"x_max":758,"o":"m 89 967 l 328 967 l 328 742 l 315 619 q 406 682 350 653 q 539 711 461 711 q 706 634 653 711 q 758 428 758 557 l 758 0 l 519 0 l 519 397 q 502 482 519 456 q 439 508 485 508 q 381 494 406 508 q 328 456 356 481 l 328 0 l 89 0 l 89 967 m 424 -294 q 337 -278 374 -294 q 275 -235 300 -262 q 238 -172 250 -208 q 224 -94 225 -135 l 354 -94 q 375 -147 358 -126 q 424 -167 392 -167 q 472 -147 456 -167 q 493 -94 489 -126 l 624 -94 q 610 -172 622 -135 q 572 -235 597 -208 q 510 -278 547 -262 q 424 -294 474 -294 z "},"ħ":{"ha":833,"x_min":0,"x_max":758,"o":"m 315 592 q 406 654 350 625 q 539 683 461 683 q 706 606 653 683 q 758 400 758 529 l 758 0 l 519 0 l 519 369 q 502 454 519 428 q 439 481 485 481 q 381 467 406 481 q 328 428 356 453 l 328 0 l 89 0 l 89 764 l 0 764 l 0 867 l 89 874 l 89 967 l 328 967 l 328 875 l 564 875 l 564 764 l 328 764 l 328 714 l 315 592 z "},"ì":{"ha":833,"x_min":103,"x_max":606,"o":"m 103 694 l 606 694 l 606 0 l 367 0 l 367 508 l 103 508 l 103 694 m 236 1039 l 478 1039 l 600 797 l 428 797 l 236 1039 z "},"í":{"ha":833,"x_min":103,"x_max":719,"o":"m 103 694 l 606 694 l 606 0 l 367 0 l 367 508 l 103 508 l 103 694 m 528 797 l 356 797 l 478 1039 l 719 1039 l 528 797 z "},"î":{"ha":833,"x_min":103,"x_max":719,"o":"m 103 694 l 606 694 l 606 0 l 367 0 l 367 508 l 103 508 l 103 694 m 378 1039 l 578 1039 l 719 797 l 547 797 l 481 928 l 475 928 l 408 797 l 236 797 l 378 1039 z "},"ĩ":{"ha":833,"x_min":103,"x_max":731,"o":"m 103 694 l 606 694 l 606 0 l 367 0 l 367 508 l 103 508 l 103 694 m 225 797 q 288 963 240 911 q 403 1014 336 1014 q 449 1003 428 1014 q 488 978 471 992 q 521 953 506 964 q 550 942 536 942 q 586 957 572 942 q 611 1014 600 972 l 731 1014 q 667 849 715 900 q 553 797 619 797 q 506 808 526 797 q 467 833 485 819 q 434 858 449 847 q 406 869 419 869 q 369 854 383 869 q 344 797 356 839 l 225 797 l 225 797 z "},"ï":{"ha":833,"x_min":103,"x_max":758,"o":"m 103 694 l 606 694 l 606 0 l 367 0 l 367 508 l 103 508 l 103 694 m 319 783 q 231 818 265 783 q 197 906 197 853 q 231 993 197 958 q 319 1028 265 1028 q 408 993 374 1028 q 442 906 442 958 q 408 818 442 853 q 319 783 374 783 m 636 783 q 548 818 582 783 q 514 906 514 853 q 548 993 514 958 q 636 1028 582 1028 q 724 993 690 1028 q 758 906 758 958 q 724 818 758 853 q 636 783 690 783 z "},"ī":{"ha":833,"x_min":103,"x_max":678,"o":"m 103 694 l 606 694 l 606 0 l 367 0 l 367 508 l 103 508 l 103 694 m 278 967 l 678 967 l 678 817 l 278 817 l 278 967 z "},"ĭ":{"ha":833,"x_min":103,"x_max":692,"o":"m 103 694 l 606 694 l 606 0 l 367 0 l 367 508 l 103 508 l 103 694 m 478 797 q 384 815 424 797 q 318 865 344 833 q 278 938 292 896 q 264 1025 265 979 l 394 1025 q 419 953 400 981 q 478 925 439 925 q 536 953 517 925 q 561 1025 556 981 l 692 1025 q 677 938 690 979 q 638 865 664 896 q 572 815 611 833 q 478 797 532 797 z "},"ǐ":{"ha":833,"x_min":103,"x_max":719,"o":"m 103 694 l 606 694 l 606 0 l 367 0 l 367 508 l 103 508 l 103 694 m 236 1039 l 408 1039 l 475 908 l 481 908 l 547 1039 l 719 1039 l 578 797 l 378 797 l 236 1039 z "},"ỉ":{"ha":833,"x_min":103,"x_max":633,"o":"m 103 694 l 606 694 l 606 0 l 367 0 l 367 508 l 103 508 l 103 694 m 408 867 q 448 876 432 869 q 464 900 464 883 q 440 927 464 917 q 356 942 417 938 l 383 1058 q 503 1045 456 1056 q 581 1017 551 1035 q 622 976 610 1000 q 633 925 633 953 q 617 860 633 888 q 572 815 600 833 q 506 786 543 796 q 425 775 468 776 l 408 867 z "},"ị":{"ha":833,"x_min":103,"x_max":631,"o":"m 103 694 l 606 694 l 606 0 l 367 0 l 367 508 l 103 508 l 103 694 m 478 781 q 368 819 411 781 q 325 919 325 857 q 368 1022 325 982 q 478 1061 411 1061 q 588 1022 544 1061 q 631 919 631 982 q 588 819 631 857 q 478 781 544 781 m 478 -367 q 368 -328 411 -367 q 325 -228 325 -290 q 368 -126 325 -165 q 478 -86 411 -86 q 588 -126 544 -86 q 631 -228 631 -165 q 588 -328 631 -290 q 478 -367 544 -367 z "},"į":{"ha":833,"x_min":103,"x_max":653,"o":"m 367 508 l 103 508 l 103 694 l 606 694 l 606 0 q 524 -48 544 -17 q 503 -108 503 -79 q 519 -144 503 -132 q 560 -156 536 -156 q 583 -151 571 -156 q 606 -139 594 -146 l 653 -244 q 580 -281 624 -268 q 500 -294 536 -294 q 390 -262 435 -294 q 344 -164 344 -229 q 354 -107 344 -133 q 378 -60 364 -81 q 408 -24 392 -39 q 436 0 424 -8 l 367 0 l 367 508 m 478 781 q 368 819 411 781 q 325 919 325 857 q 368 1022 325 982 q 478 1061 411 1061 q 588 1022 544 1061 q 631 919 631 982 q 588 819 631 857 q 478 781 544 781 z "},"ı":{"ha":833,"x_min":103,"x_max":606,"o":"m 103 694 l 606 694 l 606 0 l 367 0 l 367 508 l 103 508 l 103 694 z "},"ĵ":{"ha":833,"x_min":51,"x_max":719,"o":"m 103 694 l 606 694 l 606 64 q 590 -58 606 0 q 537 -162 575 -117 q 434 -234 499 -207 q 271 -261 369 -261 q 150 -248 203 -261 q 51 -214 97 -235 l 119 -44 q 195 -69 164 -64 q 254 -75 226 -75 q 342 -45 318 -75 q 367 56 367 -15 l 367 508 l 103 508 l 103 694 m 378 1039 l 578 1039 l 719 797 l 547 797 l 481 928 l 475 928 l 408 797 l 236 797 l 378 1039 z "},"ķ":{"ha":833,"x_min":89,"x_max":819,"o":"m 89 967 l 328 967 l 328 447 l 333 447 l 544 694 l 803 694 l 546 406 l 819 0 l 561 0 l 408 258 l 328 169 l 328 0 l 89 0 l 89 967 m 392 -56 q 533 -92 493 -64 q 572 -175 572 -121 q 551 -240 572 -212 q 493 -285 529 -267 q 409 -314 457 -304 q 308 -325 361 -324 l 292 -233 q 372 -219 340 -229 q 403 -186 403 -210 q 391 -158 403 -169 q 347 -139 379 -147 l 392 -56 l 392 -56 z "},"ĸ":{"ha":833,"x_min":89,"x_max":819,"o":"m 89 694 l 328 694 l 328 453 l 333 453 l 544 694 l 803 694 l 546 406 l 819 0 l 561 0 l 410 247 l 328 167 l 328 0 l 89 0 l 89 694 z "},"ĺ":{"ha":833,"x_min":75,"x_max":758,"o":"m 75 967 l 503 967 l 503 278 q 513 228 503 247 q 537 197 522 208 q 570 180 551 185 q 607 175 589 175 q 707 194 650 175 l 758 19 q 706 4 731 11 q 657 -7 682 -3 q 604 -14 632 -11 q 543 -17 576 -17 q 422 6 474 -17 q 334 67 369 28 q 281 163 299 107 q 264 286 264 218 l 264 781 l 75 781 l 75 967 m 435 1050 l 246 1050 l 354 1222 l 604 1222 l 435 1050 z "},"ľ":{"ha":833,"x_min":75,"x_max":758,"o":"m 75 967 l 503 967 l 503 278 q 513 228 503 247 q 537 197 522 208 q 570 180 551 185 q 607 175 589 175 q 707 194 650 175 l 758 19 q 706 4 731 11 q 657 -7 682 -3 q 604 -14 632 -11 q 543 -17 576 -17 q 422 6 474 -17 q 334 67 369 28 q 281 163 299 107 q 264 286 264 218 l 264 781 l 75 781 l 75 967 m 582 761 l 574 1075 l 724 1075 l 721 972 l 682 761 l 582 761 z "},"ŀ":{"ha":833,"x_min":1,"x_max":825,"o":"m 1 967 l 429 967 l 429 278 q 439 228 429 247 q 463 197 449 208 q 497 180 478 185 q 533 175 515 175 q 633 194 576 175 l 685 19 q 633 4 657 11 q 583 -7 608 -3 q 531 -14 558 -11 q 469 -17 503 -17 q 348 6 400 -17 q 260 67 296 28 q 208 163 225 107 q 190 286 190 218 l 190 781 l 1 781 l 1 967 m 672 354 q 563 392 606 354 q 519 493 519 431 q 563 595 519 556 q 672 635 606 635 q 782 595 739 635 q 825 493 825 556 q 782 392 825 431 q 672 354 739 354 z "},"ļ":{"ha":833,"x_min":75,"x_max":758,"o":"m 75 967 l 503 967 l 503 278 q 513 228 503 247 q 537 197 522 208 q 570 180 551 185 q 607 175 589 175 q 707 194 650 175 l 758 19 q 706 4 731 11 q 657 -7 682 -3 q 604 -14 632 -11 q 543 -17 576 -17 q 422 6 474 -17 q 334 67 369 28 q 281 163 299 107 q 264 286 264 218 l 264 781 l 75 781 l 75 967 m 444 -56 q 585 -92 546 -64 q 625 -175 625 -121 q 603 -240 625 -212 q 546 -285 582 -267 q 462 -314 510 -304 q 361 -325 414 -324 l 344 -233 q 424 -219 393 -229 q 456 -186 456 -210 q 444 -158 456 -169 q 400 -139 432 -147 l 444 -56 l 444 -56 z "},"ḷ":{"ha":833,"x_min":75,"x_max":758,"o":"m 75 967 l 503 967 l 503 278 q 513 228 503 247 q 537 197 522 208 q 570 180 551 185 q 607 175 589 175 q 707 194 650 175 l 758 19 q 706 4 731 11 q 657 -7 682 -3 q 604 -14 632 -11 q 543 -17 576 -17 q 422 6 474 -17 q 334 67 369 28 q 281 163 299 107 q 264 286 264 218 l 264 781 l 75 781 l 75 967 m 497 -367 q 388 -328 431 -367 q 344 -228 344 -290 q 388 -126 344 -165 q 497 -86 431 -86 q 607 -126 564 -86 q 650 -228 650 -165 q 607 -328 650 -290 q 497 -367 564 -367 z "},"ḹ":{"ha":833,"x_min":75,"x_max":758,"o":"m 75 967 l 503 967 l 503 278 q 513 228 503 247 q 537 197 522 208 q 570 180 551 185 q 607 175 589 175 q 707 194 650 175 l 758 19 q 706 4 731 11 q 657 -7 682 -3 q 604 -14 632 -11 q 543 -17 576 -17 q 422 6 474 -17 q 334 67 369 28 q 281 163 299 107 q 264 286 264 218 l 264 781 l 75 781 l 75 967 m 171 1256 l 571 1256 l 571 1106 l 171 1106 l 171 1256 m 497 -367 q 388 -328 431 -367 q 344 -228 344 -290 q 388 -126 344 -165 q 497 -86 431 -86 q 607 -126 564 -86 q 650 -228 650 -165 q 607 -328 650 -290 q 497 -367 564 -367 z "},"ḻ":{"ha":833,"x_min":75,"x_max":758,"o":"m 75 967 l 503 967 l 503 278 q 513 228 503 247 q 537 197 522 208 q 570 180 551 185 q 607 175 589 175 q 707 194 650 175 l 758 19 q 706 4 731 11 q 657 -7 682 -3 q 604 -14 632 -11 q 543 -17 576 -17 q 422 6 474 -17 q 334 67 369 28 q 281 163 299 107 q 264 286 264 218 l 264 781 l 75 781 l 75 967 m 697 -272 l 297 -272 l 297 -122 l 697 -122 l 697 -272 z "},"ł":{"ha":833,"x_min":75,"x_max":758,"o":"m 758 19 q 706 4 731 11 q 657 -7 682 -3 q 604 -14 632 -11 q 543 -17 576 -17 q 422 6 474 -17 q 334 67 369 28 q 281 163 299 107 q 264 286 264 218 l 264 354 l 113 269 l 113 458 l 264 543 l 264 781 l 75 781 l 75 967 l 503 967 l 503 660 l 701 767 l 701 578 l 503 471 l 503 278 q 513 228 503 247 q 537 197 522 208 q 570 180 551 185 q 607 175 589 175 q 707 194 650 175 l 758 19 z "},"ṃ":{"ha":833,"x_min":36,"x_max":806,"o":"m 36 694 l 215 694 l 232 610 l 238 610 q 289 681 256 650 q 385 711 322 711 q 459 683 428 711 q 501 600 490 654 q 554 678 517 644 q 650 711 592 711 q 765 649 724 711 q 806 483 806 588 l 806 0 l 581 0 l 581 467 q 557 508 581 508 q 511 456 529 508 l 511 0 l 331 0 l 331 467 q 303 508 331 508 q 261 456 279 508 l 261 0 l 36 0 l 36 694 m 419 -367 q 310 -328 353 -367 q 267 -228 267 -290 q 310 -126 267 -165 q 419 -86 353 -86 q 529 -126 486 -86 q 572 -228 572 -165 q 529 -328 572 -290 q 419 -367 486 -367 z "},"ń":{"ha":833,"x_min":89,"x_max":758,"o":"m 89 694 l 283 694 l 300 611 l 306 611 q 404 681 347 651 q 538 711 461 711 q 706 634 653 711 q 758 428 758 557 l 758 0 l 519 0 l 519 397 q 502 482 519 456 q 439 508 485 508 q 381 494 406 508 q 328 456 356 481 l 328 0 l 89 0 l 89 694 m 486 797 l 314 797 l 436 1039 l 678 1039 l 486 797 z "},"ň":{"ha":833,"x_min":89,"x_max":758,"o":"m 89 694 l 283 694 l 300 611 l 306 611 q 404 681 347 651 q 538 711 461 711 q 706 634 653 711 q 758 428 758 557 l 758 0 l 519 0 l 519 397 q 502 482 519 456 q 439 508 485 508 q 381 494 406 508 q 328 456 356 481 l 328 0 l 89 0 l 89 694 m 194 1039 l 367 1039 l 433 908 l 439 908 l 506 1039 l 678 1039 l 536 797 l 336 797 l 194 1039 z "},"ñ":{"ha":833,"x_min":89,"x_max":758,"o":"m 89 694 l 283 694 l 300 611 l 306 611 q 404 681 347 651 q 538 711 461 711 q 706 634 653 711 q 758 428 758 557 l 758 0 l 519 0 l 519 397 q 502 482 519 456 q 439 508 485 508 q 381 494 406 508 q 328 456 356 481 l 328 0 l 89 0 l 89 694 m 183 797 q 247 963 199 911 q 361 1014 294 1014 q 408 1003 386 1014 q 447 978 429 992 q 479 953 464 964 q 508 942 494 942 q 544 957 531 942 q 569 1014 558 972 l 689 1014 q 626 849 674 900 q 511 797 578 797 q 464 808 485 797 q 425 833 443 819 q 392 858 407 847 q 364 869 378 869 q 328 854 342 869 q 303 797 314 839 l 183 797 l 183 797 z "},"ņ":{"ha":833,"x_min":89,"x_max":758,"o":"m 89 694 l 283 694 l 300 611 l 306 611 q 404 681 347 651 q 538 711 461 711 q 706 634 653 711 q 758 428 758 557 l 758 0 l 519 0 l 519 397 q 502 482 519 456 q 439 508 485 508 q 381 494 406 508 q 328 456 356 481 l 328 0 l 89 0 l 89 694 m 369 -56 q 510 -92 471 -64 q 550 -175 550 -121 q 528 -240 550 -212 q 471 -285 507 -267 q 387 -314 435 -304 q 286 -325 339 -324 l 269 -233 q 349 -219 318 -229 q 381 -186 381 -210 q 369 -158 381 -169 q 325 -139 357 -147 l 369 -56 l 369 -56 z "},"ṅ":{"ha":833,"x_min":89,"x_max":758,"o":"m 89 694 l 283 694 l 300 611 l 306 611 q 404 681 347 651 q 538 711 461 711 q 706 634 653 711 q 758 428 758 557 l 758 0 l 519 0 l 519 397 q 502 482 519 456 q 439 508 485 508 q 381 494 406 508 q 328 456 356 481 l 328 0 l 89 0 l 89 694 m 436 781 q 326 819 369 781 q 283 919 283 857 q 326 1022 283 982 q 436 1061 369 1061 q 546 1022 503 1061 q 589 919 589 982 q 546 819 589 857 q 436 781 503 781 z "},"ṇ":{"ha":833,"x_min":89,"x_max":758,"o":"m 89 694 l 283 694 l 300 611 l 306 611 q 404 681 347 651 q 538 711 461 711 q 706 634 653 711 q 758 428 758 557 l 758 0 l 519 0 l 519 397 q 502 482 519 456 q 439 508 485 508 q 381 494 406 508 q 328 456 356 481 l 328 0 l 89 0 l 89 694 m 422 -367 q 313 -328 356 -367 q 269 -228 269 -290 q 313 -126 269 -165 q 422 -86 356 -86 q 532 -126 489 -86 q 575 -228 575 -165 q 532 -328 575 -290 q 422 -367 489 -367 z "},"ṉ":{"ha":833,"x_min":89,"x_max":758,"o":"m 89 694 l 283 694 l 300 611 l 306 611 q 404 681 347 651 q 538 711 461 711 q 706 634 653 711 q 758 428 758 557 l 758 0 l 519 0 l 519 397 q 502 482 519 456 q 439 508 485 508 q 381 494 406 508 q 328 456 356 481 l 328 0 l 89 0 l 89 694 m 622 -272 l 222 -272 l 222 -122 l 622 -122 l 622 -272 z "},"ŉ":{"ha":833,"x_min":-79,"x_max":919,"o":"m -76 494 q 40 571 0 526 q 83 679 79 615 q 71 677 76 678 q 58 676 65 676 q -41 714 -3 676 q -79 814 -79 751 q -38 926 -79 885 q 65 967 3 967 q 198 903 153 967 q 243 724 243 839 q 180 517 243 606 q -17 371 117 429 l -76 494 m 528 611 q 613 681 565 651 q 726 711 660 711 q 874 634 828 711 q 919 428 919 557 l 919 0 l 681 0 l 681 397 q 669 482 681 456 q 628 508 657 508 q 587 494 603 508 q 550 456 571 481 l 550 0 l 311 0 l 311 694 l 506 694 l 522 611 l 528 611 z "},"ò":{"ha":833,"x_min":58,"x_max":775,"o":"m 58 347 q 88 501 58 433 q 168 616 118 569 q 283 687 218 663 q 417 711 347 711 q 549 687 485 711 q 664 616 614 663 q 744 501 714 569 q 775 347 775 433 q 744 193 775 261 q 664 78 714 125 q 549 8 614 32 q 417 -17 485 -17 q 283 8 347 -17 q 168 78 218 32 q 88 193 118 125 q 58 347 58 261 m 303 347 q 329 222 303 268 q 417 175 356 175 q 504 222 478 175 q 531 347 531 268 q 504 473 531 426 q 417 519 478 519 q 329 473 356 519 q 303 347 303 426 m 175 1039 l 417 1039 l 539 797 l 367 797 l 175 1039 z "},"ó":{"ha":833,"x_min":58,"x_max":775,"o":"m 58 347 q 88 501 58 433 q 168 616 118 569 q 283 687 218 663 q 417 711 347 711 q 549 687 485 711 q 664 616 614 663 q 744 501 714 569 q 775 347 775 433 q 744 193 775 261 q 664 78 714 125 q 549 8 614 32 q 417 -17 485 -17 q 283 8 347 -17 q 168 78 218 32 q 88 193 118 125 q 58 347 58 261 m 303 347 q 329 222 303 268 q 417 175 356 175 q 504 222 478 175 q 531 347 531 268 q 504 473 531 426 q 417 519 478 519 q 329 473 356 519 q 303 347 303 426 m 467 797 l 294 797 l 417 1039 l 658 1039 l 467 797 z "},"ô":{"ha":833,"x_min":58,"x_max":775,"o":"m 58 347 q 88 501 58 433 q 168 616 118 569 q 283 687 218 663 q 417 711 347 711 q 549 687 485 711 q 664 616 614 663 q 744 501 714 569 q 775 347 775 433 q 744 193 775 261 q 664 78 714 125 q 549 8 614 32 q 417 -17 485 -17 q 283 8 347 -17 q 168 78 218 32 q 88 193 118 125 q 58 347 58 261 m 303 347 q 329 222 303 268 q 417 175 356 175 q 504 222 478 175 q 531 347 531 268 q 504 473 531 426 q 417 519 478 519 q 329 473 356 519 q 303 347 303 426 m 317 1039 l 517 1039 l 658 797 l 486 797 l 419 928 l 414 928 l 347 797 l 175 797 l 317 1039 z "},"õ":{"ha":833,"x_min":58,"x_max":775,"o":"m 58 347 q 88 501 58 433 q 168 616 118 569 q 283 687 218 663 q 417 711 347 711 q 549 687 485 711 q 664 616 614 663 q 744 501 714 569 q 775 347 775 433 q 744 193 775 261 q 664 78 714 125 q 549 8 614 32 q 417 -17 485 -17 q 283 8 347 -17 q 168 78 218 32 q 88 193 118 125 q 58 347 58 261 m 303 347 q 329 222 303 268 q 417 175 356 175 q 504 222 478 175 q 531 347 531 268 q 504 473 531 426 q 417 519 478 519 q 329 473 356 519 q 303 347 303 426 m 164 797 q 227 963 179 911 q 342 1014 275 1014 q 388 1003 367 1014 q 427 978 410 992 q 460 953 444 964 q 489 942 475 942 q 525 957 511 942 q 550 1014 539 972 l 669 1014 q 606 849 654 900 q 492 797 558 797 q 444 808 465 797 q 406 833 424 819 q 373 858 388 847 q 344 869 358 869 q 308 854 322 869 q 283 797 294 839 l 164 797 l 164 797 z "},"ö":{"ha":833,"x_min":58,"x_max":775,"o":"m 58 347 q 88 501 58 433 q 168 616 118 569 q 283 687 218 663 q 417 711 347 711 q 549 687 485 711 q 664 616 614 663 q 744 501 714 569 q 775 347 775 433 q 744 193 775 261 q 664 78 714 125 q 549 8 614 32 q 417 -17 485 -17 q 283 8 347 -17 q 168 78 218 32 q 88 193 118 125 q 58 347 58 261 m 303 347 q 329 222 303 268 q 417 175 356 175 q 504 222 478 175 q 531 347 531 268 q 504 473 531 426 q 417 519 478 519 q 329 473 356 519 q 303 347 303 426 m 258 783 q 170 818 204 783 q 136 906 136 853 q 170 993 136 958 q 258 1028 204 1028 q 347 993 313 1028 q 381 906 381 958 q 347 818 381 853 q 258 783 313 783 m 575 783 q 487 818 521 783 q 453 906 453 853 q 487 993 453 958 q 575 1028 521 1028 q 663 993 629 1028 q 697 906 697 958 q 663 818 697 853 q 575 783 629 783 z "},"ō":{"ha":833,"x_min":58,"x_max":775,"o":"m 58 347 q 88 501 58 433 q 168 616 118 569 q 283 687 218 663 q 417 711 347 711 q 549 687 485 711 q 664 616 614 663 q 744 501 714 569 q 775 347 775 433 q 744 193 775 261 q 664 78 714 125 q 549 8 614 32 q 417 -17 485 -17 q 283 8 347 -17 q 168 78 218 32 q 88 193 118 125 q 58 347 58 261 m 303 347 q 329 222 303 268 q 417 175 356 175 q 504 222 478 175 q 531 347 531 268 q 504 473 531 426 q 417 519 478 519 q 329 473 356 519 q 303 347 303 426 m 217 967 l 617 967 l 617 817 l 217 817 l 217 967 z "},"ŏ":{"ha":833,"x_min":58,"x_max":775,"o":"m 58 347 q 88 501 58 433 q 168 616 118 569 q 283 687 218 663 q 417 711 347 711 q 549 687 485 711 q 664 616 614 663 q 744 501 714 569 q 775 347 775 433 q 744 193 775 261 q 664 78 714 125 q 549 8 614 32 q 417 -17 485 -17 q 283 8 347 -17 q 168 78 218 32 q 88 193 118 125 q 58 347 58 261 m 303 347 q 329 222 303 268 q 417 175 356 175 q 504 222 478 175 q 531 347 531 268 q 504 473 531 426 q 417 519 478 519 q 329 473 356 519 q 303 347 303 426 m 417 797 q 323 815 363 797 q 257 865 283 833 q 217 938 231 896 q 203 1025 204 979 l 333 1025 q 358 953 339 981 q 417 925 378 925 q 475 953 456 925 q 500 1025 494 981 l 631 1025 q 616 938 629 979 q 576 865 603 896 q 510 815 550 833 q 417 797 471 797 z "},"ő":{"ha":833,"x_min":58,"x_max":775,"o":"m 58 347 q 88 501 58 433 q 168 616 118 569 q 283 687 218 663 q 417 711 347 711 q 549 687 485 711 q 664 616 614 663 q 744 501 714 569 q 775 347 775 433 q 744 193 775 261 q 664 78 714 125 q 549 8 614 32 q 417 -17 485 -17 q 283 8 347 -17 q 168 78 218 32 q 88 193 118 125 q 58 347 58 261 m 303 347 q 329 222 303 268 q 417 175 356 175 q 504 222 478 175 q 531 347 531 268 q 504 473 531 426 q 417 519 478 519 q 329 473 356 519 q 303 347 303 426 m 322 1011 l 508 1011 l 372 797 l 228 797 l 322 1011 m 572 1011 l 758 1011 l 622 797 l 478 797 l 572 1011 z "},"ǒ":{"ha":833,"x_min":58,"x_max":775,"o":"m 58 347 q 88 501 58 433 q 168 616 118 569 q 283 687 218 663 q 417 711 347 711 q 549 687 485 711 q 664 616 614 663 q 744 501 714 569 q 775 347 775 433 q 744 193 775 261 q 664 78 714 125 q 549 8 614 32 q 417 -17 485 -17 q 283 8 347 -17 q 168 78 218 32 q 88 193 118 125 q 58 347 58 261 m 303 347 q 329 222 303 268 q 417 175 356 175 q 504 222 478 175 q 531 347 531 268 q 504 473 531 426 q 417 519 478 519 q 329 473 356 519 q 303 347 303 426 m 175 1039 l 347 1039 l 414 908 l 419 908 l 486 1039 l 658 1039 l 517 797 l 317 797 l 175 1039 z "},"ọ":{"ha":833,"x_min":58,"x_max":775,"o":"m 58 347 q 88 501 58 433 q 168 616 118 569 q 283 687 218 663 q 417 711 347 711 q 549 687 485 711 q 664 616 614 663 q 744 501 714 569 q 775 347 775 433 q 744 193 775 261 q 664 78 714 125 q 549 8 614 32 q 417 -17 485 -17 q 283 8 347 -17 q 168 78 218 32 q 88 193 118 125 q 58 347 58 261 m 303 347 q 329 222 303 268 q 417 175 356 175 q 504 222 478 175 q 531 347 531 268 q 504 473 531 426 q 417 519 478 519 q 329 473 356 519 q 303 347 303 426 m 417 -367 q 307 -328 350 -367 q 264 -228 264 -290 q 307 -126 264 -165 q 417 -86 350 -86 q 526 -126 483 -86 q 569 -228 569 -165 q 526 -328 569 -290 q 417 -367 483 -367 z "},"ỏ":{"ha":833,"x_min":58,"x_max":775,"o":"m 58 347 q 88 501 58 433 q 168 616 118 569 q 283 687 218 663 q 417 711 347 711 q 549 687 485 711 q 664 616 614 663 q 744 501 714 569 q 775 347 775 433 q 744 193 775 261 q 664 78 714 125 q 549 8 614 32 q 417 -17 485 -17 q 283 8 347 -17 q 168 78 218 32 q 88 193 118 125 q 58 347 58 261 m 303 347 q 329 222 303 268 q 417 175 356 175 q 504 222 478 175 q 531 347 531 268 q 504 473 531 426 q 417 519 478 519 q 329 473 356 519 q 303 347 303 426 m 347 867 q 387 876 371 869 q 403 900 403 883 q 379 927 403 917 q 294 942 356 938 l 322 1058 q 442 1045 394 1056 q 519 1017 490 1035 q 560 976 549 1000 q 572 925 572 953 q 556 860 572 888 q 510 815 539 833 q 444 786 482 796 q 364 775 407 776 l 347 867 z "},"ố":{"ha":833,"x_min":58,"x_max":839,"o":"m 58 347 q 88 501 58 433 q 168 616 118 569 q 283 687 218 663 q 417 711 347 711 q 549 687 485 711 q 664 616 614 663 q 744 501 714 569 q 775 347 775 433 q 744 193 775 261 q 664 78 714 125 q 549 8 614 32 q 417 -17 485 -17 q 283 8 347 -17 q 168 78 218 32 q 88 193 118 125 q 58 347 58 261 m 303 347 q 329 222 303 268 q 417 175 356 175 q 504 222 478 175 q 531 347 531 268 q 504 473 531 426 q 417 519 478 519 q 329 473 356 519 q 303 347 303 426 m 322 981 l 511 981 l 622 797 l 478 797 l 419 883 l 414 883 l 356 797 l 211 797 l 322 981 m 667 1067 l 839 1067 l 706 900 l 575 900 l 667 1067 z "},"ồ":{"ha":833,"x_min":58,"x_max":789,"o":"m 58 347 q 88 501 58 433 q 168 616 118 569 q 283 687 218 663 q 417 711 347 711 q 549 687 485 711 q 664 616 614 663 q 744 501 714 569 q 775 347 775 433 q 744 193 775 261 q 664 78 714 125 q 549 8 614 32 q 417 -17 485 -17 q 283 8 347 -17 q 168 78 218 32 q 88 193 118 125 q 58 347 58 261 m 303 347 q 329 222 303 268 q 417 175 356 175 q 504 222 478 175 q 531 347 531 268 q 504 473 531 426 q 417 519 478 519 q 329 473 356 519 q 303 347 303 426 m 322 981 l 511 981 l 622 797 l 478 797 l 419 883 l 414 883 l 356 797 l 211 797 l 322 981 m 789 900 l 658 900 l 525 1067 l 697 1067 l 789 900 z "},"ổ":{"ha":833,"x_min":58,"x_max":794,"o":"m 58 347 q 88 501 58 433 q 168 616 118 569 q 283 687 218 663 q 417 711 347 711 q 549 687 485 711 q 664 616 614 663 q 744 501 714 569 q 775 347 775 433 q 744 193 775 261 q 664 78 714 125 q 549 8 614 32 q 417 -17 485 -17 q 283 8 347 -17 q 168 78 218 32 q 88 193 118 125 q 58 347 58 261 m 303 347 q 329 222 303 268 q 417 175 356 175 q 504 222 478 175 q 531 347 531 268 q 504 473 531 426 q 417 519 478 519 q 329 473 356 519 q 303 347 303 426 m 322 981 l 511 981 l 622 797 l 478 797 l 419 883 l 414 883 l 356 797 l 211 797 l 322 981 m 606 950 q 632 960 622 953 q 642 983 642 967 q 624 1010 642 1000 q 553 1025 606 1021 l 575 1122 q 681 1110 639 1119 q 749 1087 724 1101 q 784 1052 774 1072 q 794 1008 794 1032 q 781 948 794 972 q 743 908 767 924 q 688 885 719 893 q 619 872 656 876 l 606 950 z "},"ỗ":{"ha":833,"x_min":58,"x_max":775,"o":"m 58 347 q 88 501 58 433 q 168 616 118 569 q 283 687 218 663 q 417 711 347 711 q 549 687 485 711 q 664 616 614 663 q 744 501 714 569 q 775 347 775 433 q 744 193 775 261 q 664 78 714 125 q 549 8 614 32 q 417 -17 485 -17 q 283 8 347 -17 q 168 78 218 32 q 88 193 118 125 q 58 347 58 261 m 303 347 q 329 222 303 268 q 417 175 356 175 q 504 222 478 175 q 531 347 531 268 q 504 473 531 426 q 417 519 478 519 q 329 473 356 519 q 303 347 303 426 m 308 956 l 525 956 l 633 797 l 481 797 l 419 875 l 414 875 l 353 797 l 200 797 l 308 956 m 206 1006 q 255 1136 217 1097 q 339 1175 293 1175 q 388 1167 367 1175 q 424 1150 408 1160 q 453 1133 440 1140 q 481 1125 467 1125 q 509 1136 497 1125 q 528 1175 521 1147 l 628 1175 q 578 1044 617 1083 q 494 1006 540 1006 q 446 1013 467 1006 q 409 1031 425 1021 q 380 1048 393 1040 q 353 1056 367 1056 q 324 1044 336 1056 q 306 1006 313 1033 l 206 1006 z "},"ộ":{"ha":833,"x_min":58,"x_max":775,"o":"m 58 347 q 88 501 58 433 q 168 616 118 569 q 283 687 218 663 q 417 711 347 711 q 549 687 485 711 q 664 616 614 663 q 744 501 714 569 q 775 347 775 433 q 744 193 775 261 q 664 78 714 125 q 549 8 614 32 q 417 -17 485 -17 q 283 8 347 -17 q 168 78 218 32 q 88 193 118 125 q 58 347 58 261 m 303 347 q 329 222 303 268 q 417 175 356 175 q 504 222 478 175 q 531 347 531 268 q 504 473 531 426 q 417 519 478 519 q 329 473 356 519 q 303 347 303 426 m 317 1039 l 517 1039 l 658 797 l 486 797 l 419 928 l 414 928 l 347 797 l 175 797 l 317 1039 m 417 -367 q 307 -328 350 -367 q 264 -228 264 -290 q 307 -126 264 -165 q 417 -86 350 -86 q 526 -126 483 -86 q 569 -228 569 -165 q 526 -328 569 -290 q 417 -367 483 -367 z "},"ø":{"ha":833,"x_min":58,"x_max":775,"o":"m 354 188 q 417 167 379 167 q 504 217 478 167 q 531 347 531 268 q 530 374 531 361 q 528 397 529 386 l 354 188 m 478 508 q 417 528 451 528 q 329 477 356 528 q 303 347 303 426 q 303 323 303 335 q 306 300 304 311 l 478 508 m 688 592 q 751 485 728 546 q 775 347 775 424 q 744 193 775 261 q 664 78 714 125 q 549 8 614 32 q 417 -17 485 -17 q 228 35 315 -17 l 169 -36 l 83 31 l 144 104 q 81 211 104 150 q 58 347 58 272 q 88 501 58 433 q 168 616 118 569 q 283 687 218 663 q 417 711 347 711 q 604 661 518 711 l 664 733 l 750 667 l 688 592 z "},"œ":{"ha":833,"x_min":17,"x_max":819,"o":"m 231 347 q 245 222 231 268 q 294 175 260 175 q 335 222 322 175 q 349 347 349 268 q 335 473 349 426 q 294 519 322 519 q 245 473 260 519 q 231 347 231 426 m 17 347 q 38 501 17 433 q 94 616 58 569 q 178 687 131 663 q 281 711 226 711 q 378 683 339 711 q 440 608 417 654 q 511 685 468 658 q 599 711 554 711 q 692 684 651 711 q 762 610 733 657 q 805 501 790 564 q 819 369 819 439 q 817 318 819 338 q 811 275 815 299 l 511 275 q 556 193 526 217 q 622 169 585 169 q 669 176 647 169 q 719 203 692 183 l 800 50 q 706 0 758 17 q 613 -17 653 -17 q 519 6 564 -17 q 443 72 474 29 q 374 6 413 28 q 275 -17 336 -17 q 175 8 222 -17 q 92 78 128 32 q 37 193 57 125 q 17 347 17 261 m 633 419 q 623 498 633 465 q 581 531 613 531 q 535 506 556 531 q 508 419 515 481 l 633 419 z "},"ơ":{"ha":833,"x_min":58,"x_max":828,"o":"m 417 175 q 504 222 478 175 q 531 347 531 268 q 504 473 531 426 q 417 519 478 519 q 329 473 356 519 q 303 347 303 426 q 329 222 303 268 q 417 175 356 175 m 783 900 q 814 849 800 881 q 828 781 828 818 q 785 665 828 707 q 676 604 743 622 q 748 493 721 557 q 775 347 775 429 q 744 193 775 261 q 664 78 714 125 q 549 8 614 32 q 417 -17 485 -17 q 283 8 347 -17 q 168 78 218 32 q 88 193 118 125 q 58 347 58 261 q 88 501 58 433 q 168 616 118 569 q 283 687 218 663 q 417 711 347 711 q 564 681 497 711 q 622 704 599 688 q 644 764 644 721 q 637 802 644 785 q 622 831 629 819 l 783 900 z "},"ớ":{"ha":833,"x_min":58,"x_max":828,"o":"m 417 175 q 504 222 478 175 q 531 347 531 268 q 504 473 531 426 q 417 519 478 519 q 329 473 356 519 q 303 347 303 426 q 329 222 303 268 q 417 175 356 175 m 783 900 q 814 849 800 881 q 828 781 828 818 q 785 665 828 707 q 676 604 743 622 q 748 493 721 557 q 775 347 775 429 q 744 193 775 261 q 664 78 714 125 q 549 8 614 32 q 417 -17 485 -17 q 283 8 347 -17 q 168 78 218 32 q 88 193 118 125 q 58 347 58 261 q 88 501 58 433 q 168 616 118 569 q 283 687 218 663 q 417 711 347 711 q 564 681 497 711 q 622 704 599 688 q 644 764 644 721 q 637 802 644 785 q 622 831 629 819 l 783 900 m 467 797 l 294 797 l 417 1039 l 658 1039 l 467 797 z "},"ờ":{"ha":833,"x_min":58,"x_max":828,"o":"m 417 175 q 504 222 478 175 q 531 347 531 268 q 504 473 531 426 q 417 519 478 519 q 329 473 356 519 q 303 347 303 426 q 329 222 303 268 q 417 175 356 175 m 783 900 q 814 849 800 881 q 828 781 828 818 q 785 665 828 707 q 676 604 743 622 q 748 493 721 557 q 775 347 775 429 q 744 193 775 261 q 664 78 714 125 q 549 8 614 32 q 417 -17 485 -17 q 283 8 347 -17 q 168 78 218 32 q 88 193 118 125 q 58 347 58 261 q 88 501 58 433 q 168 616 118 569 q 283 687 218 663 q 417 711 347 711 q 564 681 497 711 q 622 704 599 688 q 644 764 644 721 q 637 802 644 785 q 622 831 629 819 l 783 900 m 175 1039 l 417 1039 l 539 797 l 367 797 l 175 1039 z "},"ở":{"ha":833,"x_min":58,"x_max":828,"o":"m 417 175 q 504 222 478 175 q 531 347 531 268 q 504 473 531 426 q 417 519 478 519 q 329 473 356 519 q 303 347 303 426 q 329 222 303 268 q 417 175 356 175 m 783 900 q 814 849 800 881 q 828 781 828 818 q 785 665 828 707 q 676 604 743 622 q 748 493 721 557 q 775 347 775 429 q 744 193 775 261 q 664 78 714 125 q 549 8 614 32 q 417 -17 485 -17 q 283 8 347 -17 q 168 78 218 32 q 88 193 118 125 q 58 347 58 261 q 88 501 58 433 q 168 616 118 569 q 283 687 218 663 q 417 711 347 711 q 564 681 497 711 q 622 704 599 688 q 644 764 644 721 q 637 802 644 785 q 622 831 629 819 l 783 900 m 347 867 q 387 876 371 869 q 403 900 403 883 q 379 927 403 917 q 294 942 356 938 l 322 1058 q 442 1045 394 1056 q 519 1017 490 1035 q 560 976 549 1000 q 572 925 572 953 q 556 860 572 888 q 510 815 539 833 q 444 786 482 796 q 364 775 407 776 l 347 867 z "},"ỡ":{"ha":833,"x_min":58,"x_max":828,"o":"m 417 175 q 504 222 478 175 q 531 347 531 268 q 504 473 531 426 q 417 519 478 519 q 329 473 356 519 q 303 347 303 426 q 329 222 303 268 q 417 175 356 175 m 783 900 q 814 849 800 881 q 828 781 828 818 q 785 665 828 707 q 676 604 743 622 q 748 493 721 557 q 775 347 775 429 q 744 193 775 261 q 664 78 714 125 q 549 8 614 32 q 417 -17 485 -17 q 283 8 347 -17 q 168 78 218 32 q 88 193 118 125 q 58 347 58 261 q 88 501 58 433 q 168 616 118 569 q 283 687 218 663 q 417 711 347 711 q 564 681 497 711 q 622 704 599 688 q 644 764 644 721 q 637 802 644 785 q 622 831 629 819 l 783 900 m 164 797 q 227 963 179 911 q 342 1014 275 1014 q 388 1003 367 1014 q 427 978 410 992 q 460 953 444 964 q 489 942 475 942 q 525 957 511 942 q 550 1014 539 972 l 669 1014 q 606 849 654 900 q 492 797 558 797 q 444 808 465 797 q 406 833 424 819 q 373 858 388 847 q 344 869 358 869 q 308 854 322 869 q 283 797 294 839 l 164 797 l 164 797 z "},"ợ":{"ha":833,"x_min":58,"x_max":828,"o":"m 417 175 q 504 222 478 175 q 531 347 531 268 q 504 473 531 426 q 417 519 478 519 q 329 473 356 519 q 303 347 303 426 q 329 222 303 268 q 417 175 356 175 m 783 900 q 814 849 800 881 q 828 781 828 818 q 785 665 828 707 q 676 604 743 622 q 748 493 721 557 q 775 347 775 429 q 744 193 775 261 q 664 78 714 125 q 549 8 614 32 q 417 -17 485 -17 q 283 8 347 -17 q 168 78 218 32 q 88 193 118 125 q 58 347 58 261 q 88 501 58 433 q 168 616 118 569 q 283 687 218 663 q 417 711 347 711 q 564 681 497 711 q 622 704 599 688 q 644 764 644 721 q 637 802 644 785 q 622 831 629 819 l 783 900 m 418 -367 q 308 -328 351 -367 q 265 -228 265 -290 q 308 -126 265 -165 q 418 -86 351 -86 q 528 -126 485 -86 q 571 -228 571 -165 q 528 -328 571 -290 q 418 -367 485 -367 z "},"ǫ":{"ha":833,"x_min":58,"x_max":775,"o":"m 286 -164 q 312 -73 286 -111 q 363 -12 338 -35 q 247 24 301 -4 q 150 99 192 53 q 83 207 108 144 q 58 347 58 269 q 88 501 58 433 q 168 616 118 569 q 283 687 218 663 q 417 711 347 711 q 551 687 486 711 q 665 616 615 663 q 745 501 715 569 q 775 347 775 433 q 758 226 775 279 q 708 131 740 172 q 632 58 676 89 q 533 3 588 26 q 463 -51 482 -21 q 444 -108 444 -81 q 462 -144 444 -133 q 500 -156 479 -156 q 525 -151 513 -156 q 547 -139 538 -146 l 594 -244 q 522 -281 565 -268 q 442 -294 478 -294 q 331 -262 376 -294 q 286 -164 286 -229 m 303 347 q 329 222 303 268 q 417 175 356 175 q 504 222 478 175 q 531 347 531 268 q 504 473 531 426 q 417 519 478 519 q 329 473 356 519 q 303 347 303 426 z "},"ŕ":{"ha":833,"x_min":144,"x_max":767,"o":"m 144 694 l 340 694 l 358 547 l 364 547 q 485 672 414 633 q 635 711 556 711 q 710 703 683 711 q 767 683 738 696 l 719 483 q 662 498 688 493 q 599 503 636 503 q 481 467 539 503 q 383 344 422 432 l 383 0 l 144 0 l 144 694 m 519 797 l 347 797 l 469 1039 l 711 1039 l 519 797 z "},"ŗ":{"ha":833,"x_min":132,"x_max":767,"o":"m 144 694 l 340 694 l 358 547 l 364 547 q 485 672 414 633 q 635 711 556 711 q 710 703 683 711 q 767 683 738 696 l 719 483 q 662 498 688 493 q 599 503 636 503 q 481 467 539 503 q 383 344 422 432 l 383 0 l 144 0 l 144 694 m 232 -56 q 373 -92 333 -64 q 413 -175 413 -121 q 391 -240 413 -212 q 333 -285 369 -267 q 249 -314 297 -304 q 149 -325 201 -324 l 132 -233 q 212 -219 181 -229 q 243 -186 243 -210 q 231 -158 243 -169 q 188 -139 219 -147 l 232 -56 l 232 -56 z "},"ř":{"ha":833,"x_min":144,"x_max":767,"o":"m 144 694 l 340 694 l 358 547 l 364 547 q 485 672 414 633 q 635 711 556 711 q 710 703 683 711 q 767 683 738 696 l 719 483 q 662 498 688 493 q 599 503 636 503 q 481 467 539 503 q 383 344 422 432 l 383 0 l 144 0 l 144 694 m 228 1039 l 400 1039 l 467 908 l 472 908 l 539 1039 l 711 1039 l 569 797 l 369 797 l 228 1039 z "},"ṛ":{"ha":833,"x_min":132,"x_max":767,"o":"m 144 694 l 340 694 l 358 547 l 364 547 q 485 672 414 633 q 635 711 556 711 q 710 703 683 711 q 767 683 738 696 l 719 483 q 662 498 688 493 q 599 503 636 503 q 481 467 539 503 q 383 344 422 432 l 383 0 l 144 0 l 144 694 m 285 -367 q 175 -328 218 -367 q 132 -228 132 -290 q 175 -126 132 -165 q 285 -86 218 -86 q 394 -126 351 -86 q 438 -228 438 -165 q 394 -328 438 -290 q 285 -367 351 -367 z "},"ṝ":{"ha":833,"x_min":132,"x_max":767,"o":"m 144 694 l 340 694 l 358 547 l 364 547 q 485 672 414 633 q 635 711 556 711 q 710 703 683 711 q 767 683 738 696 l 719 483 q 662 498 688 493 q 599 503 636 503 q 481 467 539 503 q 383 344 422 432 l 383 0 l 144 0 l 144 694 m 269 967 l 669 967 l 669 817 l 269 817 l 269 967 m 285 -367 q 175 -328 218 -367 q 132 -228 132 -290 q 175 -126 132 -165 q 285 -86 218 -86 q 394 -126 351 -86 q 438 -228 438 -165 q 394 -328 438 -290 q 285 -367 351 -367 z "},"ṟ":{"ha":833,"x_min":85,"x_max":767,"o":"m 144 694 l 340 694 l 358 547 l 364 547 q 485 672 414 633 q 635 711 556 711 q 710 703 683 711 q 767 683 738 696 l 719 483 q 662 498 688 493 q 599 503 636 503 q 481 467 539 503 q 383 344 422 432 l 383 0 l 144 0 l 144 694 m 485 -272 l 85 -272 l 85 -122 l 485 -122 l 485 -272 z "},"ś":{"ha":833,"x_min":64,"x_max":758,"o":"m 169 236 q 289 179 231 200 q 408 158 347 158 q 496 169 471 158 q 521 200 521 179 q 507 224 521 214 q 469 244 493 235 q 415 262 446 253 q 350 281 383 271 q 264 310 307 293 q 186 353 221 328 q 129 410 151 378 q 107 486 107 443 q 131 579 107 538 q 198 650 154 621 q 303 695 242 679 q 440 711 364 711 q 615 680 539 711 q 747 614 692 649 l 642 472 q 544 518 593 500 q 446 536 496 536 q 368 527 392 536 q 344 497 344 518 q 358 474 344 483 q 394 456 371 464 q 447 439 417 447 q 510 422 476 431 q 599 394 554 410 q 678 353 643 378 q 736 295 714 329 q 758 214 758 261 q 735 123 758 165 q 667 49 713 81 q 556 1 622 18 q 403 -17 490 -17 q 222 14 313 -17 q 64 89 131 44 l 169 236 m 489 797 l 317 797 l 439 1039 l 681 1039 l 489 797 z "},"ŝ":{"ha":833,"x_min":64,"x_max":758,"o":"m 169 236 q 289 179 231 200 q 408 158 347 158 q 496 169 471 158 q 521 200 521 179 q 507 224 521 214 q 469 244 493 235 q 415 262 446 253 q 350 281 383 271 q 264 310 307 293 q 186 353 221 328 q 129 410 151 378 q 107 486 107 443 q 131 579 107 538 q 198 650 154 621 q 303 695 242 679 q 440 711 364 711 q 615 680 539 711 q 747 614 692 649 l 642 472 q 544 518 593 500 q 446 536 496 536 q 368 527 392 536 q 344 497 344 518 q 358 474 344 483 q 394 456 371 464 q 447 439 417 447 q 510 422 476 431 q 599 394 554 410 q 678 353 643 378 q 736 295 714 329 q 758 214 758 261 q 735 123 758 165 q 667 49 713 81 q 556 1 622 18 q 403 -17 490 -17 q 222 14 313 -17 q 64 89 131 44 l 169 236 m 339 1039 l 539 1039 l 681 797 l 508 797 l 442 928 l 436 928 l 369 797 l 197 797 l 339 1039 z "},"š":{"ha":833,"x_min":64,"x_max":758,"o":"m 169 236 q 289 179 231 200 q 408 158 347 158 q 496 169 471 158 q 521 200 521 179 q 507 224 521 214 q 469 244 493 235 q 415 262 446 253 q 350 281 383 271 q 264 310 307 293 q 186 353 221 328 q 129 410 151 378 q 107 486 107 443 q 131 579 107 538 q 198 650 154 621 q 303 695 242 679 q 440 711 364 711 q 615 680 539 711 q 747 614 692 649 l 642 472 q 544 518 593 500 q 446 536 496 536 q 368 527 392 536 q 344 497 344 518 q 358 474 344 483 q 394 456 371 464 q 447 439 417 447 q 510 422 476 431 q 599 394 554 410 q 678 353 643 378 q 736 295 714 329 q 758 214 758 261 q 735 123 758 165 q 667 49 713 81 q 556 1 622 18 q 403 -17 490 -17 q 222 14 313 -17 q 64 89 131 44 l 169 236 m 197 1039 l 369 1039 l 436 908 l 442 908 l 508 1039 l 681 1039 l 539 797 l 339 797 l 197 1039 z "},"ş":{"ha":833,"x_min":64,"x_max":758,"o":"m 169 236 q 289 179 231 200 q 408 158 347 158 q 496 169 471 158 q 521 200 521 179 q 507 224 521 214 q 469 244 493 235 q 415 262 446 253 q 350 281 383 271 q 264 310 307 293 q 186 353 221 328 q 129 410 151 378 q 107 486 107 443 q 131 579 107 538 q 198 650 154 621 q 303 695 242 679 q 440 711 364 711 q 615 680 539 711 q 747 614 692 649 l 642 472 q 544 518 593 500 q 446 536 496 536 q 368 527 392 536 q 344 497 344 518 q 358 474 344 483 q 394 456 371 464 q 447 439 417 447 q 510 422 476 431 q 599 394 554 410 q 678 353 643 378 q 736 295 714 329 q 758 214 758 261 q 735 123 758 165 q 667 49 713 81 q 556 1 622 18 q 403 -17 490 -17 q 222 14 313 -17 q 64 89 131 44 l 169 236 m 367 6 l 503 6 l 478 -56 q 536 -92 514 -68 q 558 -161 558 -117 q 537 -226 558 -199 q 479 -272 515 -253 q 395 -300 443 -290 q 294 -311 347 -310 l 278 -219 q 358 -202 326 -215 q 389 -161 389 -189 q 374 -132 389 -146 q 311 -106 360 -118 l 367 6 z "},"ș":{"ha":833,"x_min":64,"x_max":758,"o":"m 169 236 q 289 179 231 200 q 408 158 347 158 q 496 169 471 158 q 521 200 521 179 q 507 224 521 214 q 469 244 493 235 q 415 262 446 253 q 350 281 383 271 q 264 310 307 293 q 186 353 221 328 q 129 410 151 378 q 107 486 107 443 q 131 579 107 538 q 198 650 154 621 q 303 695 242 679 q 440 711 364 711 q 615 680 539 711 q 747 614 692 649 l 642 472 q 544 518 593 500 q 446 536 496 536 q 368 527 392 536 q 344 497 344 518 q 358 474 344 483 q 394 456 371 464 q 447 439 417 447 q 510 422 476 431 q 599 394 554 410 q 678 353 643 378 q 736 295 714 329 q 758 214 758 261 q 735 123 758 165 q 667 49 713 81 q 556 1 622 18 q 403 -17 490 -17 q 222 14 313 -17 q 64 89 131 44 l 169 236 m 372 -56 q 513 -92 474 -64 q 553 -175 553 -121 q 531 -240 553 -212 q 474 -285 510 -267 q 390 -314 438 -304 q 289 -325 342 -324 l 272 -233 q 352 -219 321 -229 q 383 -186 383 -210 q 372 -158 383 -169 q 328 -139 360 -147 l 372 -56 l 372 -56 z "},"ṡ":{"ha":833,"x_min":64,"x_max":758,"o":"m 169 236 q 289 179 231 200 q 408 158 347 158 q 496 169 471 158 q 521 200 521 179 q 507 224 521 214 q 469 244 493 235 q 415 262 446 253 q 350 281 383 271 q 264 310 307 293 q 186 353 221 328 q 129 410 151 378 q 107 486 107 443 q 131 579 107 538 q 198 650 154 621 q 303 695 242 679 q 440 711 364 711 q 615 680 539 711 q 747 614 692 649 l 642 472 q 544 518 593 500 q 446 536 496 536 q 368 527 392 536 q 344 497 344 518 q 358 474 344 483 q 394 456 371 464 q 447 439 417 447 q 510 422 476 431 q 599 394 554 410 q 678 353 643 378 q 736 295 714 329 q 758 214 758 261 q 735 123 758 165 q 667 49 713 81 q 556 1 622 18 q 403 -17 490 -17 q 222 14 313 -17 q 64 89 131 44 l 169 236 m 439 781 q 329 819 372 781 q 286 919 286 857 q 329 1022 286 982 q 439 1061 372 1061 q 549 1022 506 1061 q 592 919 592 982 q 549 819 592 857 q 439 781 506 781 z "},"ṣ":{"ha":833,"x_min":64,"x_max":758,"o":"m 169 236 q 289 179 231 200 q 408 158 347 158 q 496 169 471 158 q 521 200 521 179 q 507 224 521 214 q 469 244 493 235 q 415 262 446 253 q 350 281 383 271 q 264 310 307 293 q 186 353 221 328 q 129 410 151 378 q 107 486 107 443 q 131 579 107 538 q 198 650 154 621 q 303 695 242 679 q 440 711 364 711 q 615 680 539 711 q 747 614 692 649 l 642 472 q 544 518 593 500 q 446 536 496 536 q 368 527 392 536 q 344 497 344 518 q 358 474 344 483 q 394 456 371 464 q 447 439 417 447 q 510 422 476 431 q 599 394 554 410 q 678 353 643 378 q 736 295 714 329 q 758 214 758 261 q 735 123 758 165 q 667 49 713 81 q 556 1 622 18 q 403 -17 490 -17 q 222 14 313 -17 q 64 89 131 44 l 169 236 m 425 -367 q 315 -328 358 -367 q 272 -228 272 -290 q 315 -126 272 -165 q 425 -86 358 -86 q 535 -126 492 -86 q 578 -228 578 -165 q 535 -328 578 -290 q 425 -367 492 -367 z "}}}
